<svg width="1612" height="1209" viewBox="0 0 1612 1209" fill="none" xmlns="http://www.w3.org/2000/svg">
<g clip-path="url(#clip0_30_1328)">
<circle cx="70.9997" cy="101" r="66.6667" stroke="#F0D6C2" stroke-width="2"/>
<circle cx="136.334" cy="167.667" r="66.6667" stroke="#F0D6C2" stroke-width="2"/>
<circle cx="70.9997" cy="910.5" r="66.6667" stroke="#F0D6C2" stroke-width="2"/>
<circle cx="136.334" cy="977.167" r="66.6667" stroke="#F0D6C2" stroke-width="2"/>
<circle cx="1015" cy="101" r="66.6667" stroke="#F0D6C2" stroke-width="2"/>
<circle cx="1080.33" cy="167.667" r="66.6667" stroke="#F0D6C2" stroke-width="2"/>
<circle cx="1015" cy="910.5" r="66.6667" stroke="#F0D6C2" stroke-width="2"/>
<circle cx="1080.33" cy="977.167" r="66.6667" stroke="#F0D6C2" stroke-width="2"/>
<circle cx="70.9997" cy="371.5" r="66.6667" stroke="#F0D6C2" stroke-width="2"/>
<circle cx="136.334" cy="438.167" r="66.6667" stroke="#F0D6C2" stroke-width="2"/>
<circle cx="70.9997" cy="1181" r="66.6667" stroke="#F0D6C2" stroke-width="2"/>
<circle cx="136.334" cy="1247.67" r="66.6667" stroke="#F0D6C2" stroke-width="2"/>
<circle cx="1015" cy="371.5" r="66.6667" stroke="#F0D6C2" stroke-width="2"/>
<circle cx="1080.33" cy="438.167" r="66.6667" stroke="#F0D6C2" stroke-width="2"/>
<circle cx="1015" cy="1181" r="66.6667" stroke="#F0D6C2" stroke-width="2"/>
<circle cx="1080.33" cy="1247.67" r="66.6667" stroke="#F0D6C2" stroke-width="2"/>
<circle cx="206" cy="101" r="66.6667" stroke="#F0D6C2" stroke-width="2"/>
<circle cx="271.334" cy="167.667" r="66.6667" stroke="#F0D6C2" stroke-width="2"/>
<circle cx="206" cy="910.5" r="66.6667" stroke="#F0D6C2" stroke-width="2"/>
<circle cx="271.334" cy="977.167" r="66.6667" stroke="#F0D6C2" stroke-width="2"/>
<circle cx="1150" cy="101" r="66.6667" stroke="#F0D6C2" stroke-width="2"/>
<circle cx="1215.33" cy="167.667" r="66.6667" stroke="#F0D6C2" stroke-width="2"/>
<circle cx="1150" cy="910.5" r="66.6667" stroke="#F0D6C2" stroke-width="2"/>
<circle cx="1215.33" cy="977.167" r="66.6667" stroke="#F0D6C2" stroke-width="2"/>
<circle cx="206" cy="371.5" r="66.6667" stroke="#F0D6C2" stroke-width="2"/>
<circle cx="271.334" cy="438.167" r="66.6667" stroke="#F0D6C2" stroke-width="2"/>
<circle cx="206" cy="1181" r="66.6667" stroke="#F0D6C2" stroke-width="2"/>
<circle cx="271.334" cy="1247.67" r="66.6667" stroke="#F0D6C2" stroke-width="2"/>
<circle cx="1150" cy="371.5" r="66.6667" stroke="#F0D6C2" stroke-width="2"/>
<circle cx="1215.33" cy="438.167" r="66.6667" stroke="#F0D6C2" stroke-width="2"/>
<circle cx="1150" cy="1181" r="66.6667" stroke="#F0D6C2" stroke-width="2"/>
<circle cx="1215.33" cy="1247.67" r="66.6667" stroke="#F0D6C2" stroke-width="2"/>
<circle cx="341" cy="101" r="66.6667" stroke="#F0D6C2" stroke-width="2"/>
<circle cx="406.334" cy="167.667" r="66.6667" stroke="#F0D6C2" stroke-width="2"/>
<circle cx="341" cy="910.5" r="66.6667" stroke="#F0D6C2" stroke-width="2"/>
<circle cx="406.334" cy="977.167" r="66.6667" stroke="#F0D6C2" stroke-width="2"/>
<circle cx="1285" cy="101" r="66.6667" stroke="#F0D6C2" stroke-width="2"/>
<circle cx="1350.33" cy="167.667" r="66.6667" stroke="#F0D6C2" stroke-width="2"/>
<circle cx="1285" cy="910.5" r="66.6667" stroke="#F0D6C2" stroke-width="2"/>
<circle cx="1350.33" cy="977.167" r="66.6667" stroke="#F0D6C2" stroke-width="2"/>
<circle cx="341" cy="371.5" r="66.6667" stroke="#F0D6C2" stroke-width="2"/>
<circle cx="406.334" cy="438.167" r="66.6667" stroke="#F0D6C2" stroke-width="2"/>
<circle cx="341" cy="1181" r="66.6667" stroke="#F0D6C2" stroke-width="2"/>
<circle cx="406.334" cy="1247.67" r="66.6667" stroke="#F0D6C2" stroke-width="2"/>
<circle cx="1285" cy="371.5" r="66.6667" stroke="#F0D6C2" stroke-width="2"/>
<circle cx="1350.33" cy="438.167" r="66.6667" stroke="#F0D6C2" stroke-width="2"/>
<circle cx="1285" cy="1181" r="66.6667" stroke="#F0D6C2" stroke-width="2"/>
<circle cx="1350.33" cy="1247.67" r="66.6667" stroke="#F0D6C2" stroke-width="2"/>
<circle cx="476" cy="101" r="66.6667" stroke="#F0D6C2" stroke-width="2"/>
<circle cx="541.334" cy="167.667" r="66.6667" stroke="#F0D6C2" stroke-width="2"/>
<circle cx="476" cy="910.5" r="66.6667" stroke="#F0D6C2" stroke-width="2"/>
<circle cx="541.334" cy="977.167" r="66.6667" stroke="#F0D6C2" stroke-width="2"/>
<circle cx="1420" cy="101" r="66.6667" stroke="#F0D6C2" stroke-width="2"/>
<circle cx="1485.33" cy="167.667" r="66.6667" stroke="#F0D6C2" stroke-width="2"/>
<circle cx="1420" cy="910.5" r="66.6667" stroke="#F0D6C2" stroke-width="2"/>
<circle cx="1485.33" cy="977.167" r="66.6667" stroke="#F0D6C2" stroke-width="2"/>
<circle cx="476" cy="371.5" r="66.6667" stroke="#F0D6C2" stroke-width="2"/>
<circle cx="541.334" cy="438.167" r="66.6667" stroke="#F0D6C2" stroke-width="2"/>
<circle cx="476" cy="1181" r="66.6667" stroke="#F0D6C2" stroke-width="2"/>
<circle cx="541.334" cy="1247.67" r="66.6667" stroke="#F0D6C2" stroke-width="2"/>
<circle cx="1420" cy="371.5" r="66.6667" stroke="#F0D6C2" stroke-width="2"/>
<circle cx="1485.33" cy="438.167" r="66.6667" stroke="#F0D6C2" stroke-width="2"/>
<circle cx="1420" cy="1181" r="66.6667" stroke="#F0D6C2" stroke-width="2"/>
<circle cx="1485.33" cy="1247.67" r="66.6667" stroke="#F0D6C2" stroke-width="2"/>
<circle cx="611" cy="101" r="66.6667" stroke="#F0D6C2" stroke-width="2"/>
<circle cx="676.334" cy="167.667" r="66.6667" stroke="#F0D6C2" stroke-width="2"/>
<circle cx="611" cy="910.5" r="66.6667" stroke="#F0D6C2" stroke-width="2"/>
<circle cx="676.334" cy="977.167" r="66.6667" stroke="#F0D6C2" stroke-width="2"/>
<circle cx="1555" cy="101" r="66.6667" stroke="#F0D6C2" stroke-width="2"/>
<circle cx="1620.33" cy="167.667" r="66.6667" stroke="#F0D6C2" stroke-width="2"/>
<circle cx="1555" cy="910.5" r="66.6667" stroke="#F0D6C2" stroke-width="2"/>
<circle cx="1620.33" cy="977.167" r="66.6667" stroke="#F0D6C2" stroke-width="2"/>
<circle cx="611" cy="371.5" r="66.6667" stroke="#F0D6C2" stroke-width="2"/>
<circle cx="676.334" cy="438.167" r="66.6667" stroke="#F0D6C2" stroke-width="2"/>
<circle cx="611" cy="1181" r="66.6667" stroke="#F0D6C2" stroke-width="2"/>
<circle cx="676.334" cy="1247.67" r="66.6667" stroke="#F0D6C2" stroke-width="2"/>
<circle cx="1555" cy="371.5" r="66.6667" stroke="#F0D6C2" stroke-width="2"/>
<circle cx="1620.33" cy="438.167" r="66.6667" stroke="#F0D6C2" stroke-width="2"/>
<circle cx="1555" cy="1181" r="66.6667" stroke="#F0D6C2" stroke-width="2"/>
<circle cx="1620.33" cy="1247.67" r="66.6667" stroke="#F0D6C2" stroke-width="2"/>
<circle cx="746" cy="101" r="66.6667" stroke="#F0D6C2" stroke-width="2"/>
<circle cx="811.334" cy="167.667" r="66.6667" stroke="#F0D6C2" stroke-width="2"/>
<circle cx="746" cy="910.5" r="66.6667" stroke="#F0D6C2" stroke-width="2"/>
<circle cx="811.334" cy="977.167" r="66.6667" stroke="#F0D6C2" stroke-width="2"/>
<circle cx="746" cy="371.5" r="66.6667" stroke="#F0D6C2" stroke-width="2"/>
<circle cx="811.334" cy="438.167" r="66.6667" stroke="#F0D6C2" stroke-width="2"/>
<circle cx="746" cy="1181" r="66.6667" stroke="#F0D6C2" stroke-width="2"/>
<circle cx="811.334" cy="1247.67" r="66.6667" stroke="#F0D6C2" stroke-width="2"/>
<circle cx="-64.0003" cy="101" r="66.6667" stroke="#F0D6C2" stroke-width="2"/>
<circle cx="1.33366" cy="167.667" r="66.6667" stroke="#F0D6C2" stroke-width="2"/>
<circle cx="-64.0003" cy="910.5" r="66.6667" stroke="#F0D6C2" stroke-width="2"/>
<circle cx="1.33366" cy="977.167" r="66.6667" stroke="#F0D6C2" stroke-width="2"/>
<circle cx="880" cy="101" r="66.6667" stroke="#F0D6C2" stroke-width="2"/>
<circle cx="945.334" cy="167.667" r="66.6667" stroke="#F0D6C2" stroke-width="2"/>
<circle cx="880" cy="910.5" r="66.6667" stroke="#F0D6C2" stroke-width="2"/>
<circle cx="945.334" cy="977.167" r="66.6667" stroke="#F0D6C2" stroke-width="2"/>
<circle cx="-64.0003" cy="371.5" r="66.6667" stroke="#F0D6C2" stroke-width="2"/>
<circle cx="1.33366" cy="438.167" r="66.6667" stroke="#F0D6C2" stroke-width="2"/>
<circle cx="-64.0003" cy="1181" r="66.6667" stroke="#F0D6C2" stroke-width="2"/>
<circle cx="1.33366" cy="1247.67" r="66.6667" stroke="#F0D6C2" stroke-width="2"/>
<circle cx="880" cy="371.5" r="66.6667" stroke="#F0D6C2" stroke-width="2"/>
<circle cx="945.334" cy="438.167" r="66.6667" stroke="#F0D6C2" stroke-width="2"/>
<circle cx="880" cy="1181" r="66.6667" stroke="#F0D6C2" stroke-width="2"/>
<circle cx="945.334" cy="1247.67" r="66.6667" stroke="#F0D6C2" stroke-width="2"/>
<circle cx="70.9997" cy="-33.9998" r="66.6667" stroke="#F0D6C2" stroke-width="2"/>
<circle cx="136.334" cy="32.6667" r="66.6667" stroke="#F0D6C2" stroke-width="2"/>
<circle cx="70.9997" cy="775.5" r="66.6667" stroke="#F0D6C2" stroke-width="2"/>
<circle cx="136.334" cy="842.167" r="66.6667" stroke="#F0D6C2" stroke-width="2"/>
<circle cx="1015" cy="-33.9998" r="66.6667" stroke="#F0D6C2" stroke-width="2"/>
<circle cx="1080.33" cy="32.6667" r="66.6667" stroke="#F0D6C2" stroke-width="2"/>
<circle cx="1015" cy="775.5" r="66.6667" stroke="#F0D6C2" stroke-width="2"/>
<circle cx="1080.33" cy="842.167" r="66.6667" stroke="#F0D6C2" stroke-width="2"/>
<circle cx="70.9997" cy="236.5" r="66.6667" stroke="#F0D6C2" stroke-width="2"/>
<circle cx="136.334" cy="303.167" r="66.6667" stroke="#F0D6C2" stroke-width="2"/>
<circle cx="70.9997" cy="1046" r="66.6667" stroke="#F0D6C2" stroke-width="2"/>
<circle cx="136.334" cy="1112.67" r="66.6667" stroke="#F0D6C2" stroke-width="2"/>
<circle cx="1015" cy="236.5" r="66.6667" stroke="#F0D6C2" stroke-width="2"/>
<circle cx="1080.33" cy="303.167" r="66.6667" stroke="#F0D6C2" stroke-width="2"/>
<circle cx="1015" cy="1046" r="66.6667" stroke="#F0D6C2" stroke-width="2"/>
<circle cx="1080.33" cy="1112.67" r="66.6667" stroke="#F0D6C2" stroke-width="2"/>
<circle cx="206" cy="-33.9998" r="66.6667" stroke="#F0D6C2" stroke-width="2"/>
<circle cx="271.334" cy="32.6667" r="66.6667" stroke="#F0D6C2" stroke-width="2"/>
<circle cx="206" cy="775.5" r="66.6667" stroke="#F0D6C2" stroke-width="2"/>
<circle cx="271.334" cy="842.167" r="66.6667" stroke="#F0D6C2" stroke-width="2"/>
<circle cx="1150" cy="-33.9998" r="66.6667" stroke="#F0D6C2" stroke-width="2"/>
<circle cx="1215.33" cy="32.6667" r="66.6667" stroke="#F0D6C2" stroke-width="2"/>
<circle cx="1150" cy="775.5" r="66.6667" stroke="#F0D6C2" stroke-width="2"/>
<circle cx="1215.33" cy="842.167" r="66.6667" stroke="#F0D6C2" stroke-width="2"/>
<circle cx="206" cy="236.5" r="66.6667" stroke="#F0D6C2" stroke-width="2"/>
<circle cx="271.334" cy="303.167" r="66.6667" stroke="#F0D6C2" stroke-width="2"/>
<circle cx="206" cy="1046" r="66.6667" stroke="#F0D6C2" stroke-width="2"/>
<circle cx="271.334" cy="1112.67" r="66.6667" stroke="#F0D6C2" stroke-width="2"/>
<circle cx="1150" cy="236.5" r="66.6667" stroke="#F0D6C2" stroke-width="2"/>
<circle cx="1215.33" cy="303.167" r="66.6667" stroke="#F0D6C2" stroke-width="2"/>
<circle cx="1150" cy="1046" r="66.6667" stroke="#F0D6C2" stroke-width="2"/>
<circle cx="1215.33" cy="1112.67" r="66.6667" stroke="#F0D6C2" stroke-width="2"/>
<circle cx="341" cy="-33.9998" r="66.6667" stroke="#F0D6C2" stroke-width="2"/>
<circle cx="406.334" cy="32.6667" r="66.6667" stroke="#F0D6C2" stroke-width="2"/>
<circle cx="341" cy="775.5" r="66.6667" stroke="#F0D6C2" stroke-width="2"/>
<circle cx="406.334" cy="842.167" r="66.6667" stroke="#F0D6C2" stroke-width="2"/>
<circle cx="1285" cy="-33.9998" r="66.6667" stroke="#F0D6C2" stroke-width="2"/>
<circle cx="1350.33" cy="32.6667" r="66.6667" stroke="#F0D6C2" stroke-width="2"/>
<circle cx="1285" cy="775.5" r="66.6667" stroke="#F0D6C2" stroke-width="2"/>
<circle cx="1350.33" cy="842.167" r="66.6667" stroke="#F0D6C2" stroke-width="2"/>
<circle cx="341" cy="236.5" r="66.6667" stroke="#F0D6C2" stroke-width="2"/>
<circle cx="406.334" cy="303.167" r="66.6667" stroke="#F0D6C2" stroke-width="2"/>
<circle cx="341" cy="1046" r="66.6667" stroke="#F0D6C2" stroke-width="2"/>
<circle cx="406.334" cy="1112.67" r="66.6667" stroke="#F0D6C2" stroke-width="2"/>
<circle cx="1285" cy="236.5" r="66.6667" stroke="#F0D6C2" stroke-width="2"/>
<circle cx="1350.33" cy="303.167" r="66.6667" stroke="#F0D6C2" stroke-width="2"/>
<circle cx="1285" cy="1046" r="66.6667" stroke="#F0D6C2" stroke-width="2"/>
<circle cx="1350.33" cy="1112.67" r="66.6667" stroke="#F0D6C2" stroke-width="2"/>
<circle cx="476" cy="-33.9998" r="66.6667" stroke="#F0D6C2" stroke-width="2"/>
<circle cx="541.334" cy="32.6667" r="66.6667" stroke="#F0D6C2" stroke-width="2"/>
<circle cx="476" cy="775.5" r="66.6667" stroke="#F0D6C2" stroke-width="2"/>
<circle cx="541.334" cy="842.167" r="66.6667" stroke="#F0D6C2" stroke-width="2"/>
<circle cx="1420" cy="-33.9998" r="66.6667" stroke="#F0D6C2" stroke-width="2"/>
<circle cx="1485.33" cy="32.6667" r="66.6667" stroke="#F0D6C2" stroke-width="2"/>
<circle cx="1420" cy="775.5" r="66.6667" stroke="#F0D6C2" stroke-width="2"/>
<circle cx="1485.33" cy="842.167" r="66.6667" stroke="#F0D6C2" stroke-width="2"/>
<circle cx="476" cy="236.5" r="66.6667" stroke="#F0D6C2" stroke-width="2"/>
<circle cx="541.334" cy="303.167" r="66.6667" stroke="#F0D6C2" stroke-width="2"/>
<circle cx="476" cy="1046" r="66.6667" stroke="#F0D6C2" stroke-width="2"/>
<circle cx="541.334" cy="1112.67" r="66.6667" stroke="#F0D6C2" stroke-width="2"/>
<circle cx="1420" cy="236.5" r="66.6667" stroke="#F0D6C2" stroke-width="2"/>
<circle cx="1485.33" cy="303.167" r="66.6667" stroke="#F0D6C2" stroke-width="2"/>
<circle cx="1420" cy="1046" r="66.6667" stroke="#F0D6C2" stroke-width="2"/>
<circle cx="1485.33" cy="1112.67" r="66.6667" stroke="#F0D6C2" stroke-width="2"/>
<circle cx="611" cy="-33.9998" r="66.6667" stroke="#F0D6C2" stroke-width="2"/>
<circle cx="676.334" cy="32.6667" r="66.6667" stroke="#F0D6C2" stroke-width="2"/>
<circle cx="611" cy="775.5" r="66.6667" stroke="#F0D6C2" stroke-width="2"/>
<circle cx="676.334" cy="842.167" r="66.6667" stroke="#F0D6C2" stroke-width="2"/>
<circle cx="1555" cy="-33.9998" r="66.6667" stroke="#F0D6C2" stroke-width="2"/>
<circle cx="1620.33" cy="32.6667" r="66.6667" stroke="#F0D6C2" stroke-width="2"/>
<circle cx="1555" cy="775.5" r="66.6667" stroke="#F0D6C2" stroke-width="2"/>
<circle cx="1620.33" cy="842.167" r="66.6667" stroke="#F0D6C2" stroke-width="2"/>
<circle cx="611" cy="236.5" r="66.6667" stroke="#F0D6C2" stroke-width="2"/>
<circle cx="676.334" cy="303.167" r="66.6667" stroke="#F0D6C2" stroke-width="2"/>
<circle cx="611" cy="1046" r="66.6667" stroke="#F0D6C2" stroke-width="2"/>
<circle cx="676.334" cy="1112.67" r="66.6667" stroke="#F0D6C2" stroke-width="2"/>
<circle cx="1555" cy="236.5" r="66.6667" stroke="#F0D6C2" stroke-width="2"/>
<circle cx="1620.33" cy="303.167" r="66.6667" stroke="#F0D6C2" stroke-width="2"/>
<circle cx="1555" cy="1046" r="66.6667" stroke="#F0D6C2" stroke-width="2"/>
<circle cx="1620.33" cy="1112.67" r="66.6667" stroke="#F0D6C2" stroke-width="2"/>
<circle cx="746" cy="-33.9998" r="66.6667" stroke="#F0D6C2" stroke-width="2"/>
<circle cx="811.334" cy="32.6667" r="66.6667" stroke="#F0D6C2" stroke-width="2"/>
<circle cx="746" cy="775.5" r="66.6667" stroke="#F0D6C2" stroke-width="2"/>
<circle cx="811.334" cy="842.167" r="66.6667" stroke="#F0D6C2" stroke-width="2"/>
<circle cx="746" cy="236.5" r="66.6667" stroke="#F0D6C2" stroke-width="2"/>
<circle cx="811.334" cy="303.167" r="66.6667" stroke="#F0D6C2" stroke-width="2"/>
<circle cx="746" cy="1046" r="66.6667" stroke="#F0D6C2" stroke-width="2"/>
<circle cx="811.334" cy="1112.67" r="66.6667" stroke="#F0D6C2" stroke-width="2"/>
<circle cx="-64.0003" cy="-33.9998" r="66.6667" stroke="#F0D6C2" stroke-width="2"/>
<circle cx="1.33366" cy="32.6667" r="66.6667" stroke="#F0D6C2" stroke-width="2"/>
<circle cx="-64.0003" cy="775.5" r="66.6667" stroke="#F0D6C2" stroke-width="2"/>
<circle cx="1.33366" cy="842.167" r="66.6667" stroke="#F0D6C2" stroke-width="2"/>
<circle cx="880" cy="-33.9998" r="66.6667" stroke="#F0D6C2" stroke-width="2"/>
<circle cx="945.334" cy="32.6667" r="66.6667" stroke="#F0D6C2" stroke-width="2"/>
<circle cx="880" cy="775.5" r="66.6667" stroke="#F0D6C2" stroke-width="2"/>
<circle cx="945.334" cy="842.167" r="66.6667" stroke="#F0D6C2" stroke-width="2"/>
<circle cx="-64.0003" cy="236.5" r="66.6667" stroke="#F0D6C2" stroke-width="2"/>
<circle cx="1.33366" cy="303.167" r="66.6667" stroke="#F0D6C2" stroke-width="2"/>
<circle cx="-64.0003" cy="1046" r="66.6667" stroke="#F0D6C2" stroke-width="2"/>
<circle cx="1.33366" cy="1112.67" r="66.6667" stroke="#F0D6C2" stroke-width="2"/>
<circle cx="880" cy="236.5" r="66.6667" stroke="#F0D6C2" stroke-width="2"/>
<circle cx="945.334" cy="303.167" r="66.6667" stroke="#F0D6C2" stroke-width="2"/>
<circle cx="880" cy="1046" r="66.6667" stroke="#F0D6C2" stroke-width="2"/>
<circle cx="945.334" cy="1112.67" r="66.6667" stroke="#F0D6C2" stroke-width="2"/>
<circle cx="70.9997" cy="641.5" r="66.6667" stroke="#F0D6C2" stroke-width="2"/>
<circle cx="136.334" cy="708.167" r="66.6667" stroke="#F0D6C2" stroke-width="2"/>
<circle cx="1015" cy="641.5" r="66.6667" stroke="#F0D6C2" stroke-width="2"/>
<circle cx="1080.33" cy="708.167" r="66.6667" stroke="#F0D6C2" stroke-width="2"/>
<circle cx="206" cy="641.5" r="66.6667" stroke="#F0D6C2" stroke-width="2"/>
<circle cx="271.334" cy="708.167" r="66.6667" stroke="#F0D6C2" stroke-width="2"/>
<circle cx="1150" cy="641.5" r="66.6667" stroke="#F0D6C2" stroke-width="2"/>
<circle cx="1215.33" cy="708.167" r="66.6667" stroke="#F0D6C2" stroke-width="2"/>
<circle cx="341" cy="641.5" r="66.6667" stroke="#F0D6C2" stroke-width="2"/>
<circle cx="406.334" cy="708.167" r="66.6667" stroke="#F0D6C2" stroke-width="2"/>
<circle cx="1285" cy="641.5" r="66.6667" stroke="#F0D6C2" stroke-width="2"/>
<circle cx="1350.33" cy="708.167" r="66.6667" stroke="#F0D6C2" stroke-width="2"/>
<circle cx="476" cy="641.5" r="66.6667" stroke="#F0D6C2" stroke-width="2"/>
<circle cx="541.334" cy="708.167" r="66.6667" stroke="#F0D6C2" stroke-width="2"/>
<circle cx="1420" cy="641.5" r="66.6667" stroke="#F0D6C2" stroke-width="2"/>
<circle cx="1485.33" cy="708.167" r="66.6667" stroke="#F0D6C2" stroke-width="2"/>
<circle cx="611" cy="641.5" r="66.6667" stroke="#F0D6C2" stroke-width="2"/>
<circle cx="676.334" cy="708.167" r="66.6667" stroke="#F0D6C2" stroke-width="2"/>
<circle cx="1555" cy="641.5" r="66.6667" stroke="#F0D6C2" stroke-width="2"/>
<circle cx="1620.33" cy="708.167" r="66.6667" stroke="#F0D6C2" stroke-width="2"/>
<circle cx="746" cy="641.5" r="66.6667" stroke="#F0D6C2" stroke-width="2"/>
<circle cx="811.334" cy="708.167" r="66.6667" stroke="#F0D6C2" stroke-width="2"/>
<circle cx="-64.0003" cy="641.5" r="66.6667" stroke="#F0D6C2" stroke-width="2"/>
<circle cx="1.33366" cy="708.167" r="66.6667" stroke="#F0D6C2" stroke-width="2"/>
<circle cx="880" cy="641.5" r="66.6667" stroke="#F0D6C2" stroke-width="2"/>
<circle cx="945.334" cy="708.167" r="66.6667" stroke="#F0D6C2" stroke-width="2"/>
<circle cx="70.9997" cy="506.5" r="66.6667" stroke="#F0D6C2" stroke-width="2"/>
<circle cx="136.334" cy="573.167" r="66.6667" stroke="#F0D6C2" stroke-width="2"/>
<circle cx="1015" cy="506.5" r="66.6667" stroke="#F0D6C2" stroke-width="2"/>
<circle cx="1080.33" cy="573.167" r="66.6667" stroke="#F0D6C2" stroke-width="2"/>
<circle cx="206" cy="506.5" r="66.6667" stroke="#F0D6C2" stroke-width="2"/>
<circle cx="271.334" cy="573.167" r="66.6667" stroke="#F0D6C2" stroke-width="2"/>
<circle cx="1150" cy="506.5" r="66.6667" stroke="#F0D6C2" stroke-width="2"/>
<circle cx="1215.33" cy="573.167" r="66.6667" stroke="#F0D6C2" stroke-width="2"/>
<circle cx="341" cy="506.5" r="66.6667" stroke="#F0D6C2" stroke-width="2"/>
<circle cx="406.334" cy="573.167" r="66.6667" stroke="#F0D6C2" stroke-width="2"/>
<circle cx="1285" cy="506.5" r="66.6667" stroke="#F0D6C2" stroke-width="2"/>
<circle cx="1350.33" cy="573.167" r="66.6667" stroke="#F0D6C2" stroke-width="2"/>
<circle cx="476" cy="506.5" r="66.6667" stroke="#F0D6C2" stroke-width="2"/>
<circle cx="541.334" cy="573.167" r="66.6667" stroke="#F0D6C2" stroke-width="2"/>
<circle cx="1420" cy="506.5" r="66.6667" stroke="#F0D6C2" stroke-width="2"/>
<circle cx="1485.33" cy="573.167" r="66.6667" stroke="#F0D6C2" stroke-width="2"/>
<circle cx="611" cy="506.5" r="66.6667" stroke="#F0D6C2" stroke-width="2"/>
<circle cx="676.334" cy="573.167" r="66.6667" stroke="#F0D6C2" stroke-width="2"/>
<circle cx="1555" cy="506.5" r="66.6667" stroke="#F0D6C2" stroke-width="2"/>
<circle cx="1620.33" cy="573.167" r="66.6667" stroke="#F0D6C2" stroke-width="2"/>
<circle cx="746" cy="506.5" r="66.6667" stroke="#F0D6C2" stroke-width="2"/>
<circle cx="811.334" cy="573.167" r="66.6667" stroke="#F0D6C2" stroke-width="2"/>
<circle cx="-64.0003" cy="506.5" r="66.6667" stroke="#F0D6C2" stroke-width="2"/>
<circle cx="1.33366" cy="573.167" r="66.6667" stroke="#F0D6C2" stroke-width="2"/>
<circle cx="880" cy="506.5" r="66.6667" stroke="#F0D6C2" stroke-width="2"/>
<circle cx="945.334" cy="573.167" r="66.6667" stroke="#F0D6C2" stroke-width="2"/>
</g>
<defs>
<clipPath id="clip0_30_1328">
<rect width="1612" height="1209" fill="white"/>
</clipPath>
</defs>
</svg>
