<svg width="1920" height="1080" viewBox="0 0 1920 1080" fill="none" xmlns="http://www.w3.org/2000/svg">
<g clip-path="url(#clip0_20_220)">
<g clip-path="url(#clip1_20_220)">
<path d="M1958.53 -59.9995C1959.02 -59.9995 1959.51 -59.996 1960 -59.9888C1960 -4.76528 1915.89 40.0004 1861.47 40.0005C1860.98 40.0005 1860.49 39.996 1860 39.9888C1860.01 -15.2343 1904.12 -59.9994 1958.53 -59.9995Z" fill="#D64A34" fill-opacity="0.24"/>
<path d="M1960 138.53C1960 139.021 1960 139.51 1959.99 140C1904.77 139.994 1860 95.8839 1860 41.4712C1860 40.9801 1860.01 40.4898 1860.01 40.0005C1915.24 40.0067 1960 84.1174 1960 138.53Z" fill="#D64A34" fill-opacity="0.24"/>
<path d="M1860 38.5298C1860 39.0205 1860 39.5105 1859.99 39.9995C1804.77 39.9938 1760 -4.1161 1760 -58.5288C1760 -59.0199 1760.01 -59.5102 1760.01 -59.9995C1815.24 -59.9933 1860 -15.8826 1860 38.5298Z" fill="#D64A34" fill-opacity="0.24"/>
<path d="M1858.53 40.0005C1859.02 40.0005 1859.51 40.004 1860 40.0112C1860 95.2347 1815.89 140 1761.47 140C1760.98 140 1760.49 139.996 1760 139.989C1760.01 84.7657 1804.12 40.0006 1858.53 40.0005Z" fill="#D64A34" fill-opacity="0.24"/>
</g>
<g clip-path="url(#clip2_20_220)">
<path d="M958.529 -59.9995C959.02 -59.9995 959.51 -59.996 959.999 -59.9888C959.993 -4.76528 915.883 40.0004 861.471 40.0005C860.98 40.0005 860.489 39.996 860 39.9888C860.006 -15.2343 904.117 -59.9994 958.529 -59.9995Z" fill="#D64A34" fill-opacity="0.24"/>
<path d="M960 138.53C960 139.021 959.997 139.51 959.989 140C904.766 139.994 860 95.8839 860 41.4712C860 40.9801 860.004 40.4898 860.012 40.0005C915.235 40.0067 960 84.1174 960 138.53Z" fill="#D64A34" fill-opacity="0.24"/>
<path d="M860 38.5298C860 39.0205 859.997 39.5105 859.989 39.9995C804.766 39.9938 760 -4.1161 760 -58.5288C760 -59.0199 760.004 -59.5102 760.012 -59.9995C815.235 -59.9933 860 -15.8826 860 38.5298Z" fill="#D64A34" fill-opacity="0.24"/>
<path d="M858.529 40.0005C859.02 40.0005 859.51 40.004 859.999 40.0112C859.993 95.2347 815.883 140 761.471 140C760.98 140 760.489 139.996 760 139.989C760.006 84.7657 804.117 40.0006 858.529 40.0005Z" fill="#D64A34" fill-opacity="0.24"/>
</g>
<g clip-path="url(#clip3_20_220)">
<path d="M1958.53 340C1959.02 340 1959.51 340.004 1960 340.011C1960 395.235 1915.89 440 1861.47 440C1860.98 440 1860.49 439.996 1860 439.989C1860.01 384.766 1904.12 340.001 1958.53 340Z" fill="#D64A34" fill-opacity="0.24"/>
<path d="M1960 538.53C1960 539.021 1960 539.51 1959.99 540C1904.77 539.994 1860 495.884 1860 441.471C1860 440.98 1860.01 440.49 1860.01 440C1915.24 440.007 1960 484.117 1960 538.53Z" fill="#D64A34" fill-opacity="0.24"/>
<path d="M1860 438.53C1860 439.021 1860 439.51 1859.99 440C1804.77 439.994 1760 395.884 1760 341.471C1760 340.98 1760.01 340.49 1760.01 340C1815.24 340.007 1860 384.117 1860 438.53Z" fill="#D64A34" fill-opacity="0.24"/>
<path d="M1858.53 440C1859.02 440 1859.51 440.004 1860 440.011C1860 495.235 1815.89 540 1761.47 540C1760.98 540 1760.49 539.996 1760 539.989C1760.01 484.766 1804.12 440.001 1858.53 440Z" fill="#D64A34" fill-opacity="0.24"/>
</g>
<g clip-path="url(#clip4_20_220)">
<path d="M958.529 340C959.02 340 959.51 340.004 959.999 340.011C959.993 395.235 915.883 440 861.471 440C860.98 440 860.489 439.996 860 439.989C860.006 384.766 904.117 340.001 958.529 340Z" fill="#D64A34" fill-opacity="0.24"/>
<path d="M960 538.53C960 539.021 959.997 539.51 959.989 540C904.766 539.994 860 495.884 860 441.471C860 440.98 860.004 440.49 860.012 440C915.235 440.007 960 484.117 960 538.53Z" fill="#D64A34" fill-opacity="0.24"/>
<path d="M860 438.53C860 439.021 859.997 439.51 859.989 440C804.766 439.994 760 395.884 760 341.471C760 340.98 760.004 340.49 760.012 340C815.235 340.007 860 384.117 860 438.53Z" fill="#D64A34" fill-opacity="0.24"/>
<path d="M858.529 440C859.02 440 859.51 440.004 859.999 440.011C859.993 495.235 815.883 540 761.471 540C760.98 540 760.489 539.996 760 539.989C760.006 484.766 804.117 440.001 858.529 440Z" fill="#D64A34" fill-opacity="0.24"/>
</g>
<g clip-path="url(#clip5_20_220)">
<path d="M1958.53 740C1959.02 740 1959.51 740.004 1960 740.011C1960 795.235 1915.89 840 1861.47 840C1860.98 840 1860.49 839.996 1860 839.989C1860.01 784.766 1904.12 740.001 1958.53 740Z" fill="#D64A34" fill-opacity="0.24"/>
<path d="M1960 938.53C1960 939.021 1960 939.51 1959.99 940C1904.77 939.994 1860 895.884 1860 841.471C1860 840.98 1860.01 840.49 1860.01 840C1915.24 840.007 1960 884.117 1960 938.53Z" fill="#D64A34" fill-opacity="0.24"/>
<path d="M1860 838.53C1860 839.021 1860 839.51 1859.99 840C1804.77 839.994 1760 795.884 1760 741.471C1760 740.98 1760.01 740.49 1760.01 740C1815.24 740.007 1860 784.117 1860 838.53Z" fill="#D64A34" fill-opacity="0.24"/>
<path d="M1858.53 840C1859.02 840 1859.51 840.004 1860 840.011C1860 895.235 1815.89 940 1761.47 940C1760.98 940 1760.49 939.996 1760 939.989C1760.01 884.766 1804.12 840.001 1858.53 840Z" fill="#D64A34" fill-opacity="0.24"/>
</g>
<g clip-path="url(#clip6_20_220)">
<path d="M958.529 740C959.02 740 959.51 740.004 959.999 740.011C959.993 795.235 915.883 840 861.471 840C860.98 840 860.489 839.996 860 839.989C860.006 784.766 904.117 740.001 958.529 740Z" fill="#D64A34" fill-opacity="0.81"/>
<path d="M960 938.53C960 939.021 959.997 939.51 959.989 940C904.766 939.994 860 895.884 860 841.471C860 840.98 860.004 840.49 860.012 840C915.235 840.007 960 884.117 960 938.53Z" fill="#D64A34" fill-opacity="0.81"/>
<path d="M860 838.53C860 839.021 859.997 839.51 859.989 840C804.766 839.994 760 795.884 760 741.471C760 740.98 760.004 740.49 760.012 740C815.235 740.007 860 784.117 860 838.53Z" fill="#D64A34" fill-opacity="0.81"/>
<path d="M858.529 840C859.02 840 859.51 840.004 859.999 840.011C859.993 895.235 815.883 940 761.471 940C760.98 940 760.489 939.996 760 939.989C760.006 884.766 804.117 840.001 858.529 840Z" fill="#D64A34" fill-opacity="0.81"/>
</g>
<g clip-path="url(#clip7_20_220)">
<path d="M1958.53 140C1959.02 140 1959.51 140.004 1960 140.011C1960 195.235 1915.89 240 1861.47 240C1860.98 240 1860.49 239.996 1860 239.989C1860.01 184.766 1904.12 140.001 1958.53 140Z" fill="#D64A34" fill-opacity="0.24"/>
<path d="M1960 338.53C1960 339.021 1960 339.51 1959.99 340C1904.77 339.994 1860 295.884 1860 241.471C1860 240.98 1860.01 240.49 1860.01 240C1915.24 240.007 1960 284.117 1960 338.53Z" fill="#D64A34" fill-opacity="0.24"/>
<path d="M1860 238.53C1860 239.021 1860 239.51 1859.99 240C1804.77 239.994 1760 195.884 1760 141.471C1760 140.98 1760.01 140.49 1760.01 140C1815.24 140.007 1860 184.117 1860 238.53Z" fill="#D64A34" fill-opacity="0.24"/>
<path d="M1858.53 240C1859.02 240 1859.51 240.004 1860 240.011C1860 295.235 1815.89 340 1761.47 340C1760.98 340 1760.49 339.996 1760 339.989C1760.01 284.766 1804.12 240.001 1858.53 240Z" fill="#D64A34" fill-opacity="0.24"/>
</g>
<g clip-path="url(#clip8_20_220)">
<path d="M958.529 140C959.02 140 959.51 140.004 959.999 140.011C959.993 195.235 915.883 240 861.471 240C860.98 240 860.489 239.996 860 239.989C860.006 184.766 904.117 140.001 958.529 140Z" fill="#D64A34" fill-opacity="0.24"/>
<path d="M960 338.53C960 339.021 959.997 339.51 959.989 340C904.766 339.994 860 295.884 860 241.471C860 240.98 860.004 240.49 860.012 240C915.235 240.007 960 284.117 960 338.53Z" fill="#D64A34" fill-opacity="0.24"/>
<path d="M860 238.53C860 239.021 859.997 239.51 859.989 240C804.766 239.994 760 195.884 760 141.471C760 140.98 760.004 140.49 760.012 140C815.235 140.007 860 184.117 860 238.53Z" fill="#D64A34" fill-opacity="0.24"/>
<path d="M858.529 240C859.02 240 859.51 240.004 859.999 240.011C859.993 295.235 815.883 340 761.471 340C760.98 340 760.489 339.996 760 339.989C760.006 284.766 804.117 240.001 858.529 240Z" fill="#D64A34" fill-opacity="0.24"/>
</g>
<g clip-path="url(#clip9_20_220)">
<path d="M1958.53 540C1959.02 540 1959.51 540.004 1960 540.011C1960 595.235 1915.89 640 1861.47 640C1860.98 640 1860.49 639.996 1860 639.989C1860.01 584.766 1904.12 540.001 1958.53 540Z" fill="#D64A34" fill-opacity="0.24"/>
<path d="M1960 738.53C1960 739.021 1960 739.51 1959.99 740C1904.77 739.994 1860 695.884 1860 641.471C1860 640.98 1860.01 640.49 1860.01 640C1915.24 640.007 1960 684.117 1960 738.53Z" fill="#D64A34" fill-opacity="0.24"/>
<path d="M1860 638.53C1860 639.021 1860 639.51 1859.99 640C1804.77 639.994 1760 595.884 1760 541.471C1760 540.98 1760.01 540.49 1760.01 540C1815.24 540.007 1860 584.117 1860 638.53Z" fill="#D64A34" fill-opacity="0.24"/>
<path d="M1858.53 640C1859.02 640 1859.51 640.004 1860 640.011C1860 695.235 1815.89 740 1761.47 740C1760.98 740 1760.49 739.996 1760 739.989C1760.01 684.766 1804.12 640.001 1858.53 640Z" fill="#D64A34" fill-opacity="0.24"/>
</g>
<g clip-path="url(#clip10_20_220)">
<path d="M958.529 540C959.02 540 959.51 540.004 959.999 540.011C959.993 595.235 915.883 640 861.471 640C860.98 640 860.489 639.996 860 639.989C860.006 584.766 904.117 540.001 958.529 540Z" fill="#D64A34" fill-opacity="0.24"/>
<path d="M960 738.53C960 739.021 959.997 739.51 959.989 740C904.766 739.994 860 695.884 860 641.471C860 640.98 860.004 640.49 860.012 640C915.235 640.007 960 684.117 960 738.53Z" fill="#D64A34" fill-opacity="0.24"/>
<path d="M860 638.53C860 639.021 859.997 639.51 859.989 640C804.766 639.994 760 595.884 760 541.471C760 540.98 760.004 540.49 760.012 540C815.235 540.007 860 584.117 860 638.53Z" fill="#D64A34" fill-opacity="0.24"/>
<path d="M858.529 640C859.02 640 859.51 640.004 859.999 640.011C859.993 695.235 815.883 740 761.471 740C760.98 740 760.489 739.996 760 739.989C760.006 684.766 804.117 640.001 858.529 640Z" fill="#D64A34" fill-opacity="0.24"/>
</g>
<g clip-path="url(#clip11_20_220)">
<path d="M1958.53 940C1959.02 940 1959.51 940.004 1960 940.011C1960 995.235 1915.89 1040 1861.47 1040C1860.98 1040 1860.49 1040 1860 1039.99C1860.01 984.766 1904.12 940.001 1958.53 940Z" fill="#D64A34" fill-opacity="0.81"/>
<path d="M1960 1138.53C1960 1139.02 1960 1139.51 1959.99 1140C1904.77 1139.99 1860 1095.88 1860 1041.47C1860 1040.98 1860.01 1040.49 1860.01 1040C1915.24 1040.01 1960 1084.12 1960 1138.53Z" fill="#D64A34" fill-opacity="0.81"/>
<path d="M1860 1038.53C1860 1039.02 1860 1039.51 1859.99 1040C1804.77 1039.99 1760 995.884 1760 941.471C1760 940.98 1760.01 940.49 1760.01 940C1815.24 940.007 1860 984.117 1860 1038.53Z" fill="#D64A34" fill-opacity="0.81"/>
<path d="M1858.53 1040C1859.02 1040 1859.51 1040 1860 1040.01C1860 1095.23 1815.89 1140 1761.47 1140C1760.98 1140 1760.49 1140 1760 1139.99C1760.01 1084.77 1804.12 1040 1858.53 1040Z" fill="#D64A34" fill-opacity="0.81"/>
</g>
<g clip-path="url(#clip12_20_220)">
<path d="M958.529 940C959.02 940 959.51 940.004 959.999 940.011C959.993 995.235 915.883 1040 861.471 1040C860.98 1040 860.489 1040 860 1039.99C860.006 984.766 904.117 940.001 958.529 940Z" fill="#D64A34" fill-opacity="0.24"/>
<path d="M960 1138.53C960 1139.02 959.997 1139.51 959.989 1140C904.766 1139.99 860 1095.88 860 1041.47C860 1040.98 860.004 1040.49 860.012 1040C915.235 1040.01 960 1084.12 960 1138.53Z" fill="#D64A34" fill-opacity="0.24"/>
<path d="M860 1038.53C860 1039.02 859.997 1039.51 859.989 1040C804.766 1039.99 760 995.884 760 941.471C760 940.98 760.004 940.49 760.012 940C815.235 940.007 860 984.117 860 1038.53Z" fill="#D64A34" fill-opacity="0.24"/>
<path d="M858.529 1040C859.02 1040 859.51 1040 859.999 1040.01C859.993 1095.23 815.883 1140 761.471 1140C760.98 1140 760.489 1140 760 1139.99C760.006 1084.77 804.117 1040 858.529 1040Z" fill="#D64A34" fill-opacity="0.24"/>
</g>
<g clip-path="url(#clip13_20_220)">
<path d="M1558.53 -60.0005C1559.02 -60.0005 1559.51 -59.997 1560 -59.9897C1560 -4.76625 1515.89 39.9994 1461.47 39.9995C1460.98 39.9995 1460.49 39.9951 1460 39.9878C1460.01 -15.2353 1504.12 -60.0004 1558.53 -60.0005Z" fill="#D64A34" fill-opacity="0.81"/>
<path d="M1560 138.529C1560 139.02 1560 139.51 1559.99 139.999C1504.77 139.993 1460 95.8829 1460 41.4702C1460 40.9792 1460.01 40.4889 1460.01 39.9995C1515.24 40.0057 1560 84.1164 1560 138.529Z" fill="#D64A34" fill-opacity="0.81"/>
<path d="M1460 38.5288C1460 39.0195 1460 39.5095 1459.99 39.9985C1404.77 39.9928 1360 -4.11707 1360 -58.5298C1360 -59.0208 1360.01 -59.5111 1360.01 -60.0005C1415.24 -59.9943 1460 -15.8836 1460 38.5288Z" fill="#D64A34" fill-opacity="0.81"/>
<path d="M1458.53 39.9995C1459.02 39.9995 1459.51 40.003 1460 40.0103C1460 95.2337 1415.89 139.999 1361.47 140C1360.98 140 1360.49 139.995 1360 139.988C1360.01 84.7647 1404.12 39.9996 1458.53 39.9995Z" fill="#D64A34" fill-opacity="0.81"/>
</g>
<g clip-path="url(#clip14_20_220)">
<path d="M558.529 -60.0005C559.02 -60.0005 559.51 -59.997 559.999 -59.9897C559.993 -4.76625 515.883 39.9994 461.471 39.9995C460.98 39.9995 460.489 39.9951 460 39.9878C460.006 -15.2353 504.117 -60.0004 558.529 -60.0005Z" fill="#D64A34" fill-opacity="0.24"/>
<path d="M560 138.529C560 139.02 559.997 139.51 559.989 139.999C504.766 139.993 460 95.8829 460 41.4702C460 40.9792 460.004 40.4889 460.012 39.9995C515.235 40.0057 560 84.1164 560 138.529Z" fill="#D64A34" fill-opacity="0.24"/>
<path d="M460 38.5288C460 39.0195 459.997 39.5095 459.989 39.9985C404.766 39.9928 360 -4.11707 360 -58.5298C360 -59.0208 360.004 -59.5111 360.012 -60.0005C415.235 -59.9943 460 -15.8836 460 38.5288Z" fill="#D64A34" fill-opacity="0.24"/>
<path d="M458.529 39.9995C459.02 39.9995 459.51 40.003 459.999 40.0103C459.993 95.2337 415.883 139.999 361.471 140C360.98 140 360.489 139.995 360 139.988C360.006 84.7647 404.117 39.9996 458.529 39.9995Z" fill="#D64A34" fill-opacity="0.24"/>
</g>
<g clip-path="url(#clip15_20_220)">
<path d="M1558.53 340C1559.02 340 1559.51 340.003 1560 340.01C1560 395.234 1515.89 439.999 1461.47 440C1460.98 440 1460.49 439.995 1460 439.988C1460.01 384.765 1504.12 340 1558.53 340Z" fill="#D64A34" fill-opacity="0.24"/>
<path d="M1560 538.529C1560 539.02 1560 539.51 1559.99 539.999C1504.77 539.993 1460 495.883 1460 441.47C1460 440.979 1460.01 440.489 1460.01 440C1515.24 440.006 1560 484.116 1560 538.529Z" fill="#D64A34" fill-opacity="0.24"/>
<path d="M1460 438.529C1460 439.02 1460 439.51 1459.99 439.999C1404.77 439.993 1360 395.883 1360 341.47C1360 340.979 1360.01 340.489 1360.01 340C1415.24 340.006 1460 384.116 1460 438.529Z" fill="#D64A34" fill-opacity="0.24"/>
<path d="M1458.53 440C1459.02 440 1459.51 440.003 1460 440.01C1460 495.234 1415.89 539.999 1361.47 540C1360.98 540 1360.49 539.995 1360 539.988C1360.01 484.765 1404.12 440 1458.53 440Z" fill="#D64A34" fill-opacity="0.24"/>
</g>
<g clip-path="url(#clip16_20_220)">
<path d="M558.529 340C559.02 340 559.51 340.003 559.999 340.01C559.993 395.234 515.883 439.999 461.471 440C460.98 440 460.489 439.995 460 439.988C460.006 384.765 504.117 340 558.529 340Z" fill="#D64A34" fill-opacity="0.24"/>
<path d="M560 538.529C560 539.02 559.997 539.51 559.989 539.999C504.766 539.993 460 495.883 460 441.47C460 440.979 460.004 440.489 460.012 440C515.235 440.006 560 484.116 560 538.529Z" fill="#D64A34" fill-opacity="0.24"/>
<path d="M460 438.529C460 439.02 459.997 439.51 459.989 439.999C404.766 439.993 360 395.883 360 341.47C360 340.979 360.004 340.489 360.012 340C415.235 340.006 460 384.116 460 438.529Z" fill="#D64A34" fill-opacity="0.24"/>
<path d="M458.529 440C459.02 440 459.51 440.003 459.999 440.01C459.993 495.234 415.883 539.999 361.471 540C360.98 540 360.489 539.995 360 539.988C360.006 484.765 404.117 440 458.529 440Z" fill="#D64A34" fill-opacity="0.24"/>
</g>
<g clip-path="url(#clip17_20_220)">
<path d="M1558.53 740C1559.02 740 1559.51 740.003 1560 740.01C1560 795.234 1515.89 839.999 1461.47 840C1460.98 840 1460.49 839.995 1460 839.988C1460.01 784.765 1504.12 740 1558.53 740Z" fill="#D64A34" fill-opacity="0.24"/>
<path d="M1560 938.529C1560 939.02 1560 939.51 1559.99 939.999C1504.77 939.993 1460 895.883 1460 841.47C1460 840.979 1460.01 840.489 1460.01 840C1515.24 840.006 1560 884.116 1560 938.529Z" fill="#D64A34" fill-opacity="0.24"/>
<path d="M1460 838.529C1460 839.02 1460 839.51 1459.99 839.999C1404.77 839.993 1360 795.883 1360 741.47C1360 740.979 1360.01 740.489 1360.01 740C1415.24 740.006 1460 784.116 1460 838.529Z" fill="#D64A34" fill-opacity="0.24"/>
<path d="M1458.53 840C1459.02 840 1459.51 840.003 1460 840.01C1460 895.234 1415.89 939.999 1361.47 940C1360.98 940 1360.49 939.995 1360 939.988C1360.01 884.765 1404.12 840 1458.53 840Z" fill="#D64A34" fill-opacity="0.24"/>
</g>
<g clip-path="url(#clip18_20_220)">
<path d="M558.529 740C559.02 740 559.51 740.003 559.999 740.01C559.993 795.234 515.883 839.999 461.471 840C460.98 840 460.489 839.995 460 839.988C460.006 784.765 504.117 740 558.529 740Z" fill="#D64A34" fill-opacity="0.24"/>
<path d="M560 938.529C560 939.02 559.997 939.51 559.989 939.999C504.766 939.993 460 895.883 460 841.47C460 840.979 460.004 840.489 460.012 840C515.235 840.006 560 884.116 560 938.529Z" fill="#D64A34" fill-opacity="0.24"/>
<path d="M460 838.529C460 839.02 459.997 839.51 459.989 839.999C404.766 839.993 360 795.883 360 741.47C360 740.979 360.004 740.489 360.012 740C415.235 740.006 460 784.116 460 838.529Z" fill="#D64A34" fill-opacity="0.24"/>
<path d="M458.529 840C459.02 840 459.51 840.003 459.999 840.01C459.993 895.234 415.883 939.999 361.471 940C360.98 940 360.489 939.995 360 939.988C360.006 884.765 404.117 840 458.529 840Z" fill="#D64A34" fill-opacity="0.24"/>
</g>
<g clip-path="url(#clip19_20_220)">
<path d="M1558.53 140C1559.02 140 1559.51 140.004 1560 140.011C1560 195.235 1515.89 240 1461.47 240C1460.98 240 1460.49 239.996 1460 239.989C1460.01 184.766 1504.12 140.001 1558.53 140Z" fill="#D64A34" fill-opacity="0.24"/>
<path d="M1560 338.53C1560 339.021 1560 339.51 1559.99 340C1504.77 339.994 1460 295.884 1460 241.471C1460 240.98 1460.01 240.49 1460.01 240C1515.24 240.007 1560 284.117 1560 338.53Z" fill="#D64A34" fill-opacity="0.24"/>
<path d="M1460 238.53C1460 239.021 1460 239.51 1459.99 240C1404.77 239.994 1360 195.884 1360 141.471C1360 140.98 1360.01 140.49 1360.01 140C1415.24 140.007 1460 184.117 1460 238.53Z" fill="#D64A34" fill-opacity="0.24"/>
<path d="M1458.53 240C1459.02 240 1459.51 240.004 1460 240.011C1460 295.235 1415.89 340 1361.47 340C1360.98 340 1360.49 339.996 1360 339.989C1360.01 284.766 1404.12 240.001 1458.53 240Z" fill="#D64A34" fill-opacity="0.24"/>
</g>
<g clip-path="url(#clip20_20_220)">
<path d="M558.529 140C559.02 140 559.51 140.004 559.999 140.011C559.993 195.235 515.883 240 461.471 240C460.98 240 460.489 239.996 460 239.989C460.006 184.766 504.117 140.001 558.529 140Z" fill="#D64A34" fill-opacity="0.24"/>
<path d="M560 338.53C560 339.021 559.997 339.51 559.989 340C504.766 339.994 460 295.884 460 241.471C460 240.98 460.004 240.49 460.012 240C515.235 240.007 560 284.117 560 338.53Z" fill="#D64A34" fill-opacity="0.24"/>
<path d="M460 238.53C460 239.021 459.997 239.51 459.989 240C404.766 239.994 360 195.884 360 141.471C360 140.98 360.004 140.49 360.012 140C415.235 140.007 460 184.117 460 238.53Z" fill="#D64A34" fill-opacity="0.24"/>
<path d="M458.529 240C459.02 240 459.51 240.004 459.999 240.011C459.993 295.235 415.883 340 361.471 340C360.98 340 360.489 339.996 360 339.989C360.006 284.766 404.117 240.001 458.529 240Z" fill="#D64A34" fill-opacity="0.24"/>
</g>
<g clip-path="url(#clip21_20_220)">
<path d="M1558.53 540C1559.02 540 1559.51 540.004 1560 540.011C1560 595.235 1515.89 640 1461.47 640C1460.98 640 1460.49 639.996 1460 639.989C1460.01 584.766 1504.12 540.001 1558.53 540Z" fill="#D64A34" fill-opacity="0.24"/>
<path d="M1560 738.53C1560 739.021 1560 739.51 1559.99 740C1504.77 739.994 1460 695.884 1460 641.471C1460 640.98 1460.01 640.49 1460.01 640C1515.24 640.007 1560 684.117 1560 738.53Z" fill="#D64A34" fill-opacity="0.24"/>
<path d="M1460 638.53C1460 639.021 1460 639.51 1459.99 640C1404.77 639.994 1360 595.884 1360 541.471C1360 540.98 1360.01 540.49 1360.01 540C1415.24 540.007 1460 584.117 1460 638.53Z" fill="#D64A34" fill-opacity="0.24"/>
<path d="M1458.53 640C1459.02 640 1459.51 640.004 1460 640.011C1460 695.235 1415.89 740 1361.47 740C1360.98 740 1360.49 739.996 1360 739.989C1360.01 684.766 1404.12 640.001 1458.53 640Z" fill="#D64A34" fill-opacity="0.24"/>
</g>
<g clip-path="url(#clip22_20_220)">
<path d="M558.529 540C559.02 540 559.51 540.004 559.999 540.011C559.993 595.235 515.883 640 461.471 640C460.98 640 460.489 639.996 460 639.989C460.006 584.766 504.117 540.001 558.529 540Z" fill="#D64A34" fill-opacity="0.24"/>
<path d="M560 738.53C560 739.021 559.997 739.51 559.989 740C504.766 739.994 460 695.884 460 641.471C460 640.98 460.004 640.49 460.012 640C515.235 640.007 560 684.117 560 738.53Z" fill="#D64A34" fill-opacity="0.24"/>
<path d="M460 638.53C460 639.021 459.997 639.51 459.989 640C404.766 639.994 360 595.884 360 541.471C360 540.98 360.004 540.49 360.012 540C415.235 540.007 460 584.117 460 638.53Z" fill="#D64A34" fill-opacity="0.24"/>
<path d="M458.529 640C459.02 640 459.51 640.004 459.999 640.011C459.993 695.235 415.883 740 361.471 740C360.98 740 360.489 739.996 360 739.989C360.006 684.766 404.117 640.001 458.529 640Z" fill="#D64A34" fill-opacity="0.24"/>
</g>
<g clip-path="url(#clip23_20_220)">
<path d="M1558.53 940C1559.02 940 1559.51 940.004 1560 940.011C1560 995.235 1515.89 1040 1461.47 1040C1460.98 1040 1460.49 1040 1460 1039.99C1460.01 984.766 1504.12 940.001 1558.53 940Z" fill="#D64A34" fill-opacity="0.81"/>
<path d="M1560 1138.53C1560 1139.02 1560 1139.51 1559.99 1140C1504.77 1139.99 1460 1095.88 1460 1041.47C1460 1040.98 1460.01 1040.49 1460.01 1040C1515.24 1040.01 1560 1084.12 1560 1138.53Z" fill="#D64A34" fill-opacity="0.81"/>
<path d="M1460 1038.53C1460 1039.02 1460 1039.51 1459.99 1040C1404.77 1039.99 1360 995.884 1360 941.471C1360 940.98 1360.01 940.49 1360.01 940C1415.24 940.007 1460 984.117 1460 1038.53Z" fill="#D64A34" fill-opacity="0.81"/>
<path d="M1458.53 1040C1459.02 1040 1459.51 1040 1460 1040.01C1460 1095.23 1415.89 1140 1361.47 1140C1360.98 1140 1360.49 1140 1360 1139.99C1360.01 1084.77 1404.12 1040 1458.53 1040Z" fill="#D64A34" fill-opacity="0.81"/>
</g>
<g clip-path="url(#clip24_20_220)">
<path d="M558.529 940C559.02 940 559.51 940.004 559.999 940.011C559.993 995.235 515.883 1040 461.471 1040C460.98 1040 460.489 1040 460 1039.99C460.006 984.766 504.117 940.001 558.529 940Z" fill="#D64A34" fill-opacity="0.24"/>
<path d="M560 1138.53C560 1139.02 559.997 1139.51 559.989 1140C504.766 1139.99 460 1095.88 460 1041.47C460 1040.98 460.004 1040.49 460.012 1040C515.235 1040.01 560 1084.12 560 1138.53Z" fill="#D64A34" fill-opacity="0.24"/>
<path d="M460 1038.53C460 1039.02 459.997 1039.51 459.989 1040C404.766 1039.99 360 995.884 360 941.471C360 940.98 360.004 940.49 360.012 940C415.235 940.007 460 984.117 460 1038.53Z" fill="#D64A34" fill-opacity="0.24"/>
<path d="M458.529 1040C459.02 1040 459.51 1040 459.999 1040.01C459.993 1095.23 415.883 1140 361.471 1140C360.98 1140 360.489 1140 360 1139.99C360.006 1084.77 404.117 1040 458.529 1040Z" fill="#D64A34" fill-opacity="0.24"/>
</g>
<g clip-path="url(#clip25_20_220)">
<path d="M1758.53 -59.9995C1759.02 -59.9995 1759.51 -59.996 1760 -59.9888C1760 -4.76528 1715.89 40.0004 1661.47 40.0005C1660.98 40.0005 1660.49 39.996 1660 39.9888C1660.01 -15.2343 1704.12 -59.9994 1758.53 -59.9995Z" fill="#D64A34" fill-opacity="0.24"/>
<path d="M1760 138.53C1760 139.021 1760 139.51 1759.99 140C1704.77 139.994 1660 95.8839 1660 41.4712C1660 40.9801 1660.01 40.4898 1660.01 40.0005C1715.24 40.0067 1760 84.1174 1760 138.53Z" fill="#D64A34" fill-opacity="0.24"/>
<path d="M1660 38.5298C1660 39.0205 1660 39.5105 1659.99 39.9995C1604.77 39.9938 1560 -4.1161 1560 -58.5288C1560 -59.0199 1560.01 -59.5102 1560.01 -59.9995C1615.24 -59.9933 1660 -15.8826 1660 38.5298Z" fill="#D64A34" fill-opacity="0.24"/>
<path d="M1658.53 40.0005C1659.02 40.0005 1659.51 40.004 1660 40.0112C1660 95.2347 1615.89 140 1561.47 140C1560.98 140 1560.49 139.996 1560 139.989C1560.01 84.7657 1604.12 40.0006 1658.53 40.0005Z" fill="#D64A34" fill-opacity="0.24"/>
</g>
<g clip-path="url(#clip26_20_220)">
<path d="M758.529 -59.9995C759.02 -59.9995 759.51 -59.996 759.999 -59.9888C759.993 -4.76528 715.883 40.0004 661.471 40.0005C660.98 40.0005 660.489 39.996 660 39.9888C660.006 -15.2343 704.117 -59.9994 758.529 -59.9995Z" fill="#D64A34" fill-opacity="0.81"/>
<path d="M760 138.53C760 139.021 759.997 139.51 759.989 140C704.766 139.994 660 95.8839 660 41.4712C660 40.9801 660.004 40.4898 660.012 40.0005C715.235 40.0067 760 84.1174 760 138.53Z" fill="#D64A34" fill-opacity="0.81"/>
<path d="M660 38.5298C660 39.0205 659.997 39.5105 659.989 39.9995C604.766 39.9938 560 -4.1161 560 -58.5288C560 -59.0199 560.004 -59.5102 560.012 -59.9995C615.235 -59.9933 660 -15.8826 660 38.5298Z" fill="#D64A34" fill-opacity="0.81"/>
<path d="M658.529 40.0005C659.02 40.0005 659.51 40.004 659.999 40.0112C659.993 95.2347 615.883 140 561.471 140C560.98 140 560.489 139.996 560 139.989C560.006 84.7657 604.117 40.0006 658.529 40.0005Z" fill="#D64A34" fill-opacity="0.81"/>
</g>
<g clip-path="url(#clip27_20_220)">
<path d="M1758.53 340C1759.02 340 1759.51 340.004 1760 340.011C1760 395.235 1715.89 440 1661.47 440C1660.98 440 1660.49 439.996 1660 439.989C1660.01 384.766 1704.12 340.001 1758.53 340Z" fill="#D64A34" fill-opacity="0.81"/>
<path d="M1760 538.53C1760 539.021 1760 539.51 1759.99 540C1704.77 539.994 1660 495.884 1660 441.471C1660 440.98 1660.01 440.49 1660.01 440C1715.24 440.007 1760 484.117 1760 538.53Z" fill="#D64A34" fill-opacity="0.81"/>
<path d="M1660 438.53C1660 439.021 1660 439.51 1659.99 440C1604.77 439.994 1560 395.884 1560 341.471C1560 340.98 1560.01 340.49 1560.01 340C1615.24 340.007 1660 384.117 1660 438.53Z" fill="#D64A34" fill-opacity="0.81"/>
<path d="M1658.53 440C1659.02 440 1659.51 440.004 1660 440.011C1660 495.235 1615.89 540 1561.47 540C1560.98 540 1560.49 539.996 1560 539.989C1560.01 484.766 1604.12 440.001 1658.53 440Z" fill="#D64A34" fill-opacity="0.81"/>
</g>
<g clip-path="url(#clip28_20_220)">
<path d="M758.529 340C759.02 340 759.51 340.004 759.999 340.011C759.993 395.235 715.883 440 661.471 440C660.98 440 660.489 439.996 660 439.989C660.006 384.766 704.117 340.001 758.529 340Z" fill="#D64A34" fill-opacity="0.81"/>
<path d="M760 538.53C760 539.021 759.997 539.51 759.989 540C704.766 539.994 660 495.884 660 441.471C660 440.98 660.004 440.49 660.012 440C715.235 440.007 760 484.117 760 538.53Z" fill="#D64A34" fill-opacity="0.81"/>
<path d="M660 438.53C660 439.021 659.997 439.51 659.989 440C604.766 439.994 560 395.884 560 341.471C560 340.98 560.004 340.49 560.012 340C615.235 340.007 660 384.117 660 438.53Z" fill="#D64A34" fill-opacity="0.81"/>
<path d="M658.529 440C659.02 440 659.51 440.004 659.999 440.011C659.993 495.235 615.883 540 561.471 540C560.98 540 560.489 539.996 560 539.989C560.006 484.766 604.117 440.001 658.529 440Z" fill="#D64A34" fill-opacity="0.81"/>
</g>
<g clip-path="url(#clip29_20_220)">
<path d="M1758.53 740C1759.02 740 1759.51 740.004 1760 740.011C1760 795.235 1715.89 840 1661.47 840C1660.98 840 1660.49 839.996 1660 839.989C1660.01 784.766 1704.12 740.001 1758.53 740Z" fill="#D64A34" fill-opacity="0.81"/>
<path d="M1760 938.53C1760 939.021 1760 939.51 1759.99 940C1704.77 939.994 1660 895.884 1660 841.471C1660 840.98 1660.01 840.49 1660.01 840C1715.24 840.007 1760 884.117 1760 938.53Z" fill="#D64A34" fill-opacity="0.81"/>
<path d="M1660 838.53C1660 839.021 1660 839.51 1659.99 840C1604.77 839.994 1560 795.884 1560 741.471C1560 740.98 1560.01 740.49 1560.01 740C1615.24 740.007 1660 784.117 1660 838.53Z" fill="#D64A34" fill-opacity="0.81"/>
<path d="M1658.53 840C1659.02 840 1659.51 840.004 1660 840.011C1660 895.235 1615.89 940 1561.47 940C1560.98 940 1560.49 939.996 1560 939.989C1560.01 884.766 1604.12 840.001 1658.53 840Z" fill="#D64A34" fill-opacity="0.81"/>
</g>
<g clip-path="url(#clip30_20_220)">
<path d="M758.529 740C759.02 740 759.51 740.004 759.999 740.011C759.993 795.235 715.883 840 661.471 840C660.98 840 660.489 839.996 660 839.989C660.006 784.766 704.117 740.001 758.529 740Z" fill="#D64A34" fill-opacity="0.24"/>
<path d="M760 938.53C760 939.021 759.997 939.51 759.989 940C704.766 939.994 660 895.884 660 841.471C660 840.98 660.004 840.49 660.012 840C715.235 840.007 760 884.117 760 938.53Z" fill="#D64A34" fill-opacity="0.24"/>
<path d="M660 838.53C660 839.021 659.997 839.51 659.989 840C604.766 839.994 560 795.884 560 741.471C560 740.98 560.004 740.49 560.012 740C615.235 740.007 660 784.117 660 838.53Z" fill="#D64A34" fill-opacity="0.24"/>
<path d="M658.529 840C659.02 840 659.51 840.004 659.999 840.011C659.993 895.235 615.883 940 561.471 940C560.98 940 560.489 939.996 560 939.989C560.006 884.766 604.117 840.001 658.529 840Z" fill="#D64A34" fill-opacity="0.24"/>
</g>
<g clip-path="url(#clip31_20_220)">
<path d="M1758.53 140C1759.02 140 1759.51 140.004 1760 140.011C1760 195.235 1715.89 240 1661.47 240C1660.98 240 1660.49 239.996 1660 239.989C1660.01 184.766 1704.12 140.001 1758.53 140Z" fill="#D64A34" fill-opacity="0.81"/>
<path d="M1760 338.53C1760 339.021 1760 339.51 1759.99 340C1704.77 339.994 1660 295.884 1660 241.471C1660 240.98 1660.01 240.49 1660.01 240C1715.24 240.007 1760 284.117 1760 338.53Z" fill="#D64A34" fill-opacity="0.81"/>
<path d="M1660 238.53C1660 239.021 1660 239.51 1659.99 240C1604.77 239.994 1560 195.884 1560 141.471C1560 140.98 1560.01 140.49 1560.01 140C1615.24 140.007 1660 184.117 1660 238.53Z" fill="#D64A34" fill-opacity="0.81"/>
<path d="M1658.53 240C1659.02 240 1659.51 240.004 1660 240.011C1660 295.235 1615.89 340 1561.47 340C1560.98 340 1560.49 339.996 1560 339.989C1560.01 284.766 1604.12 240.001 1658.53 240Z" fill="#D64A34" fill-opacity="0.81"/>
</g>
<g clip-path="url(#clip32_20_220)">
<path d="M758.529 140C759.02 140 759.51 140.004 759.999 140.011C759.993 195.235 715.883 240 661.471 240C660.98 240 660.489 239.996 660 239.989C660.006 184.766 704.117 140.001 758.529 140Z" fill="#D64A34" fill-opacity="0.24"/>
<path d="M760 338.53C760 339.021 759.997 339.51 759.989 340C704.766 339.994 660 295.884 660 241.471C660 240.98 660.004 240.49 660.012 240C715.235 240.007 760 284.117 760 338.53Z" fill="#D64A34" fill-opacity="0.24"/>
<path d="M660 238.53C660 239.021 659.997 239.51 659.989 240C604.766 239.994 560 195.884 560 141.471C560 140.98 560.004 140.49 560.012 140C615.235 140.007 660 184.117 660 238.53Z" fill="#D64A34" fill-opacity="0.24"/>
<path d="M658.529 240C659.02 240 659.51 240.004 659.999 240.011C659.993 295.235 615.883 340 561.471 340C560.98 340 560.489 339.996 560 339.989C560.006 284.766 604.117 240.001 658.529 240Z" fill="#D64A34" fill-opacity="0.24"/>
</g>
<g clip-path="url(#clip33_20_220)">
<path d="M1758.53 540C1759.02 540 1759.51 540.004 1760 540.011C1760 595.235 1715.89 640 1661.47 640C1660.98 640 1660.49 639.996 1660 639.989C1660.01 584.766 1704.12 540.001 1758.53 540Z" fill="#D64A34" fill-opacity="0.24"/>
<path d="M1760 738.53C1760 739.021 1760 739.51 1759.99 740C1704.77 739.994 1660 695.884 1660 641.471C1660 640.98 1660.01 640.49 1660.01 640C1715.24 640.007 1760 684.117 1760 738.53Z" fill="#D64A34" fill-opacity="0.24"/>
<path d="M1660 638.53C1660 639.021 1660 639.51 1659.99 640C1604.77 639.994 1560 595.884 1560 541.471C1560 540.98 1560.01 540.49 1560.01 540C1615.24 540.007 1660 584.117 1660 638.53Z" fill="#D64A34" fill-opacity="0.24"/>
<path d="M1658.53 640C1659.02 640 1659.51 640.004 1660 640.011C1660 695.235 1615.89 740 1561.47 740C1560.98 740 1560.49 739.996 1560 739.989C1560.01 684.766 1604.12 640.001 1658.53 640Z" fill="#D64A34" fill-opacity="0.24"/>
</g>
<g clip-path="url(#clip34_20_220)">
<path d="M758.529 540C759.02 540 759.51 540.004 759.999 540.011C759.993 595.235 715.883 640 661.471 640C660.98 640 660.489 639.996 660 639.989C660.006 584.766 704.117 540.001 758.529 540Z" fill="#D64A34" fill-opacity="0.81"/>
<path d="M760 738.53C760 739.021 759.997 739.51 759.989 740C704.766 739.994 660 695.884 660 641.471C660 640.98 660.004 640.49 660.012 640C715.235 640.007 760 684.117 760 738.53Z" fill="#D64A34" fill-opacity="0.81"/>
<path d="M660 638.53C660 639.021 659.997 639.51 659.989 640C604.766 639.994 560 595.884 560 541.471C560 540.98 560.004 540.49 560.012 540C615.235 540.007 660 584.117 660 638.53Z" fill="#D64A34" fill-opacity="0.81"/>
<path d="M658.529 640C659.02 640 659.51 640.004 659.999 640.011C659.993 695.235 615.883 740 561.471 740C560.98 740 560.489 739.996 560 739.989C560.006 684.766 604.117 640.001 658.529 640Z" fill="#D64A34" fill-opacity="0.81"/>
</g>
<g clip-path="url(#clip35_20_220)">
<path d="M1758.53 940C1759.02 940 1759.51 940.004 1760 940.011C1760 995.235 1715.89 1040 1661.47 1040C1660.98 1040 1660.49 1040 1660 1039.99C1660.01 984.766 1704.12 940.001 1758.53 940Z" fill="#D64A34" fill-opacity="0.24"/>
<path d="M1760 1138.53C1760 1139.02 1760 1139.51 1759.99 1140C1704.77 1139.99 1660 1095.88 1660 1041.47C1660 1040.98 1660.01 1040.49 1660.01 1040C1715.24 1040.01 1760 1084.12 1760 1138.53Z" fill="#D64A34" fill-opacity="0.24"/>
<path d="M1660 1038.53C1660 1039.02 1660 1039.51 1659.99 1040C1604.77 1039.99 1560 995.884 1560 941.471C1560 940.98 1560.01 940.49 1560.01 940C1615.24 940.007 1660 984.117 1660 1038.53Z" fill="#D64A34" fill-opacity="0.24"/>
<path d="M1658.53 1040C1659.02 1040 1659.51 1040 1660 1040.01C1660 1095.23 1615.89 1140 1561.47 1140C1560.98 1140 1560.49 1140 1560 1139.99C1560.01 1084.77 1604.12 1040 1658.53 1040Z" fill="#D64A34" fill-opacity="0.24"/>
</g>
<g clip-path="url(#clip36_20_220)">
<path d="M758.529 940C759.02 940 759.51 940.004 759.999 940.011C759.993 995.235 715.883 1040 661.471 1040C660.98 1040 660.489 1040 660 1039.99C660.006 984.766 704.117 940.001 758.529 940Z" fill="#D64A34" fill-opacity="0.81"/>
<path d="M760 1138.53C760 1139.02 759.997 1139.51 759.989 1140C704.766 1139.99 660 1095.88 660 1041.47C660 1040.98 660.004 1040.49 660.012 1040C715.235 1040.01 760 1084.12 760 1138.53Z" fill="#D64A34" fill-opacity="0.81"/>
<path d="M660 1038.53C660 1039.02 659.997 1039.51 659.989 1040C604.766 1039.99 560 995.884 560 941.471C560 940.98 560.004 940.49 560.012 940C615.235 940.007 660 984.117 660 1038.53Z" fill="#D64A34" fill-opacity="0.81"/>
<path d="M658.529 1040C659.02 1040 659.51 1040 659.999 1040.01C659.993 1095.23 615.883 1140 561.471 1140C560.98 1140 560.489 1140 560 1139.99C560.006 1084.77 604.117 1040 658.529 1040Z" fill="#D64A34" fill-opacity="0.81"/>
</g>
<g clip-path="url(#clip37_20_220)">
<path d="M1358.53 -60.0005C1359.02 -60.0005 1359.51 -59.997 1360 -59.9897C1359.99 -4.76625 1315.88 39.9994 1261.47 39.9995C1260.98 39.9995 1260.49 39.9951 1260 39.9878C1260.01 -15.2353 1304.12 -60.0004 1358.53 -60.0005Z" fill="#D64A34" fill-opacity="0.24"/>
<path d="M1360 138.529C1360 139.02 1360 139.51 1359.99 139.999C1304.77 139.993 1260 95.8829 1260 41.4702C1260 40.9792 1260 40.4889 1260.01 39.9995C1315.23 40.0057 1360 84.1164 1360 138.529Z" fill="#D64A34" fill-opacity="0.24"/>
<path d="M1260 38.5288C1260 39.0195 1260 39.5095 1259.99 39.9985C1204.77 39.9928 1160 -4.11707 1160 -58.5298C1160 -59.0208 1160 -59.5111 1160.01 -60.0005C1215.23 -59.9943 1260 -15.8836 1260 38.5288Z" fill="#D64A34" fill-opacity="0.24"/>
<path d="M1258.53 39.9995C1259.02 39.9995 1259.51 40.003 1260 40.0103C1259.99 95.2337 1215.88 139.999 1161.47 140C1160.98 140 1160.49 139.995 1160 139.988C1160.01 84.7647 1204.12 39.9996 1258.53 39.9995Z" fill="#D64A34" fill-opacity="0.24"/>
</g>
<g clip-path="url(#clip38_20_220)">
<path d="M358.527 -60.0005C359.018 -60.0005 359.508 -59.997 359.997 -59.9897C359.991 -4.76625 315.881 39.9994 261.469 39.9995C260.978 39.9995 260.487 39.9951 259.998 39.9878C260.004 -15.2353 304.115 -60.0004 358.527 -60.0005Z" fill="#D64A34" fill-opacity="0.24"/>
<path d="M359.998 138.529C359.998 139.02 359.995 139.51 359.987 139.999C304.764 139.993 259.998 95.8829 259.998 41.4702C259.998 40.9792 260.002 40.4889 260.01 39.9995C315.233 40.0057 359.998 84.1164 359.998 138.529Z" fill="#D64A34" fill-opacity="0.24"/>
<path d="M259.998 38.5288C259.998 39.0195 259.995 39.5095 259.987 39.9985C204.764 39.9928 159.998 -4.11707 159.998 -58.5298C159.998 -59.0208 160.002 -59.5111 160.01 -60.0005C215.233 -59.9943 259.998 -15.8836 259.998 38.5288Z" fill="#D64A34" fill-opacity="0.24"/>
<path d="M258.527 39.9995C259.018 39.9995 259.508 40.003 259.997 40.0103C259.991 95.2337 215.881 139.999 161.469 140C160.978 140 160.487 139.995 159.998 139.988C160.004 84.7647 204.115 39.9996 258.527 39.9995Z" fill="#D64A34" fill-opacity="0.24"/>
</g>
<g clip-path="url(#clip39_20_220)">
<path d="M1358.53 340C1359.02 340 1359.51 340.003 1360 340.01C1359.99 395.234 1315.88 439.999 1261.47 440C1260.98 440 1260.49 439.995 1260 439.988C1260.01 384.765 1304.12 340 1358.53 340Z" fill="#D64A34" fill-opacity="0.81"/>
<path d="M1360 538.529C1360 539.02 1360 539.51 1359.99 539.999C1304.77 539.993 1260 495.883 1260 441.47C1260 440.979 1260 440.489 1260.01 440C1315.23 440.006 1360 484.116 1360 538.529Z" fill="#D64A34" fill-opacity="0.81"/>
<path d="M1260 438.529C1260 439.02 1260 439.51 1259.99 439.999C1204.77 439.993 1160 395.883 1160 341.47C1160 340.979 1160 340.489 1160.01 340C1215.23 340.006 1260 384.116 1260 438.529Z" fill="#D64A34" fill-opacity="0.81"/>
<path d="M1258.53 440C1259.02 440 1259.51 440.003 1260 440.01C1259.99 495.234 1215.88 539.999 1161.47 540C1160.98 540 1160.49 539.995 1160 539.988C1160.01 484.765 1204.12 440 1258.53 440Z" fill="#D64A34" fill-opacity="0.81"/>
</g>
<g clip-path="url(#clip40_20_220)">
<path d="M358.527 340C359.018 340 359.508 340.003 359.997 340.01C359.991 395.234 315.881 439.999 261.469 440C260.978 440 260.487 439.995 259.998 439.988C260.004 384.765 304.115 340 358.527 340Z" fill="#D64A34" fill-opacity="0.24"/>
<path d="M359.998 538.529C359.998 539.02 359.995 539.51 359.987 539.999C304.764 539.993 259.998 495.883 259.998 441.47C259.998 440.979 260.002 440.489 260.01 440C315.233 440.006 359.998 484.116 359.998 538.529Z" fill="#D64A34" fill-opacity="0.24"/>
<path d="M259.998 438.529C259.998 439.02 259.995 439.51 259.987 439.999C204.764 439.993 159.998 395.883 159.998 341.47C159.998 340.979 160.002 340.489 160.01 340C215.233 340.006 259.998 384.116 259.998 438.529Z" fill="#D64A34" fill-opacity="0.24"/>
<path d="M258.527 440C259.018 440 259.508 440.003 259.997 440.01C259.991 495.234 215.881 539.999 161.469 540C160.978 540 160.487 539.995 159.998 539.988C160.004 484.765 204.115 440 258.527 440Z" fill="#D64A34" fill-opacity="0.24"/>
</g>
<g clip-path="url(#clip41_20_220)">
<path d="M1358.53 740C1359.02 740 1359.51 740.003 1360 740.01C1359.99 795.234 1315.88 839.999 1261.47 840C1260.98 840 1260.49 839.995 1260 839.988C1260.01 784.765 1304.12 740 1358.53 740Z" fill="#D64A34" fill-opacity="0.81"/>
<path d="M1360 938.529C1360 939.02 1360 939.51 1359.99 939.999C1304.77 939.993 1260 895.883 1260 841.47C1260 840.979 1260 840.489 1260.01 840C1315.23 840.006 1360 884.116 1360 938.529Z" fill="#D64A34" fill-opacity="0.81"/>
<path d="M1260 838.529C1260 839.02 1260 839.51 1259.99 839.999C1204.77 839.993 1160 795.883 1160 741.47C1160 740.979 1160 740.489 1160.01 740C1215.23 740.006 1260 784.116 1260 838.529Z" fill="#D64A34" fill-opacity="0.81"/>
<path d="M1258.53 840C1259.02 840 1259.51 840.003 1260 840.01C1259.99 895.234 1215.88 939.999 1161.47 940C1160.98 940 1160.49 939.995 1160 939.988C1160.01 884.765 1204.12 840 1258.53 840Z" fill="#D64A34" fill-opacity="0.81"/>
</g>
<g clip-path="url(#clip42_20_220)">
<path d="M358.527 740C359.018 740 359.508 740.003 359.997 740.01C359.991 795.234 315.881 839.999 261.469 840C260.978 840 260.487 839.995 259.998 839.988C260.004 784.765 304.115 740 358.527 740Z" fill="#D64A34" fill-opacity="0.24"/>
<path d="M359.998 938.529C359.998 939.02 359.995 939.51 359.987 939.999C304.764 939.993 259.998 895.883 259.998 841.47C259.998 840.979 260.002 840.489 260.01 840C315.233 840.006 359.998 884.116 359.998 938.529Z" fill="#D64A34" fill-opacity="0.24"/>
<path d="M259.998 838.529C259.998 839.02 259.995 839.51 259.987 839.999C204.764 839.993 159.998 795.883 159.998 741.47C159.998 740.979 160.002 740.489 160.01 740C215.233 740.006 259.998 784.116 259.998 838.529Z" fill="#D64A34" fill-opacity="0.24"/>
<path d="M258.527 840C259.018 840 259.508 840.003 259.997 840.01C259.991 895.234 215.881 939.999 161.469 940C160.978 940 160.487 939.995 159.998 939.988C160.004 884.765 204.115 840 258.527 840Z" fill="#D64A34" fill-opacity="0.24"/>
</g>
<g clip-path="url(#clip43_20_220)">
<path d="M1158.53 140C1159.02 140 1159.51 140.004 1160 140.011C1159.99 195.235 1115.88 240 1061.47 240C1060.98 240 1060.49 239.996 1060 239.989C1060.01 184.766 1104.12 140.001 1158.53 140Z" fill="#D64A34" fill-opacity="0.81"/>
<path d="M1160 338.53C1160 339.021 1160 339.51 1159.99 340C1104.77 339.994 1060 295.884 1060 241.471C1060 240.98 1060 240.49 1060.01 240C1115.23 240.007 1160 284.117 1160 338.53Z" fill="#D64A34" fill-opacity="0.81"/>
<path d="M1060 238.53C1060 239.021 1060 239.51 1059.99 240C1004.77 239.994 960 195.884 960 141.471C960 140.98 960.004 140.49 960.012 140C1015.23 140.007 1060 184.117 1060 238.53Z" fill="#D64A34" fill-opacity="0.81"/>
<path d="M1058.53 240C1059.02 240 1059.51 240.004 1060 240.011C1059.99 295.235 1015.88 340 961.471 340C960.98 340 960.489 339.996 960 339.989C960.006 284.766 1004.12 240.001 1058.53 240Z" fill="#D64A34" fill-opacity="0.81"/>
</g>
<g clip-path="url(#clip44_20_220)">
<path d="M158.527 140C159.018 140 159.508 140.004 159.997 140.011C159.991 195.235 115.881 240 61.4688 240C60.9777 240 60.4874 239.996 59.998 239.989C60.0043 184.766 104.115 140.001 158.527 140Z" fill="#D64A34" fill-opacity="0.24"/>
<path d="M159.998 338.53C159.998 339.021 159.995 339.51 159.987 340C104.764 339.994 59.9981 295.884 59.998 241.471C59.998 240.98 60.0025 240.49 60.0098 240C115.233 240.007 159.998 284.117 159.998 338.53Z" fill="#D64A34" fill-opacity="0.24"/>
<path d="M59.998 238.53C59.998 239.021 59.9946 239.51 59.9873 240C4.76381 239.994 -40.0019 195.884 -40.002 141.471C-40.002 140.98 -39.9975 140.49 -39.9902 140C15.2328 140.007 59.998 184.117 59.998 238.53Z" fill="#D64A34" fill-opacity="0.24"/>
<path d="M58.5273 240C59.0181 240 59.5081 240.004 59.9971 240.011C59.9914 295.235 15.8815 340 -38.5312 340C-39.0223 340 -39.5126 339.996 -40.002 339.989C-39.9957 284.766 4.11495 240.001 58.5273 240Z" fill="#D64A34" fill-opacity="0.24"/>
</g>
<g clip-path="url(#clip45_20_220)">
<path d="M1158.53 540C1159.02 540 1159.51 540.004 1160 540.011C1159.99 595.235 1115.88 640 1061.47 640C1060.98 640 1060.49 639.996 1060 639.989C1060.01 584.766 1104.12 540.001 1158.53 540Z" fill="#D64A34" fill-opacity="0.24"/>
<path d="M1160 738.53C1160 739.021 1160 739.51 1159.99 740C1104.77 739.994 1060 695.884 1060 641.471C1060 640.98 1060 640.49 1060.01 640C1115.23 640.007 1160 684.117 1160 738.53Z" fill="#D64A34" fill-opacity="0.24"/>
<path d="M1060 638.53C1060 639.021 1060 639.51 1059.99 640C1004.77 639.994 960 595.884 960 541.471C960 540.98 960.004 540.49 960.012 540C1015.23 540.007 1060 584.117 1060 638.53Z" fill="#D64A34" fill-opacity="0.24"/>
<path d="M1058.53 640C1059.02 640 1059.51 640.004 1060 640.011C1059.99 695.235 1015.88 740 961.471 740C960.98 740 960.489 739.996 960 739.989C960.006 684.766 1004.12 640.001 1058.53 640Z" fill="#D64A34" fill-opacity="0.24"/>
</g>
<g clip-path="url(#clip46_20_220)">
<path d="M158.527 540C159.018 540 159.508 540.004 159.997 540.011C159.991 595.235 115.881 640 61.4688 640C60.9777 640 60.4874 639.996 59.998 639.989C60.0043 584.766 104.115 540.001 158.527 540Z" fill="#D64A34" fill-opacity="0.24"/>
<path d="M159.998 738.53C159.998 739.021 159.995 739.51 159.987 740C104.764 739.994 59.9981 695.884 59.998 641.471C59.998 640.98 60.0025 640.49 60.0098 640C115.233 640.007 159.998 684.117 159.998 738.53Z" fill="#D64A34" fill-opacity="0.24"/>
<path d="M59.998 638.53C59.998 639.021 59.9946 639.51 59.9873 640C4.76381 639.994 -40.0019 595.884 -40.002 541.471C-40.002 540.98 -39.9975 540.49 -39.9902 540C15.2328 540.007 59.998 584.117 59.998 638.53Z" fill="#D64A34" fill-opacity="0.24"/>
<path d="M58.5273 640C59.0181 640 59.5081 640.004 59.9971 640.011C59.9914 695.235 15.8815 740 -38.5312 740C-39.0223 740 -39.5126 739.996 -40.002 739.989C-39.9957 684.766 4.11495 640.001 58.5273 640Z" fill="#D64A34" fill-opacity="0.24"/>
</g>
<g clip-path="url(#clip47_20_220)">
<path d="M1158.53 940C1159.02 940 1159.51 940.004 1160 940.011C1159.99 995.235 1115.88 1040 1061.47 1040C1060.98 1040 1060.49 1040 1060 1039.99C1060.01 984.766 1104.12 940.001 1158.53 940Z" fill="#D64A34" fill-opacity="0.24"/>
<path d="M1160 1138.53C1160 1139.02 1160 1139.51 1159.99 1140C1104.77 1139.99 1060 1095.88 1060 1041.47C1060 1040.98 1060 1040.49 1060.01 1040C1115.23 1040.01 1160 1084.12 1160 1138.53Z" fill="#D64A34" fill-opacity="0.24"/>
<path d="M1060 1038.53C1060 1039.02 1060 1039.51 1059.99 1040C1004.77 1039.99 960 995.884 960 941.471C960 940.98 960.004 940.49 960.012 940C1015.23 940.007 1060 984.117 1060 1038.53Z" fill="#D64A34" fill-opacity="0.24"/>
<path d="M1058.53 1040C1059.02 1040 1059.51 1040 1060 1040.01C1059.99 1095.23 1015.88 1140 961.471 1140C960.98 1140 960.489 1140 960 1139.99C960.006 1084.77 1004.12 1040 1058.53 1040Z" fill="#D64A34" fill-opacity="0.24"/>
</g>
<g clip-path="url(#clip48_20_220)">
<path d="M158.527 940C159.018 940 159.508 940.004 159.997 940.011C159.991 995.235 115.881 1040 61.4688 1040C60.9777 1040 60.4874 1040 59.998 1039.99C60.0043 984.766 104.115 940.001 158.527 940Z" fill="#D64A34" fill-opacity="0.24"/>
<path d="M159.998 1138.53C159.998 1139.02 159.995 1139.51 159.987 1140C104.764 1139.99 59.9981 1095.88 59.998 1041.47C59.998 1040.98 60.0025 1040.49 60.0098 1040C115.233 1040.01 159.998 1084.12 159.998 1138.53Z" fill="#D64A34" fill-opacity="0.24"/>
<path d="M59.998 1038.53C59.998 1039.02 59.9946 1039.51 59.9873 1040C4.76381 1039.99 -40.0019 995.884 -40.002 941.471C-40.002 940.98 -39.9975 940.49 -39.9902 940C15.2328 940.007 59.998 984.117 59.998 1038.53Z" fill="#D64A34" fill-opacity="0.24"/>
<path d="M58.5273 1040C59.0181 1040 59.5081 1040 59.9971 1040.01C59.9914 1095.23 15.8815 1140 -38.5312 1140C-39.0223 1140 -39.5126 1140 -40.002 1139.99C-39.9957 1084.77 4.11495 1040 58.5273 1040Z" fill="#D64A34" fill-opacity="0.24"/>
</g>
<g clip-path="url(#clip49_20_220)">
<path d="M1158.53 -59.9985C1159.02 -59.9985 1159.51 -59.995 1160 -59.9878C1159.99 -4.7643 1115.88 40.0014 1061.47 40.0015C1060.98 40.0015 1060.49 39.997 1060 39.9897C1060.01 -15.2333 1104.12 -59.9985 1158.53 -59.9985Z" fill="#D64A34" fill-opacity="0.24"/>
<path d="M1160 138.531C1160 139.021 1160 139.511 1159.99 140C1104.77 139.995 1060 95.8849 1060 41.4722C1060 40.9811 1060 40.4908 1060.01 40.0015C1115.23 40.0077 1160 84.1184 1160 138.531Z" fill="#D64A34" fill-opacity="0.24"/>
<path d="M1060 38.5308C1060 39.0215 1060 39.5115 1059.99 40.0005C1004.77 39.9948 960 -4.11512 960 -58.5278C960 -59.0189 960.004 -59.5092 960.012 -59.9985C1015.23 -59.9923 1060 -15.8816 1060 38.5308Z" fill="#D64A34" fill-opacity="0.24"/>
<path d="M1058.53 40.0015C1059.02 40.0015 1059.51 40.005 1060 40.0122C1059.99 95.2357 1015.88 140.001 961.471 140.001C960.98 140.001 960.489 139.997 960 139.99C960.006 84.7667 1004.12 40.0015 1058.53 40.0015Z" fill="#D64A34" fill-opacity="0.24"/>
</g>
<g clip-path="url(#clip50_20_220)">
<path d="M158.527 -59.9985C159.018 -59.9985 159.508 -59.995 159.997 -59.9878C159.991 -4.7643 115.881 40.0014 61.4688 40.0015C60.9777 40.0015 60.4874 39.997 59.998 39.9897C60.0043 -15.2333 104.115 -59.9985 158.527 -59.9985Z" fill="#D64A34" fill-opacity="0.81"/>
<path d="M159.998 138.531C159.998 139.021 159.995 139.511 159.987 140C104.764 139.995 59.9981 95.8849 59.998 41.4722C59.998 40.9811 60.0025 40.4908 60.0098 40.0015C115.233 40.0077 159.998 84.1184 159.998 138.531Z" fill="#D64A34" fill-opacity="0.81"/>
<path d="M59.998 38.5308C59.998 39.0215 59.9946 39.5115 59.9873 40.0005C4.76381 39.9948 -40.0019 -4.11512 -40.002 -58.5278C-40.002 -59.0189 -39.9975 -59.5092 -39.9902 -59.9985C15.2328 -59.9923 59.998 -15.8816 59.998 38.5308Z" fill="#D64A34" fill-opacity="0.81"/>
<path d="M58.5273 40.0015C59.0181 40.0015 59.5081 40.005 59.9971 40.0122C59.9914 95.2357 15.8815 140.001 -38.5312 140.001C-39.0223 140.001 -39.5126 139.997 -40.002 139.99C-39.9957 84.7667 4.11495 40.0015 58.5273 40.0015Z" fill="#D64A34" fill-opacity="0.81"/>
</g>
<g clip-path="url(#clip51_20_220)">
<path d="M1158.53 340.001C1159.02 340.001 1159.51 340.005 1160 340.012C1159.99 395.236 1115.88 440.001 1061.47 440.001C1060.98 440.001 1060.49 439.997 1060 439.99C1060.01 384.767 1104.12 340.002 1158.53 340.001Z" fill="#D64A34" fill-opacity="0.24"/>
<path d="M1160 538.531C1160 539.021 1160 539.511 1159.99 540C1104.77 539.995 1060 495.885 1060 441.472C1060 440.981 1060 440.491 1060.01 440.001C1115.23 440.008 1160 484.118 1160 538.531Z" fill="#D64A34" fill-opacity="0.24"/>
<path d="M1060 438.531C1060 439.021 1060 439.511 1059.99 440C1004.77 439.995 960 395.885 960 341.472C960 340.981 960.004 340.491 960.012 340.001C1015.23 340.008 1060 384.118 1060 438.531Z" fill="#D64A34" fill-opacity="0.24"/>
<path d="M1058.53 440.001C1059.02 440.001 1059.51 440.005 1060 440.012C1059.99 495.236 1015.88 540.001 961.471 540.001C960.98 540.001 960.489 539.997 960 539.99C960.006 484.767 1004.12 440.002 1058.53 440.001Z" fill="#D64A34" fill-opacity="0.24"/>
</g>
<g clip-path="url(#clip52_20_220)">
<path d="M158.527 340.001C159.018 340.001 159.508 340.005 159.997 340.012C159.991 395.236 115.881 440.001 61.4688 440.001C60.9777 440.001 60.4874 439.997 59.998 439.99C60.0043 384.767 104.115 340.002 158.527 340.001Z" fill="#D64A34" fill-opacity="0.24"/>
<path d="M159.998 538.531C159.998 539.021 159.995 539.511 159.987 540C104.764 539.995 59.9981 495.885 59.998 441.472C59.998 440.981 60.0025 440.491 60.0098 440.001C115.233 440.008 159.998 484.118 159.998 538.531Z" fill="#D64A34" fill-opacity="0.24"/>
<path d="M59.998 438.531C59.998 439.021 59.9946 439.511 59.9873 440C4.76381 439.995 -40.0019 395.885 -40.002 341.472C-40.002 340.981 -39.9975 340.491 -39.9902 340.001C15.2328 340.008 59.998 384.118 59.998 438.531Z" fill="#D64A34" fill-opacity="0.24"/>
<path d="M58.5273 440.001C59.0181 440.001 59.5081 440.005 59.9971 440.012C59.9914 495.236 15.8815 540.001 -38.5312 540.001C-39.0223 540.001 -39.5126 539.997 -40.002 539.99C-39.9957 484.767 4.11495 440.002 58.5273 440.001Z" fill="#D64A34" fill-opacity="0.24"/>
</g>
<g clip-path="url(#clip53_20_220)">
<path d="M1158.53 740.001C1159.02 740.001 1159.51 740.005 1160 740.012C1159.99 795.236 1115.88 840.001 1061.47 840.001C1060.98 840.001 1060.49 839.997 1060 839.99C1060.01 784.767 1104.12 740.002 1158.53 740.001Z" fill="#D64A34" fill-opacity="0.24"/>
<path d="M1160 938.531C1160 939.021 1160 939.511 1159.99 940C1104.77 939.995 1060 895.885 1060 841.472C1060 840.981 1060 840.491 1060.01 840.001C1115.23 840.008 1160 884.118 1160 938.531Z" fill="#D64A34" fill-opacity="0.24"/>
<path d="M1060 838.531C1060 839.021 1060 839.511 1059.99 840C1004.77 839.995 960 795.885 960 741.472C960 740.981 960.004 740.491 960.012 740.001C1015.23 740.008 1060 784.118 1060 838.531Z" fill="#D64A34" fill-opacity="0.24"/>
<path d="M1058.53 840.001C1059.02 840.001 1059.51 840.005 1060 840.012C1059.99 895.236 1015.88 940.001 961.471 940.001C960.98 940.001 960.489 939.997 960 939.99C960.006 884.767 1004.12 840.002 1058.53 840.001Z" fill="#D64A34" fill-opacity="0.24"/>
</g>
<g clip-path="url(#clip54_20_220)">
<path d="M158.527 740.001C159.018 740.001 159.508 740.005 159.997 740.012C159.991 795.236 115.881 840.001 61.4688 840.001C60.9777 840.001 60.4874 839.997 59.998 839.99C60.0043 784.767 104.115 740.002 158.527 740.001Z" fill="#D64A34" fill-opacity="0.81"/>
<path d="M159.998 938.531C159.998 939.021 159.995 939.511 159.987 940C104.764 939.995 59.9981 895.885 59.998 841.472C59.998 840.981 60.0025 840.491 60.0098 840.001C115.233 840.008 159.998 884.118 159.998 938.531Z" fill="#D64A34" fill-opacity="0.81"/>
<path d="M59.998 838.531C59.998 839.021 59.9946 839.511 59.9873 840C4.76381 839.995 -40.0019 795.885 -40.002 741.472C-40.002 740.981 -39.9975 740.491 -39.9902 740.001C15.2328 740.008 59.998 784.118 59.998 838.531Z" fill="#D64A34" fill-opacity="0.81"/>
<path d="M58.5273 840.001C59.0181 840.001 59.5081 840.005 59.9971 840.012C59.9914 895.236 15.8815 940.001 -38.5312 940.001C-39.0223 940.001 -39.5126 939.997 -40.002 939.99C-39.9957 884.767 4.11495 840.002 58.5273 840.001Z" fill="#D64A34" fill-opacity="0.81"/>
</g>
<g clip-path="url(#clip55_20_220)">
<path d="M1358.53 140C1359.02 140 1359.51 140.004 1360 140.011C1359.99 195.235 1315.88 240 1261.47 240C1260.98 240 1260.49 239.996 1260 239.989C1260.01 184.766 1304.12 140.001 1358.53 140Z" fill="#D64A34" fill-opacity="0.24"/>
<path d="M1360 338.53C1360 339.021 1360 339.51 1359.99 340C1304.77 339.994 1260 295.884 1260 241.471C1260 240.98 1260 240.49 1260.01 240C1315.23 240.007 1360 284.117 1360 338.53Z" fill="#D64A34" fill-opacity="0.24"/>
<path d="M1260 238.53C1260 239.021 1260 239.51 1259.99 240C1204.77 239.994 1160 195.884 1160 141.471C1160 140.98 1160 140.49 1160.01 140C1215.23 140.007 1260 184.117 1260 238.53Z" fill="#D64A34" fill-opacity="0.24"/>
<path d="M1258.53 240C1259.02 240 1259.51 240.004 1260 240.011C1259.99 295.235 1215.88 340 1161.47 340C1160.98 340 1160.49 339.996 1160 339.989C1160.01 284.766 1204.12 240.001 1258.53 240Z" fill="#D64A34" fill-opacity="0.24"/>
</g>
<g clip-path="url(#clip56_20_220)">
<path d="M358.527 140C359.018 140 359.508 140.004 359.997 140.011C359.991 195.235 315.881 240 261.469 240C260.978 240 260.487 239.996 259.998 239.989C260.004 184.766 304.115 140.001 358.527 140Z" fill="#D64A34" fill-opacity="0.81"/>
<path d="M359.998 338.53C359.998 339.021 359.995 339.51 359.987 340C304.764 339.994 259.998 295.884 259.998 241.471C259.998 240.98 260.002 240.49 260.01 240C315.233 240.007 359.998 284.117 359.998 338.53Z" fill="#D64A34" fill-opacity="0.81"/>
<path d="M259.998 238.53C259.998 239.021 259.995 239.51 259.987 240C204.764 239.994 159.998 195.884 159.998 141.471C159.998 140.98 160.002 140.49 160.01 140C215.233 140.007 259.998 184.117 259.998 238.53Z" fill="#D64A34" fill-opacity="0.81"/>
<path d="M258.527 240C259.018 240 259.508 240.004 259.997 240.011C259.991 295.235 215.881 340 161.469 340C160.978 340 160.487 339.996 159.998 339.989C160.004 284.766 204.115 240.001 258.527 240Z" fill="#D64A34" fill-opacity="0.81"/>
</g>
<g clip-path="url(#clip57_20_220)">
<path d="M1358.53 540C1359.02 540 1359.51 540.004 1360 540.011C1359.99 595.235 1315.88 640 1261.47 640C1260.98 640 1260.49 639.996 1260 639.989C1260.01 584.766 1304.12 540.001 1358.53 540Z" fill="#D64A34" fill-opacity="0.24"/>
<path d="M1360 738.53C1360 739.021 1360 739.51 1359.99 740C1304.77 739.994 1260 695.884 1260 641.471C1260 640.98 1260 640.49 1260.01 640C1315.23 640.007 1360 684.117 1360 738.53Z" fill="#D64A34" fill-opacity="0.24"/>
<path d="M1260 638.53C1260 639.021 1260 639.51 1259.99 640C1204.77 639.994 1160 595.884 1160 541.471C1160 540.98 1160 540.49 1160.01 540C1215.23 540.007 1260 584.117 1260 638.53Z" fill="#D64A34" fill-opacity="0.24"/>
<path d="M1258.53 640C1259.02 640 1259.51 640.004 1260 640.011C1259.99 695.235 1215.88 740 1161.47 740C1160.98 740 1160.49 739.996 1160 739.989C1160.01 684.766 1204.12 640.001 1258.53 640Z" fill="#D64A34" fill-opacity="0.24"/>
</g>
<g clip-path="url(#clip58_20_220)">
<path d="M358.527 540C359.018 540 359.508 540.004 359.997 540.011C359.991 595.235 315.881 640 261.469 640C260.978 640 260.487 639.996 259.998 639.989C260.004 584.766 304.115 540.001 358.527 540Z" fill="#D64A34" fill-opacity="0.81"/>
<path d="M359.998 738.53C359.998 739.021 359.995 739.51 359.987 740C304.764 739.994 259.998 695.884 259.998 641.471C259.998 640.98 260.002 640.49 260.01 640C315.233 640.007 359.998 684.117 359.998 738.53Z" fill="#D64A34" fill-opacity="0.81"/>
<path d="M259.998 638.53C259.998 639.021 259.995 639.51 259.987 640C204.764 639.994 159.998 595.884 159.998 541.471C159.998 540.98 160.002 540.49 160.01 540C215.233 540.007 259.998 584.117 259.998 638.53Z" fill="#D64A34" fill-opacity="0.81"/>
<path d="M258.527 640C259.018 640 259.508 640.004 259.997 640.011C259.991 695.235 215.881 740 161.469 740C160.978 740 160.487 739.996 159.998 739.989C160.004 684.766 204.115 640.001 258.527 640Z" fill="#D64A34" fill-opacity="0.81"/>
</g>
<g clip-path="url(#clip59_20_220)">
<path d="M1358.53 940C1359.02 940 1359.51 940.004 1360 940.011C1359.99 995.235 1315.88 1040 1261.47 1040C1260.98 1040 1260.49 1040 1260 1039.99C1260.01 984.766 1304.12 940.001 1358.53 940Z" fill="#D64A34" fill-opacity="0.24"/>
<path d="M1360 1138.53C1360 1139.02 1360 1139.51 1359.99 1140C1304.77 1139.99 1260 1095.88 1260 1041.47C1260 1040.98 1260 1040.49 1260.01 1040C1315.23 1040.01 1360 1084.12 1360 1138.53Z" fill="#D64A34" fill-opacity="0.24"/>
<path d="M1260 1038.53C1260 1039.02 1260 1039.51 1259.99 1040C1204.77 1039.99 1160 995.884 1160 941.471C1160 940.98 1160 940.49 1160.01 940C1215.23 940.007 1260 984.117 1260 1038.53Z" fill="#D64A34" fill-opacity="0.24"/>
<path d="M1258.53 1040C1259.02 1040 1259.51 1040 1260 1040.01C1259.99 1095.23 1215.88 1140 1161.47 1140C1160.98 1140 1160.49 1140 1160 1139.99C1160.01 1084.77 1204.12 1040 1258.53 1040Z" fill="#D64A34" fill-opacity="0.24"/>
</g>
<g clip-path="url(#clip60_20_220)">
<path d="M358.527 940C359.018 940 359.508 940.004 359.997 940.011C359.991 995.235 315.881 1040 261.469 1040C260.978 1040 260.487 1040 259.998 1039.99C260.004 984.766 304.115 940.001 358.527 940Z" fill="#D64A34" fill-opacity="0.81"/>
<path d="M359.998 1138.53C359.998 1139.02 359.995 1139.51 359.987 1140C304.764 1139.99 259.998 1095.88 259.998 1041.47C259.998 1040.98 260.002 1040.49 260.01 1040C315.233 1040.01 359.998 1084.12 359.998 1138.53Z" fill="#D64A34" fill-opacity="0.81"/>
<path d="M259.998 1038.53C259.998 1039.02 259.995 1039.51 259.987 1040C204.764 1039.99 159.998 995.884 159.998 941.471C159.998 940.98 160.002 940.49 160.01 940C215.233 940.007 259.998 984.117 259.998 1038.53Z" fill="#D64A34" fill-opacity="0.81"/>
<path d="M258.527 1040C259.018 1040 259.508 1040 259.997 1040.01C259.991 1095.23 215.881 1140 161.469 1140C160.978 1140 160.487 1140 159.998 1139.99C160.004 1084.77 204.115 1040 258.527 1040Z" fill="#D64A34" fill-opacity="0.81"/>
</g>
</g>
<defs>
<clipPath id="clip0_20_220">
<rect width="1920" height="1080" fill="white"/>
</clipPath>
<clipPath id="clip1_20_220">
<rect width="200" height="200" fill="white" transform="translate(1760 -59.9995)"/>
</clipPath>
<clipPath id="clip2_20_220">
<rect width="200" height="200" fill="white" transform="translate(760 -59.9995)"/>
</clipPath>
<clipPath id="clip3_20_220">
<rect width="200" height="200" fill="white" transform="translate(1760 340)"/>
</clipPath>
<clipPath id="clip4_20_220">
<rect width="200" height="200" fill="white" transform="translate(760 340)"/>
</clipPath>
<clipPath id="clip5_20_220">
<rect width="200" height="200" fill="white" transform="translate(1760 740)"/>
</clipPath>
<clipPath id="clip6_20_220">
<rect width="200" height="200" fill="white" transform="translate(760 740)"/>
</clipPath>
<clipPath id="clip7_20_220">
<rect width="200" height="200" fill="white" transform="translate(1760 140)"/>
</clipPath>
<clipPath id="clip8_20_220">
<rect width="200" height="200" fill="white" transform="translate(760 140)"/>
</clipPath>
<clipPath id="clip9_20_220">
<rect width="200" height="200" fill="white" transform="translate(1760 540)"/>
</clipPath>
<clipPath id="clip10_20_220">
<rect width="200" height="200" fill="white" transform="translate(760 540)"/>
</clipPath>
<clipPath id="clip11_20_220">
<rect width="200" height="200" fill="white" transform="translate(1760 940)"/>
</clipPath>
<clipPath id="clip12_20_220">
<rect width="200" height="200" fill="white" transform="translate(760 940)"/>
</clipPath>
<clipPath id="clip13_20_220">
<rect width="200" height="200" fill="white" transform="translate(1360 -60.0005)"/>
</clipPath>
<clipPath id="clip14_20_220">
<rect width="200" height="200" fill="white" transform="translate(360 -60.0005)"/>
</clipPath>
<clipPath id="clip15_20_220">
<rect width="200" height="200" fill="white" transform="translate(1360 340)"/>
</clipPath>
<clipPath id="clip16_20_220">
<rect width="200" height="200" fill="white" transform="translate(360 340)"/>
</clipPath>
<clipPath id="clip17_20_220">
<rect width="200" height="200" fill="white" transform="translate(1360 740)"/>
</clipPath>
<clipPath id="clip18_20_220">
<rect width="200" height="200" fill="white" transform="translate(360 740)"/>
</clipPath>
<clipPath id="clip19_20_220">
<rect width="200" height="200" fill="white" transform="translate(1360 140)"/>
</clipPath>
<clipPath id="clip20_20_220">
<rect width="200" height="200" fill="white" transform="translate(360 140)"/>
</clipPath>
<clipPath id="clip21_20_220">
<rect width="200" height="200" fill="white" transform="translate(1360 540)"/>
</clipPath>
<clipPath id="clip22_20_220">
<rect width="200" height="200" fill="white" transform="translate(360 540)"/>
</clipPath>
<clipPath id="clip23_20_220">
<rect width="200" height="200" fill="white" transform="translate(1360 940)"/>
</clipPath>
<clipPath id="clip24_20_220">
<rect width="200" height="200" fill="white" transform="translate(360 940)"/>
</clipPath>
<clipPath id="clip25_20_220">
<rect width="200" height="200" fill="white" transform="translate(1560 -59.9995)"/>
</clipPath>
<clipPath id="clip26_20_220">
<rect width="200" height="200" fill="white" transform="translate(560 -59.9995)"/>
</clipPath>
<clipPath id="clip27_20_220">
<rect width="200" height="200" fill="white" transform="translate(1560 340)"/>
</clipPath>
<clipPath id="clip28_20_220">
<rect width="200" height="200" fill="white" transform="translate(560 340)"/>
</clipPath>
<clipPath id="clip29_20_220">
<rect width="200" height="200" fill="white" transform="translate(1560 740)"/>
</clipPath>
<clipPath id="clip30_20_220">
<rect width="200" height="200" fill="white" transform="translate(560 740)"/>
</clipPath>
<clipPath id="clip31_20_220">
<rect width="200" height="200" fill="white" transform="translate(1560 140)"/>
</clipPath>
<clipPath id="clip32_20_220">
<rect width="200" height="200" fill="white" transform="translate(560 140)"/>
</clipPath>
<clipPath id="clip33_20_220">
<rect width="200" height="200" fill="white" transform="translate(1560 540)"/>
</clipPath>
<clipPath id="clip34_20_220">
<rect width="200" height="200" fill="white" transform="translate(560 540)"/>
</clipPath>
<clipPath id="clip35_20_220">
<rect width="200" height="200" fill="white" transform="translate(1560 940)"/>
</clipPath>
<clipPath id="clip36_20_220">
<rect width="200" height="200" fill="white" transform="translate(560 940)"/>
</clipPath>
<clipPath id="clip37_20_220">
<rect width="200" height="200" fill="white" transform="translate(1160 -60.0005)"/>
</clipPath>
<clipPath id="clip38_20_220">
<rect width="200" height="200" fill="white" transform="translate(159.998 -60.0005)"/>
</clipPath>
<clipPath id="clip39_20_220">
<rect width="200" height="200" fill="white" transform="translate(1160 340)"/>
</clipPath>
<clipPath id="clip40_20_220">
<rect width="200" height="200" fill="white" transform="translate(159.998 340)"/>
</clipPath>
<clipPath id="clip41_20_220">
<rect width="200" height="200" fill="white" transform="translate(1160 740)"/>
</clipPath>
<clipPath id="clip42_20_220">
<rect width="200" height="200" fill="white" transform="translate(159.998 740)"/>
</clipPath>
<clipPath id="clip43_20_220">
<rect width="200" height="200" fill="white" transform="translate(960 140)"/>
</clipPath>
<clipPath id="clip44_20_220">
<rect width="200" height="200" fill="white" transform="translate(-40.002 140)"/>
</clipPath>
<clipPath id="clip45_20_220">
<rect width="200" height="200" fill="white" transform="translate(960 540)"/>
</clipPath>
<clipPath id="clip46_20_220">
<rect width="200" height="200" fill="white" transform="translate(-40.002 540)"/>
</clipPath>
<clipPath id="clip47_20_220">
<rect width="200" height="200" fill="white" transform="translate(960 940)"/>
</clipPath>
<clipPath id="clip48_20_220">
<rect width="200" height="200" fill="white" transform="translate(-40.002 940)"/>
</clipPath>
<clipPath id="clip49_20_220">
<rect width="200" height="200" fill="white" transform="translate(960 -59.9985)"/>
</clipPath>
<clipPath id="clip50_20_220">
<rect width="200" height="200" fill="white" transform="translate(-40.002 -59.9985)"/>
</clipPath>
<clipPath id="clip51_20_220">
<rect width="200" height="200" fill="white" transform="translate(960 340.001)"/>
</clipPath>
<clipPath id="clip52_20_220">
<rect width="200" height="200" fill="white" transform="translate(-40.002 340.001)"/>
</clipPath>
<clipPath id="clip53_20_220">
<rect width="200" height="200" fill="white" transform="translate(960 740.001)"/>
</clipPath>
<clipPath id="clip54_20_220">
<rect width="200" height="200" fill="white" transform="translate(-40.002 740.001)"/>
</clipPath>
<clipPath id="clip55_20_220">
<rect width="200" height="200" fill="white" transform="translate(1160 140)"/>
</clipPath>
<clipPath id="clip56_20_220">
<rect width="200" height="200" fill="white" transform="translate(159.998 140)"/>
</clipPath>
<clipPath id="clip57_20_220">
<rect width="200" height="200" fill="white" transform="translate(1160 540)"/>
</clipPath>
<clipPath id="clip58_20_220">
<rect width="200" height="200" fill="white" transform="translate(159.998 540)"/>
</clipPath>
<clipPath id="clip59_20_220">
<rect width="200" height="200" fill="white" transform="translate(1160 940)"/>
</clipPath>
<clipPath id="clip60_20_220">
<rect width="200" height="200" fill="white" transform="translate(159.998 940)"/>
</clipPath>
</defs>
</svg>
