<svg width="800" height="600" viewBox="0 0 800 600" fill="none" xmlns="http://www.w3.org/2000/svg">
<g clip-path="url(#clip0_23_947)">
<circle cx="682" cy="503" r="66.6667" transform="rotate(180 682 503)" stroke="#F0D6C2" stroke-width="2"/>
<circle cx="616.666" cy="436.333" r="66.6667" transform="rotate(180 616.666 436.333)" stroke="#F0D6C2" stroke-width="2"/>
<circle cx="682" cy="232.5" r="66.6667" transform="rotate(180 682 232.5)" stroke="#F0D6C2" stroke-width="2"/>
<circle cx="616.666" cy="165.833" r="66.6667" transform="rotate(180 616.666 165.833)" stroke="#F0D6C2" stroke-width="2"/>
<circle cx="547" cy="503" r="66.6667" transform="rotate(180 547 503)" stroke="#F0D6C2" stroke-width="2"/>
<circle cx="481.666" cy="436.333" r="66.6667" transform="rotate(180 481.666 436.333)" stroke="#F0D6C2" stroke-width="2"/>
<circle cx="547" cy="232.5" r="66.6667" transform="rotate(180 547 232.5)" stroke="#F0D6C2" stroke-width="2"/>
<circle cx="481.666" cy="165.833" r="66.6667" transform="rotate(180 481.666 165.833)" stroke="#F0D6C2" stroke-width="2"/>
<circle cx="412" cy="503" r="66.6667" transform="rotate(180 412 503)" stroke="#F0D6C2" stroke-width="2"/>
<circle cx="346.666" cy="436.333" r="66.6667" transform="rotate(180 346.666 436.333)" stroke="#F0D6C2" stroke-width="2"/>
<circle cx="277" cy="503" r="66.6667" transform="rotate(180 277 503)" stroke="#F0D6C2" stroke-width="2"/>
<circle cx="817" cy="503" r="66.6667" transform="rotate(180 817 503)" stroke="#F0D6C2" stroke-width="2"/>
<circle cx="751.666" cy="436.333" r="66.6667" transform="rotate(180 751.666 436.333)" stroke="#F0D6C2" stroke-width="2"/>
<circle cx="817" cy="232.5" r="66.6667" transform="rotate(180 817 232.5)" stroke="#F0D6C2" stroke-width="2"/>
<circle cx="751.666" cy="165.833" r="66.6667" transform="rotate(180 751.666 165.833)" stroke="#F0D6C2" stroke-width="2"/>
<circle cx="682" cy="638" r="66.6667" transform="rotate(180 682 638)" stroke="#F0D6C2" stroke-width="2"/>
<circle cx="616.666" cy="571.333" r="66.6667" transform="rotate(180 616.666 571.333)" stroke="#F0D6C2" stroke-width="2"/>
<circle cx="682" cy="367.5" r="66.6667" transform="rotate(180 682 367.5)" stroke="#F0D6C2" stroke-width="2"/>
<circle cx="616.666" cy="300.833" r="66.6667" transform="rotate(180 616.666 300.833)" stroke="#F0D6C2" stroke-width="2"/>
<circle cx="547" cy="638" r="66.6667" transform="rotate(180 547 638)" stroke="#F0D6C2" stroke-width="2"/>
<circle cx="481.666" cy="571.333" r="66.6667" transform="rotate(180 481.666 571.333)" stroke="#F0D6C2" stroke-width="2"/>
<circle cx="547" cy="367.5" r="66.6667" transform="rotate(180 547 367.5)" stroke="#F0D6C2" stroke-width="2"/>
<circle cx="481.666" cy="300.833" r="66.6667" transform="rotate(180 481.666 300.833)" stroke="#F0D6C2" stroke-width="2"/>
<circle cx="412" cy="638" r="66.6667" transform="rotate(180 412 638)" stroke="#F0D6C2" stroke-width="2"/>
<circle cx="346.666" cy="571.333" r="66.6667" transform="rotate(180 346.666 571.333)" stroke="#F0D6C2" stroke-width="2"/>
<circle cx="412" cy="367.5" r="66.6667" transform="rotate(180 412 367.5)" stroke="#F0D6C2" stroke-width="2"/>
<circle cx="346.666" cy="300.833" r="66.6667" transform="rotate(180 346.666 300.833)" stroke="#F0D6C2" stroke-width="2"/>
<circle cx="277" cy="638" r="66.6667" transform="rotate(180 277 638)" stroke="#F0D6C2" stroke-width="2"/>
<circle cx="211.666" cy="571.333" r="66.6667" transform="rotate(180 211.666 571.333)" stroke="#F0D6C2" stroke-width="2"/>
<circle cx="817" cy="638" r="66.6667" transform="rotate(180 817 638)" stroke="#F0D6C2" stroke-width="2"/>
<circle cx="751.666" cy="571.333" r="66.6667" transform="rotate(180 751.666 571.333)" stroke="#F0D6C2" stroke-width="2"/>
<circle cx="817" cy="367.5" r="66.6667" transform="rotate(180 817 367.5)" stroke="#F0D6C2" stroke-width="2"/>
<circle cx="751.666" cy="300.833" r="66.6667" transform="rotate(180 751.666 300.833)" stroke="#F0D6C2" stroke-width="2"/>
</g>
<defs>
<clipPath id="clip0_23_947">
<rect width="800" height="600" fill="white" transform="matrix(-1 0 0 -1 800 600)"/>
</clipPath>
</defs>
</svg>
