<svg xmlns="http://www.w3.org/2000/svg" width="800" height="600" fill="none" viewBox="0 0 800 600"><g stroke="#f0d6c2" stroke-width="2" clip-path="url(#a)"><circle cx="118" cy="97" r="66.667"/><circle cx="183.334" cy="163.667" r="66.667"/><circle cx="118" cy="367.5" r="66.667"/><circle cx="183.334" cy="434.167" r="66.667"/><circle cx="253" cy="97" r="66.667"/><circle cx="318.334" cy="163.667" r="66.667"/><circle cx="253" cy="367.5" r="66.667"/><circle cx="318.334" cy="434.167" r="66.667"/><circle cx="388" cy="97" r="66.667"/><circle cx="453.334" cy="163.667" r="66.667"/><circle cx="523" cy="97" r="66.667"/><circle cx="-17" cy="97" r="66.667"/><circle cx="48.334" cy="163.667" r="66.667"/><circle cx="-17" cy="367.5" r="66.667"/><circle cx="48.334" cy="434.167" r="66.667"/><circle cx="118" cy="-38" r="66.667"/><circle cx="183.334" cy="28.667" r="66.667"/><circle cx="118" cy="232.5" r="66.667"/><circle cx="183.334" cy="299.167" r="66.667"/><circle cx="253" cy="-38" r="66.667"/><circle cx="318.334" cy="28.667" r="66.667"/><circle cx="253" cy="232.5" r="66.667"/><circle cx="318.334" cy="299.167" r="66.667"/><circle cx="388" cy="-38" r="66.667"/><circle cx="453.334" cy="28.667" r="66.667"/><circle cx="388" cy="232.5" r="66.667"/><circle cx="453.334" cy="299.167" r="66.667"/><circle cx="523" cy="-38" r="66.667"/><circle cx="588.334" cy="28.667" r="66.667"/><circle cx="-17" cy="-38" r="66.667"/><circle cx="48.334" cy="28.667" r="66.667"/><circle cx="-17" cy="232.5" r="66.667"/><circle cx="48.334" cy="299.167" r="66.667"/></g><defs><clipPath id="a"><path fill="#fff" d="M0 0h800v600H0z"/></clipPath></defs></svg>