<svg width="800" height="600" viewBox="0 0 800 600" fill="none" xmlns="http://www.w3.org/2000/svg">
<g clip-path="url(#clip0_23_645)">
<circle cx="118" cy="97.0002" r="66.6667" stroke="#F0D6C2" stroke-width="2"/>
<circle cx="183.334" cy="163.667" r="66.6667" stroke="#F0D6C2" stroke-width="2"/>
<circle cx="118" cy="367.5" r="66.6667" stroke="#F0D6C2" stroke-width="2"/>
<circle cx="183.334" cy="434.167" r="66.6667" stroke="#F0D6C2" stroke-width="2"/>
<circle cx="253" cy="97.0002" r="66.6667" stroke="#F0D6C2" stroke-width="2"/>
<circle cx="318.334" cy="163.667" r="66.6667" stroke="#F0D6C2" stroke-width="2"/>
<circle cx="253" cy="367.5" r="66.6667" stroke="#F0D6C2" stroke-width="2"/>
<circle cx="318.334" cy="434.167" r="66.6667" stroke="#F0D6C2" stroke-width="2"/>
<circle cx="388" cy="97.0002" r="66.6667" stroke="#F0D6C2" stroke-width="2"/>
<circle cx="453.334" cy="163.667" r="66.6667" stroke="#F0D6C2" stroke-width="2"/>
<circle cx="523" cy="97.0002" r="66.6667" stroke="#F0D6C2" stroke-width="2"/>
<circle cx="-17.0003" cy="97.0002" r="66.6667" stroke="#F0D6C2" stroke-width="2"/>
<circle cx="48.3337" cy="163.667" r="66.6667" stroke="#F0D6C2" stroke-width="2"/>
<circle cx="-17.0003" cy="367.5" r="66.6667" stroke="#F0D6C2" stroke-width="2"/>
<circle cx="48.3337" cy="434.167" r="66.6667" stroke="#F0D6C2" stroke-width="2"/>
<circle cx="118" cy="-37.9998" r="66.6667" stroke="#F0D6C2" stroke-width="2"/>
<circle cx="183.334" cy="28.6667" r="66.6667" stroke="#F0D6C2" stroke-width="2"/>
<circle cx="118" cy="232.5" r="66.6667" stroke="#F0D6C2" stroke-width="2"/>
<circle cx="183.334" cy="299.167" r="66.6667" stroke="#F0D6C2" stroke-width="2"/>
<circle cx="253" cy="-37.9998" r="66.6667" stroke="#F0D6C2" stroke-width="2"/>
<circle cx="318.334" cy="28.6667" r="66.6667" stroke="#F0D6C2" stroke-width="2"/>
<circle cx="253" cy="232.5" r="66.6667" stroke="#F0D6C2" stroke-width="2"/>
<circle cx="318.334" cy="299.167" r="66.6667" stroke="#F0D6C2" stroke-width="2"/>
<circle cx="388" cy="-37.9998" r="66.6667" stroke="#F0D6C2" stroke-width="2"/>
<circle cx="453.334" cy="28.6667" r="66.6667" stroke="#F0D6C2" stroke-width="2"/>
<circle cx="388" cy="232.5" r="66.6667" stroke="#F0D6C2" stroke-width="2"/>
<circle cx="453.334" cy="299.167" r="66.6667" stroke="#F0D6C2" stroke-width="2"/>
<circle cx="523" cy="-37.9998" r="66.6667" stroke="#F0D6C2" stroke-width="2"/>
<circle cx="588.334" cy="28.6667" r="66.6667" stroke="#F0D6C2" stroke-width="2"/>
<circle cx="-17.0003" cy="-37.9998" r="66.6667" stroke="#F0D6C2" stroke-width="2"/>
<circle cx="48.3337" cy="28.6667" r="66.6667" stroke="#F0D6C2" stroke-width="2"/>
<circle cx="-17.0003" cy="232.5" r="66.6667" stroke="#F0D6C2" stroke-width="2"/>
<circle cx="48.3337" cy="299.167" r="66.6667" stroke="#F0D6C2" stroke-width="2"/>
</g>
<defs>
<clipPath id="clip0_23_645">
<rect width="800" height="600" fill="white"/>
</clipPath>
</defs>
</svg>
