<svg xmlns="http://www.w3.org/2000/svg" width="1920" height="1080" fill="none" viewBox="0 0 1920 1080"><g fill="#d64a34" clip-path="url(#a)"><g fill-opacity=".24" clip-path="url(#b)"><path d="M1958.53-60q.735 0 1.47.011c0 55.224-44.11 99.99-98.53 99.99q-.735 0-1.47-.012c.01-55.223 44.12-99.988 98.53-99.988M1960 138.53c0 .491 0 .98-.01 1.47-55.22-.006-99.99-44.116-99.99-98.529 0-.49.01-.981.01-1.47 55.23.006 99.99 44.116 99.99 98.529M1860 38.53c0 .49 0 .98-.01 1.47-55.22-.006-99.99-44.116-99.99-98.529 0-.49.01-.981.01-1.47 55.23.006 99.99 44.116 99.99 98.529M1858.53 40q.735 0 1.47.011c0 55.224-44.11 99.989-98.53 99.989q-.735 0-1.47-.011c.01-55.223 44.12-99.988 98.53-99.988"/></g><g fill-opacity=".24" clip-path="url(#c)"><path d="M958.529-60q.736 0 1.47.011c-.006 55.224-44.116 99.99-98.528 99.99q-.737 0-1.471-.012C860.006-15.234 904.117-60 958.529-60M960 138.53q0 .736-.011 1.47C904.766 139.994 860 95.884 860 41.471q0-.736.012-1.47C915.235 40.007 960 84.117 960 138.53M860 38.53q0 .735-.011 1.47C804.766 39.994 760-4.117 760-58.53q0-.736.012-1.47C815.235-59.993 860-15.883 860 38.53M858.529 40q.736 0 1.47.011C859.993 95.235 815.883 140 761.471 140q-.737 0-1.471-.011c.006-55.223 44.117-99.988 98.529-99.988"/></g><g fill-opacity=".24" clip-path="url(#d)"><path d="M1958.53 340q.735 0 1.47.011c0 55.224-44.11 99.989-98.53 99.989q-.735 0-1.47-.011c.01-55.223 44.12-99.988 98.53-99.989M1960 538.53c0 .491 0 .98-.01 1.47-55.22-.006-99.99-44.116-99.99-98.529 0-.491.01-.981.01-1.471 55.23.007 99.99 44.117 99.99 98.53M1860 438.53c0 .491 0 .98-.01 1.47-55.22-.006-99.99-44.116-99.99-98.529 0-.491.01-.981.01-1.471 55.23.007 99.99 44.117 99.99 98.53M1858.53 440q.735 0 1.47.011c0 55.224-44.11 99.989-98.53 99.989q-.735 0-1.47-.011c.01-55.223 44.12-99.988 98.53-99.989"/></g><g fill-opacity=".24" clip-path="url(#e)"><path d="M958.529 340q.736 0 1.47.011C959.993 395.235 915.883 440 861.471 440q-.737 0-1.471-.011c.006-55.223 44.117-99.988 98.529-99.989M960 538.53q0 .736-.011 1.47C904.766 539.994 860 495.884 860 441.471q0-.736.012-1.471c55.223.007 99.988 44.117 99.988 98.53M860 438.53q0 .736-.011 1.47C804.766 439.994 760 395.884 760 341.471q0-.736.012-1.471c55.223.007 99.988 44.117 99.988 98.53M858.529 440q.736 0 1.47.011C859.993 495.235 815.883 540 761.471 540q-.737 0-1.471-.011c.006-55.223 44.117-99.988 98.529-99.989"/></g><g fill-opacity=".24" clip-path="url(#f)"><path d="M1958.53 740q.735 0 1.47.011c0 55.224-44.11 99.989-98.53 99.989q-.735 0-1.47-.011c.01-55.223 44.12-99.988 98.53-99.989M1960 938.53c0 .491 0 .98-.01 1.47-55.22-.006-99.99-44.116-99.99-98.529 0-.491.01-.981.01-1.471 55.23.007 99.99 44.117 99.99 98.53M1860 838.53c0 .491 0 .98-.01 1.47-55.22-.006-99.99-44.116-99.99-98.529 0-.491.01-.981.01-1.471 55.23.007 99.99 44.117 99.99 98.53M1858.53 840q.735 0 1.47.011c0 55.224-44.11 99.989-98.53 99.989q-.735 0-1.47-.011c.01-55.223 44.12-99.988 98.53-99.989"/></g><g fill-opacity=".81" clip-path="url(#g)"><path d="M958.529 740q.736 0 1.47.011C959.993 795.235 915.883 840 861.471 840q-.737 0-1.471-.011c.006-55.223 44.117-99.988 98.529-99.989M960 938.53q0 .736-.011 1.47C904.766 939.994 860 895.884 860 841.471q0-.736.012-1.471c55.223.007 99.988 44.117 99.988 98.53M860 838.53q0 .736-.011 1.47C804.766 839.994 760 795.884 760 741.471q0-.736.012-1.471c55.223.007 99.988 44.117 99.988 98.53M858.529 840q.736 0 1.47.011C859.993 895.235 815.883 940 761.471 940q-.737 0-1.471-.011c.006-55.223 44.117-99.988 98.529-99.989"/></g><g fill-opacity=".24" clip-path="url(#h)"><path d="M1958.53 140q.735 0 1.47.011c0 55.224-44.11 99.989-98.53 99.989q-.735 0-1.47-.011c.01-55.223 44.12-99.988 98.53-99.989M1960 338.53c0 .491 0 .98-.01 1.47-55.22-.006-99.99-44.116-99.99-98.529 0-.491.01-.981.01-1.471 55.23.007 99.99 44.117 99.99 98.53M1860 238.53c0 .491 0 .98-.01 1.47-55.22-.006-99.99-44.116-99.99-98.529 0-.491.01-.981.01-1.471 55.23.007 99.99 44.117 99.99 98.53"/><path d="M1858.53 240q.735 0 1.47.011c0 55.224-44.11 99.989-98.53 99.989q-.735 0-1.47-.011c.01-55.223 44.12-99.988 98.53-99.989"/></g><g fill-opacity=".24" clip-path="url(#i)"><path d="M958.529 140q.736 0 1.47.011C959.993 195.235 915.883 240 861.471 240q-.737 0-1.471-.011c.006-55.223 44.117-99.988 98.529-99.989M960 338.53q0 .736-.011 1.47C904.766 339.994 860 295.884 860 241.471q0-.736.012-1.471c55.223.007 99.988 44.117 99.988 98.53M860 238.53q0 .736-.011 1.47C804.766 239.994 760 195.884 760 141.471q0-.736.012-1.471c55.223.007 99.988 44.117 99.988 98.53M858.529 240q.736 0 1.47.011C859.993 295.235 815.883 340 761.471 340q-.737 0-1.471-.011c.006-55.223 44.117-99.988 98.529-99.989"/></g><g fill-opacity=".24" clip-path="url(#j)"><path d="M1958.53 540q.735 0 1.47.011c0 55.224-44.11 99.989-98.53 99.989q-.735 0-1.47-.011c.01-55.223 44.12-99.988 98.53-99.989M1960 738.53c0 .491 0 .98-.01 1.47-55.22-.006-99.99-44.116-99.99-98.529 0-.491.01-.981.01-1.471 55.23.007 99.99 44.117 99.99 98.53M1860 638.53c0 .491 0 .98-.01 1.47-55.22-.006-99.99-44.116-99.99-98.529 0-.491.01-.981.01-1.471 55.23.007 99.99 44.117 99.99 98.53M1858.53 640q.735 0 1.47.011c0 55.224-44.11 99.989-98.53 99.989q-.735 0-1.47-.011c.01-55.223 44.12-99.988 98.53-99.989"/></g><g fill-opacity=".24" clip-path="url(#k)"><path d="M958.529 540q.736 0 1.47.011C959.993 595.235 915.883 640 861.471 640q-.737 0-1.471-.011c.006-55.223 44.117-99.988 98.529-99.989M960 738.53q0 .736-.011 1.47C904.766 739.994 860 695.884 860 641.471q0-.736.012-1.471c55.223.007 99.988 44.117 99.988 98.53M860 638.53q0 .736-.011 1.47C804.766 639.994 760 595.884 760 541.471q0-.736.012-1.471c55.223.007 99.988 44.117 99.988 98.53M858.529 640q.736 0 1.47.011C859.993 695.235 815.883 740 761.471 740q-.737 0-1.471-.011c.006-55.223 44.117-99.988 98.529-99.989"/></g><g fill-opacity=".81" clip-path="url(#l)"><path d="M1958.53 940q.735 0 1.47.011c0 55.224-44.11 99.989-98.53 99.989-.49 0-.98 0-1.47-.01.01-55.224 44.12-99.989 98.53-99.99M1960 1138.53c0 .49 0 .98-.01 1.47-55.22-.01-99.99-44.12-99.99-98.53 0-.49.01-.98.01-1.47 55.23.01 99.99 44.12 99.99 98.53M1860 1038.53c0 .49 0 .98-.01 1.47-55.22-.01-99.99-44.116-99.99-98.529 0-.491.01-.981.01-1.471 55.23.007 99.99 44.117 99.99 98.53M1858.53 1040c.49 0 .98 0 1.47.01 0 55.22-44.11 99.99-98.53 99.99-.49 0-.98 0-1.47-.01.01-55.22 44.12-99.99 98.53-99.99"/></g><g fill-opacity=".24" clip-path="url(#m)"><path d="M958.529 940q.736 0 1.47.011c-.006 55.224-44.116 99.989-98.528 99.989-.491 0-.982 0-1.471-.01.006-55.224 44.117-99.989 98.529-99.99M960 1138.53q0 .735-.011 1.47c-55.223-.01-99.989-44.12-99.989-98.53q0-.735.012-1.47c55.223.01 99.988 44.12 99.988 98.53M860 1038.53q0 .735-.011 1.47c-55.223-.01-99.989-44.116-99.989-98.529q0-.736.012-1.471c55.223.007 99.988 44.117 99.988 98.53M858.529 1040c.491 0 .981 0 1.47.01-.006 55.22-44.116 99.99-98.528 99.99-.491 0-.982 0-1.471-.01.006-55.22 44.117-99.99 98.529-99.99"/></g><g fill-opacity=".81" clip-path="url(#n)"><path d="M1558.53-60q.735 0 1.47.01c0 55.224-44.11 99.99-98.53 99.99q-.735 0-1.47-.012c.01-55.223 44.12-99.988 98.53-99.989M1560 138.529c0 .491 0 .981-.01 1.47-55.22-.006-99.99-44.116-99.99-98.529 0-.49.01-.981.01-1.47 55.23.006 99.99 44.116 99.99 98.529M1460 38.529c0 .49 0 .98-.01 1.47-55.22-.006-99.99-44.116-99.99-98.529 0-.49.01-.981.01-1.47 55.23.006 99.99 44.116 99.99 98.529M1458.53 40q.735 0 1.47.01c0 55.224-44.11 99.989-98.53 99.99q-.735 0-1.47-.012c.01-55.223 44.12-99.988 98.53-99.988"/></g><g fill-opacity=".24" clip-path="url(#o)"><path d="M558.529-60q.736 0 1.47.01C559.993-4.766 515.883 40 461.471 40q-.737 0-1.471-.012c.006-55.223 44.117-99.988 98.529-99.989M560 138.529q0 .737-.011 1.47C504.766 139.993 460 95.883 460 41.47q0-.736.012-1.47C515.235 40.006 560 84.116 560 138.529M460 38.529q0 .735-.011 1.47C404.766 39.993 360-4.117 360-58.53q0-.736.012-1.47C415.235-59.994 460-15.885 460 38.528M458.529 40q.736 0 1.47.01C459.993 95.234 415.883 140 361.471 140q-.737 0-1.471-.012C360.006 84.765 404.117 40 458.529 40"/></g><g fill-opacity=".24" clip-path="url(#p)"><path d="M1558.53 340q.735 0 1.47.01c0 55.224-44.11 99.989-98.53 99.99q-.735 0-1.47-.012c.01-55.223 44.12-99.988 98.53-99.988M1560 538.529c0 .491 0 .981-.01 1.47-55.22-.006-99.99-44.116-99.99-98.529 0-.491.01-.981.01-1.47 55.23.006 99.99 44.116 99.99 98.529M1460 438.529c0 .491 0 .981-.01 1.47-55.22-.006-99.99-44.116-99.99-98.529 0-.491.01-.981.01-1.47 55.23.006 99.99 44.116 99.99 98.529M1458.53 440q.735 0 1.47.01c0 55.224-44.11 99.989-98.53 99.99q-.735 0-1.47-.012c.01-55.223 44.12-99.988 98.53-99.988"/></g><g fill-opacity=".24" clip-path="url(#q)"><path d="M558.529 340q.736 0 1.47.01c-.006 55.224-44.116 99.989-98.528 99.99q-.737 0-1.471-.012c.006-55.223 44.117-99.988 98.529-99.988M560 538.529q0 .736-.011 1.47C504.766 539.993 460 495.883 460 441.47q0-.736.012-1.47c55.223.006 99.988 44.116 99.988 98.529M460 438.529q0 .736-.011 1.47C404.766 439.993 360 395.883 360 341.47q0-.736.012-1.47c55.223.006 99.988 44.116 99.988 98.529M458.529 440q.736 0 1.47.01c-.006 55.224-44.116 99.989-98.528 99.99q-.737 0-1.471-.012c.006-55.223 44.117-99.988 98.529-99.988"/></g><g fill-opacity=".24" clip-path="url(#r)"><path d="M1558.53 740q.735 0 1.47.01c0 55.224-44.11 99.989-98.53 99.99q-.735 0-1.47-.012c.01-55.223 44.12-99.988 98.53-99.988M1560 938.529c0 .491 0 .981-.01 1.47-55.22-.006-99.99-44.116-99.99-98.529 0-.491.01-.981.01-1.47 55.23.006 99.99 44.116 99.99 98.529M1460 838.529c0 .491 0 .981-.01 1.47-55.22-.006-99.99-44.116-99.99-98.529 0-.491.01-.981.01-1.47 55.23.006 99.99 44.116 99.99 98.529M1458.53 840q.735 0 1.47.01c0 55.224-44.11 99.989-98.53 99.99q-.735 0-1.47-.012c.01-55.223 44.12-99.988 98.53-99.988"/></g><g fill-opacity=".24" clip-path="url(#s)"><path d="M558.529 740q.736 0 1.47.01c-.006 55.224-44.116 99.989-98.528 99.99q-.737 0-1.471-.012c.006-55.223 44.117-99.988 98.529-99.988M560 938.529q0 .736-.011 1.47C504.766 939.993 460 895.883 460 841.47q0-.736.012-1.47c55.223.006 99.988 44.116 99.988 98.529M460 838.529q0 .736-.011 1.47C404.766 839.993 360 795.883 360 741.47q0-.736.012-1.47c55.223.006 99.988 44.116 99.988 98.529M458.529 840q.736 0 1.47.01c-.006 55.224-44.116 99.989-98.528 99.99q-.737 0-1.471-.012c.006-55.223 44.117-99.988 98.529-99.988"/></g><g fill-opacity=".24" clip-path="url(#t)"><path d="M1558.53 140q.735 0 1.47.011c0 55.224-44.11 99.989-98.53 99.989q-.735 0-1.47-.011c.01-55.223 44.12-99.988 98.53-99.989M1560 338.53c0 .491 0 .98-.01 1.47-55.22-.006-99.99-44.116-99.99-98.529 0-.491.01-.981.01-1.471 55.23.007 99.99 44.117 99.99 98.53M1460 238.53c0 .491 0 .98-.01 1.47-55.22-.006-99.99-44.116-99.99-98.529 0-.491.01-.981.01-1.471 55.23.007 99.99 44.117 99.99 98.53"/><path d="M1458.53 240q.735 0 1.47.011c0 55.224-44.11 99.989-98.53 99.989q-.735 0-1.47-.011c.01-55.223 44.12-99.988 98.53-99.989"/></g><g fill-opacity=".24" clip-path="url(#u)"><path d="M558.529 140q.736 0 1.47.011C559.993 195.235 515.883 240 461.471 240q-.737 0-1.471-.011c.006-55.223 44.117-99.988 98.529-99.989M560 338.53q0 .736-.011 1.47C504.766 339.994 460 295.884 460 241.471q0-.736.012-1.471c55.223.007 99.988 44.117 99.988 98.53M460 238.53q0 .736-.011 1.47C404.766 239.994 360 195.884 360 141.471q0-.736.012-1.471c55.223.007 99.988 44.117 99.988 98.53M458.529 240q.736 0 1.47.011C459.993 295.235 415.883 340 361.471 340q-.737 0-1.471-.011c.006-55.223 44.117-99.988 98.529-99.989"/></g><g fill-opacity=".24" clip-path="url(#v)"><path d="M1558.53 540q.735 0 1.47.011c0 55.224-44.11 99.989-98.53 99.989q-.735 0-1.47-.011c.01-55.223 44.12-99.988 98.53-99.989M1560 738.53c0 .491 0 .98-.01 1.47-55.22-.006-99.99-44.116-99.99-98.529 0-.491.01-.981.01-1.471 55.23.007 99.99 44.117 99.99 98.53M1460 638.53c0 .491 0 .98-.01 1.47-55.22-.006-99.99-44.116-99.99-98.529 0-.491.01-.981.01-1.471 55.23.007 99.99 44.117 99.99 98.53M1458.53 640q.735 0 1.47.011c0 55.224-44.11 99.989-98.53 99.989q-.735 0-1.47-.011c.01-55.223 44.12-99.988 98.53-99.989"/></g><g fill-opacity=".24" clip-path="url(#w)"><path d="M558.529 540q.736 0 1.47.011C559.993 595.235 515.883 640 461.471 640q-.737 0-1.471-.011c.006-55.223 44.117-99.988 98.529-99.989M560 738.53q0 .736-.011 1.47C504.766 739.994 460 695.884 460 641.471q0-.736.012-1.471c55.223.007 99.988 44.117 99.988 98.53M460 638.53q0 .736-.011 1.47C404.766 639.994 360 595.884 360 541.471q0-.736.012-1.471c55.223.007 99.988 44.117 99.988 98.53M458.529 640q.736 0 1.47.011C459.993 695.235 415.883 740 361.471 740q-.737 0-1.471-.011c.006-55.223 44.117-99.988 98.529-99.989"/></g><g fill-opacity=".81" clip-path="url(#x)"><path d="M1558.53 940q.735 0 1.47.011c0 55.224-44.11 99.989-98.53 99.989-.49 0-.98 0-1.47-.01.01-55.224 44.12-99.989 98.53-99.99M1560 1138.53c0 .49 0 .98-.01 1.47-55.22-.01-99.99-44.12-99.99-98.53 0-.49.01-.98.01-1.47 55.23.01 99.99 44.12 99.99 98.53M1460 1038.53c0 .49 0 .98-.01 1.47-55.22-.01-99.99-44.116-99.99-98.529 0-.491.01-.981.01-1.471 55.23.007 99.99 44.117 99.99 98.53M1458.53 1040c.49 0 .98 0 1.47.01 0 55.22-44.11 99.99-98.53 99.99-.49 0-.98 0-1.47-.01.01-55.22 44.12-99.99 98.53-99.99"/></g><g fill-opacity=".24" clip-path="url(#y)"><path d="M558.529 940q.736 0 1.47.011c-.006 55.224-44.116 99.989-98.528 99.989-.491 0-.982 0-1.471-.01.006-55.224 44.117-99.989 98.529-99.99M560 1138.53q0 .735-.011 1.47c-55.223-.01-99.989-44.12-99.989-98.53q0-.735.012-1.47c55.223.01 99.988 44.12 99.988 98.53M460 1038.53q0 .735-.011 1.47c-55.223-.01-99.989-44.116-99.989-98.529q0-.736.012-1.471c55.223.007 99.988 44.117 99.988 98.53M458.529 1040c.491 0 .981 0 1.47.01-.006 55.22-44.116 99.99-98.528 99.99-.491 0-.982 0-1.471-.01.006-55.22 44.117-99.99 98.529-99.99"/></g><g fill-opacity=".24" clip-path="url(#z)"><path d="M1758.53-60q.735 0 1.47.011c0 55.224-44.11 99.99-98.53 99.99q-.735 0-1.47-.012c.01-55.223 44.12-99.988 98.53-99.988M1760 138.53c0 .491 0 .98-.01 1.47-55.22-.006-99.99-44.116-99.99-98.529 0-.49.01-.981.01-1.47 55.23.006 99.99 44.116 99.99 98.529M1660 38.53c0 .49 0 .98-.01 1.47-55.22-.006-99.99-44.116-99.99-98.529 0-.49.01-.981.01-1.47 55.23.006 99.99 44.116 99.99 98.529M1658.53 40q.735 0 1.47.011c0 55.224-44.11 99.989-98.53 99.989q-.735 0-1.47-.011c.01-55.223 44.12-99.988 98.53-99.988"/></g><g fill-opacity=".81" clip-path="url(#A)"><path d="M758.529-60q.736 0 1.47.011c-.006 55.224-44.116 99.99-98.528 99.99q-.737 0-1.471-.012C660.006-15.234 704.117-60 758.529-60M760 138.53q0 .736-.011 1.47C704.766 139.994 660 95.884 660 41.471q0-.736.012-1.47C715.235 40.007 760 84.117 760 138.53M660 38.53q0 .735-.011 1.47C604.766 39.994 560-4.117 560-58.53q0-.736.012-1.47C615.235-59.993 660-15.883 660 38.53M658.529 40q.736 0 1.47.011C659.993 95.235 615.883 140 561.471 140q-.737 0-1.471-.011c.006-55.223 44.117-99.988 98.529-99.988"/></g><g fill-opacity=".81" clip-path="url(#B)"><path d="M1758.53 340q.735 0 1.47.011c0 55.224-44.11 99.989-98.53 99.989q-.735 0-1.47-.011c.01-55.223 44.12-99.988 98.53-99.989M1760 538.53c0 .491 0 .98-.01 1.47-55.22-.006-99.99-44.116-99.99-98.529 0-.491.01-.981.01-1.471 55.23.007 99.99 44.117 99.99 98.53M1660 438.53c0 .491 0 .98-.01 1.47-55.22-.006-99.99-44.116-99.99-98.529 0-.491.01-.981.01-1.471 55.23.007 99.99 44.117 99.99 98.53M1658.53 440q.735 0 1.47.011c0 55.224-44.11 99.989-98.53 99.989q-.735 0-1.47-.011c.01-55.223 44.12-99.988 98.53-99.989"/></g><g fill-opacity=".81" clip-path="url(#C)"><path d="M758.529 340q.736 0 1.47.011C759.993 395.235 715.883 440 661.471 440q-.737 0-1.471-.011c.006-55.223 44.117-99.988 98.529-99.989M760 538.53q0 .736-.011 1.47C704.766 539.994 660 495.884 660 441.471q0-.736.012-1.471c55.223.007 99.988 44.117 99.988 98.53M660 438.53q0 .736-.011 1.47C604.766 439.994 560 395.884 560 341.471q0-.736.012-1.471c55.223.007 99.988 44.117 99.988 98.53M658.529 440q.736 0 1.47.011C659.993 495.235 615.883 540 561.471 540q-.737 0-1.471-.011c.006-55.223 44.117-99.988 98.529-99.989"/></g><g fill-opacity=".81" clip-path="url(#D)"><path d="M1758.53 740q.735 0 1.47.011c0 55.224-44.11 99.989-98.53 99.989q-.735 0-1.47-.011c.01-55.223 44.12-99.988 98.53-99.989M1760 938.53c0 .491 0 .98-.01 1.47-55.22-.006-99.99-44.116-99.99-98.529 0-.491.01-.981.01-1.471 55.23.007 99.99 44.117 99.99 98.53M1660 838.53c0 .491 0 .98-.01 1.47-55.22-.006-99.99-44.116-99.99-98.529 0-.491.01-.981.01-1.471 55.23.007 99.99 44.117 99.99 98.53M1658.53 840q.735 0 1.47.011c0 55.224-44.11 99.989-98.53 99.989q-.735 0-1.47-.011c.01-55.223 44.12-99.988 98.53-99.989"/></g><g fill-opacity=".24" clip-path="url(#E)"><path d="M758.529 740q.736 0 1.47.011C759.993 795.235 715.883 840 661.471 840q-.737 0-1.471-.011c.006-55.223 44.117-99.988 98.529-99.989M760 938.53q0 .736-.011 1.47C704.766 939.994 660 895.884 660 841.471q0-.736.012-1.471c55.223.007 99.988 44.117 99.988 98.53M660 838.53q0 .736-.011 1.47C604.766 839.994 560 795.884 560 741.471q0-.736.012-1.471c55.223.007 99.988 44.117 99.988 98.53M658.529 840q.736 0 1.47.011C659.993 895.235 615.883 940 561.471 940q-.737 0-1.471-.011c.006-55.223 44.117-99.988 98.529-99.989"/></g><g fill-opacity=".81" clip-path="url(#F)"><path d="M1758.53 140q.735 0 1.47.011c0 55.224-44.11 99.989-98.53 99.989q-.735 0-1.47-.011c.01-55.223 44.12-99.988 98.53-99.989M1760 338.53c0 .491 0 .98-.01 1.47-55.22-.006-99.99-44.116-99.99-98.529 0-.491.01-.981.01-1.471 55.23.007 99.99 44.117 99.99 98.53M1660 238.53c0 .491 0 .98-.01 1.47-55.22-.006-99.99-44.116-99.99-98.529 0-.491.01-.981.01-1.471 55.23.007 99.99 44.117 99.99 98.53"/><path d="M1658.53 240q.735 0 1.47.011c0 55.224-44.11 99.989-98.53 99.989q-.735 0-1.47-.011c.01-55.223 44.12-99.988 98.53-99.989"/></g><g fill-opacity=".24" clip-path="url(#G)"><path d="M758.529 140q.736 0 1.47.011C759.993 195.235 715.883 240 661.471 240q-.737 0-1.471-.011c.006-55.223 44.117-99.988 98.529-99.989M760 338.53q0 .736-.011 1.47C704.766 339.994 660 295.884 660 241.471q0-.736.012-1.471c55.223.007 99.988 44.117 99.988 98.53M660 238.53q0 .736-.011 1.47C604.766 239.994 560 195.884 560 141.471q0-.736.012-1.471c55.223.007 99.988 44.117 99.988 98.53M658.529 240q.736 0 1.47.011C659.993 295.235 615.883 340 561.471 340q-.737 0-1.471-.011c.006-55.223 44.117-99.988 98.529-99.989"/></g><g fill-opacity=".24" clip-path="url(#H)"><path d="M1758.53 540q.735 0 1.47.011c0 55.224-44.11 99.989-98.53 99.989q-.735 0-1.47-.011c.01-55.223 44.12-99.988 98.53-99.989M1760 738.53c0 .491 0 .98-.01 1.47-55.22-.006-99.99-44.116-99.99-98.529 0-.491.01-.981.01-1.471 55.23.007 99.99 44.117 99.99 98.53M1660 638.53c0 .491 0 .98-.01 1.47-55.22-.006-99.99-44.116-99.99-98.529 0-.491.01-.981.01-1.471 55.23.007 99.99 44.117 99.99 98.53M1658.53 640q.735 0 1.47.011c0 55.224-44.11 99.989-98.53 99.989q-.735 0-1.47-.011c.01-55.223 44.12-99.988 98.53-99.989"/></g><g fill-opacity=".81" clip-path="url(#I)"><path d="M758.529 540q.736 0 1.47.011C759.993 595.235 715.883 640 661.471 640q-.737 0-1.471-.011c.006-55.223 44.117-99.988 98.529-99.989M760 738.53q0 .736-.011 1.47C704.766 739.994 660 695.884 660 641.471q0-.736.012-1.471c55.223.007 99.988 44.117 99.988 98.53M660 638.53q0 .736-.011 1.47C604.766 639.994 560 595.884 560 541.471q0-.736.012-1.471c55.223.007 99.988 44.117 99.988 98.53M658.529 640q.736 0 1.47.011C659.993 695.235 615.883 740 561.471 740q-.737 0-1.471-.011c.006-55.223 44.117-99.988 98.529-99.989"/></g><g fill-opacity=".24" clip-path="url(#J)"><path d="M1758.53 940q.735 0 1.47.011c0 55.224-44.11 99.989-98.53 99.989-.49 0-.98 0-1.47-.01.01-55.224 44.12-99.989 98.53-99.99M1760 1138.53c0 .49 0 .98-.01 1.47-55.22-.01-99.99-44.12-99.99-98.53 0-.49.01-.98.01-1.47 55.23.01 99.99 44.12 99.99 98.53M1660 1038.53c0 .49 0 .98-.01 1.47-55.22-.01-99.99-44.116-99.99-98.529 0-.491.01-.981.01-1.471 55.23.007 99.99 44.117 99.99 98.53M1658.53 1040c.49 0 .98 0 1.47.01 0 55.22-44.11 99.99-98.53 99.99-.49 0-.98 0-1.47-.01.01-55.22 44.12-99.99 98.53-99.99"/></g><g fill-opacity=".81" clip-path="url(#K)"><path d="M758.529 940q.736 0 1.47.011c-.006 55.224-44.116 99.989-98.528 99.989-.491 0-.982 0-1.471-.01.006-55.224 44.117-99.989 98.529-99.99M760 1138.53q0 .735-.011 1.47c-55.223-.01-99.989-44.12-99.989-98.53q0-.735.012-1.47c55.223.01 99.988 44.12 99.988 98.53M660 1038.53q0 .735-.011 1.47c-55.223-.01-99.989-44.116-99.989-98.529q0-.736.012-1.471c55.223.007 99.988 44.117 99.988 98.53M658.529 1040c.491 0 .981 0 1.47.01-.006 55.22-44.116 99.99-98.528 99.99-.491 0-.982 0-1.471-.01.006-55.22 44.117-99.99 98.529-99.99"/></g><g fill-opacity=".24" clip-path="url(#L)"><path d="M1358.53-60q.735 0 1.47.01c-.01 55.224-44.12 99.99-98.53 99.99q-.735 0-1.47-.012c.01-55.223 44.12-99.988 98.53-99.989M1360 138.529c0 .491 0 .981-.01 1.47-55.22-.006-99.99-44.116-99.99-98.529 0-.49 0-.981.01-1.47 55.22.006 99.99 44.116 99.99 98.529M1260 38.529c0 .49 0 .98-.01 1.47-55.22-.006-99.99-44.116-99.99-98.529 0-.49 0-.981.01-1.47 55.22.006 99.99 44.116 99.99 98.529M1258.53 40q.735 0 1.47.01c-.01 55.224-44.12 99.989-98.53 99.99q-.735 0-1.47-.012c.01-55.223 44.12-99.988 98.53-99.988"/></g><g fill-opacity=".24" clip-path="url(#M)"><path d="M358.527-60q.736 0 1.47.01C359.991-4.766 315.881 40 261.469 40q-.737 0-1.471-.012c.006-55.223 44.117-99.988 98.529-99.989M359.998 138.529q0 .737-.011 1.47c-55.223-.006-99.989-44.116-99.989-98.529q0-.736.012-1.47c55.223.006 99.988 44.116 99.988 98.529M259.998 38.529q0 .735-.011 1.47c-55.223-.006-99.989-44.116-99.989-98.529q0-.736.012-1.47c55.223.006 99.988 44.116 99.988 98.529M258.527 40q.736 0 1.47.01C259.991 95.234 215.881 140 161.469 140q-.737 0-1.471-.012C160.004 84.765 204.115 40 258.527 40"/></g><g fill-opacity=".81" clip-path="url(#N)"><path d="M1358.53 340q.735 0 1.47.01c-.01 55.224-44.12 99.989-98.53 99.99q-.735 0-1.47-.012c.01-55.223 44.12-99.988 98.53-99.988M1360 538.529c0 .491 0 .981-.01 1.47-55.22-.006-99.99-44.116-99.99-98.529 0-.491 0-.981.01-1.47 55.22.006 99.99 44.116 99.99 98.529M1260 438.529c0 .491 0 .981-.01 1.47-55.22-.006-99.99-44.116-99.99-98.529 0-.491 0-.981.01-1.47 55.22.006 99.99 44.116 99.99 98.529M1258.53 440q.735 0 1.47.01c-.01 55.224-44.12 99.989-98.53 99.99q-.735 0-1.47-.012c.01-55.223 44.12-99.988 98.53-99.988"/></g><g fill-opacity=".24" clip-path="url(#O)"><path d="M358.527 340q.736 0 1.47.01c-.006 55.224-44.116 99.989-98.528 99.99q-.737 0-1.471-.012c.006-55.223 44.117-99.988 98.529-99.988M359.998 538.529q0 .736-.011 1.47c-55.223-.006-99.989-44.116-99.989-98.529q0-.736.012-1.47c55.223.006 99.988 44.116 99.988 98.529M259.998 438.529q0 .736-.011 1.47c-55.223-.006-99.989-44.116-99.989-98.529q0-.736.012-1.47c55.223.006 99.988 44.116 99.988 98.529M258.527 440q.736 0 1.47.01c-.006 55.224-44.116 99.989-98.528 99.99q-.737 0-1.471-.012c.006-55.223 44.117-99.988 98.529-99.988"/></g><g fill-opacity=".81" clip-path="url(#P)"><path d="M1358.53 740q.735 0 1.47.01c-.01 55.224-44.12 99.989-98.53 99.99q-.735 0-1.47-.012c.01-55.223 44.12-99.988 98.53-99.988M1360 938.529c0 .491 0 .981-.01 1.47-55.22-.006-99.99-44.116-99.99-98.529 0-.491 0-.981.01-1.47 55.22.006 99.99 44.116 99.99 98.529M1260 838.529c0 .491 0 .981-.01 1.47-55.22-.006-99.99-44.116-99.99-98.529 0-.491 0-.981.01-1.47 55.22.006 99.99 44.116 99.99 98.529M1258.53 840q.735 0 1.47.01c-.01 55.224-44.12 99.989-98.53 99.99q-.735 0-1.47-.012c.01-55.223 44.12-99.988 98.53-99.988"/></g><g fill-opacity=".24" clip-path="url(#Q)"><path d="M358.527 740q.736 0 1.47.01c-.006 55.224-44.116 99.989-98.528 99.99q-.737 0-1.471-.012c.006-55.223 44.117-99.988 98.529-99.988M359.998 938.529q0 .736-.011 1.47c-55.223-.006-99.989-44.116-99.989-98.529q0-.736.012-1.47c55.223.006 99.988 44.116 99.988 98.529M259.998 838.529q0 .736-.011 1.47c-55.223-.006-99.989-44.116-99.989-98.529q0-.736.012-1.47c55.223.006 99.988 44.116 99.988 98.529M258.527 840q.736 0 1.47.01c-.006 55.224-44.116 99.989-98.528 99.99q-.737 0-1.471-.012c.006-55.223 44.117-99.988 98.529-99.988"/></g><g fill-opacity=".81" clip-path="url(#R)"><path d="M1158.53 140q.735 0 1.47.011c-.01 55.224-44.12 99.989-98.53 99.989q-.735 0-1.47-.011c.01-55.223 44.12-99.988 98.53-99.989M1160 338.53c0 .491 0 .98-.01 1.47-55.22-.006-99.99-44.116-99.99-98.529 0-.491 0-.981.01-1.471 55.22.007 99.99 44.117 99.99 98.53M1060 238.53c0 .491 0 .98-.01 1.47-55.22-.006-99.99-44.116-99.99-98.529q0-.736.012-1.471c55.218.007 99.988 44.117 99.988 98.53M1058.53 240q.735 0 1.47.011c-.01 55.224-44.12 99.989-98.529 99.989q-.737 0-1.471-.011c.006-55.223 44.12-99.988 98.53-99.989"/></g><g fill-opacity=".24" clip-path="url(#S)"><path d="M158.527 140q.736 0 1.47.011C159.991 195.235 115.881 240 61.469 240q-.737 0-1.471-.011c.006-55.223 44.117-99.988 98.529-99.989M159.998 338.53q0 .736-.011 1.47c-55.223-.006-99.989-44.116-99.989-98.529q0-.736.012-1.471c55.223.007 99.988 44.117 99.988 98.53M59.998 238.53q0 .736-.01 1.47c-55.224-.006-99.99-44.116-99.99-98.529q0-.736.012-1.471c55.223.007 99.988 44.117 99.988 98.53M58.527 240q.736 0 1.47.011C59.991 295.235 15.882 340-38.53 340q-.737 0-1.471-.011c.006-55.223 44.117-99.988 98.53-99.989"/></g><g fill-opacity=".24" clip-path="url(#T)"><path d="M1158.53 540q.735 0 1.47.011c-.01 55.224-44.12 99.989-98.53 99.989q-.735 0-1.47-.011c.01-55.223 44.12-99.988 98.53-99.989M1160 738.53c0 .491 0 .98-.01 1.47-55.22-.006-99.99-44.116-99.99-98.529 0-.491 0-.981.01-1.471 55.22.007 99.99 44.117 99.99 98.53M1060 638.53c0 .491 0 .98-.01 1.47-55.22-.006-99.99-44.116-99.99-98.529q0-.736.012-1.471c55.218.007 99.988 44.117 99.988 98.53M1058.53 640q.735 0 1.47.011c-.01 55.224-44.12 99.989-98.529 99.989q-.737 0-1.471-.011c.006-55.223 44.12-99.988 98.53-99.989"/></g><g fill-opacity=".24" clip-path="url(#U)"><path d="M158.527 540q.736 0 1.47.011C159.991 595.235 115.881 640 61.469 640q-.737 0-1.471-.011c.006-55.223 44.117-99.988 98.529-99.989M159.998 738.53q0 .736-.011 1.47c-55.223-.006-99.989-44.116-99.989-98.529q0-.736.012-1.471c55.223.007 99.988 44.117 99.988 98.53M59.998 638.53q0 .736-.01 1.47c-55.224-.006-99.99-44.116-99.99-98.529q0-.736.012-1.471c55.223.007 99.988 44.117 99.988 98.53M58.527 640q.736 0 1.47.011C59.991 695.235 15.882 740-38.53 740q-.737 0-1.471-.011c.006-55.223 44.117-99.988 98.53-99.989"/></g><g fill-opacity=".24" clip-path="url(#V)"><path d="M1158.53 940q.735 0 1.47.011c-.01 55.224-44.12 99.989-98.53 99.989-.49 0-.98 0-1.47-.01.01-55.224 44.12-99.989 98.53-99.99M1160 1138.53c0 .49 0 .98-.01 1.47-55.22-.01-99.99-44.12-99.99-98.53 0-.49 0-.98.01-1.47 55.22.01 99.99 44.12 99.99 98.53M1060 1038.53c0 .49 0 .98-.01 1.47-55.22-.01-99.99-44.116-99.99-98.529q0-.736.012-1.471c55.218.007 99.988 44.117 99.988 98.53M1058.53 1040c.49 0 .98 0 1.47.01-.01 55.22-44.12 99.99-98.529 99.99-.491 0-.982 0-1.471-.01.006-55.22 44.12-99.99 98.53-99.99"/></g><g fill-opacity=".24" clip-path="url(#W)"><path d="M158.527 940q.736 0 1.47.011c-.006 55.224-44.116 99.989-98.528 99.989-.491 0-.982 0-1.471-.01.006-55.224 44.117-99.989 98.529-99.99M159.998 1138.53q0 .735-.011 1.47c-55.223-.01-99.989-44.12-99.989-98.53q0-.735.012-1.47c55.223.01 99.988 44.12 99.988 98.53M59.998 1038.53q0 .735-.01 1.47c-55.224-.01-99.99-44.116-99.99-98.529q0-.736.012-1.471c55.223.007 99.988 44.117 99.988 98.53M58.527 1040c.491 0 .981 0 1.47.01-.006 55.22-44.115 99.99-98.528 99.99-.491 0-.982 0-1.471-.01.006-55.22 44.117-99.99 98.53-99.99"/></g><g fill-opacity=".24" clip-path="url(#X)"><path d="M1158.53-59.998q.735 0 1.47.01c-.01 55.224-44.12 99.99-98.53 99.99q-.735 0-1.47-.012c.01-55.223 44.12-99.989 98.53-99.989M1160 138.531c0 .49 0 .98-.01 1.469-55.22-.005-99.99-44.115-99.99-98.528 0-.49 0-.981.01-1.47 55.22.006 99.99 44.116 99.99 98.529M1060 38.53c0 .492 0 .981-.01 1.47C1004.77 39.996 960-4.114 960-58.527q0-.736.012-1.47C1015.23-59.992 1060-15.882 1060 38.53M1058.53 40.002q.735 0 1.47.01c-.01 55.224-44.12 99.989-98.529 99.989q-.737 0-1.471-.011c.006-55.223 44.12-99.989 98.53-99.989"/></g><g fill-opacity=".81" clip-path="url(#Y)"><path d="M158.527-59.998q.736 0 1.47.01c-.006 55.224-44.116 99.99-98.528 99.99q-.737 0-1.471-.012C60.004-15.233 104.115-60 158.527-60M159.998 138.531q0 .735-.011 1.469c-55.223-.005-99.989-44.115-99.989-98.528q0-.736.012-1.47c55.223.006 99.988 44.116 99.988 98.529M59.998 38.53q0 .737-.01 1.47c-55.224-.005-99.99-44.115-99.99-98.528q0-.736.012-1.47c55.223.006 99.988 44.116 99.988 98.529M58.527 40.002q.736 0 1.47.01c-.006 55.224-44.115 99.989-98.528 99.989q-.737 0-1.471-.011c.006-55.223 44.117-99.989 98.53-99.989"/></g><g fill-opacity=".24" clip-path="url(#Z)"><path d="M1158.53 340.001q.735 0 1.47.011c-.01 55.224-44.12 99.989-98.53 99.989q-.735 0-1.47-.011c.01-55.223 44.12-99.988 98.53-99.989M1160 538.531c0 .49 0 .98-.01 1.469-55.22-.005-99.99-44.115-99.99-98.528 0-.491 0-.981.01-1.471 55.22.007 99.99 44.117 99.99 98.53M1060 438.531c0 .49 0 .98-.01 1.469-55.22-.005-99.99-44.115-99.99-98.528q0-.736.012-1.471c55.218.007 99.988 44.117 99.988 98.53M1058.53 440.001q.735 0 1.47.011c-.01 55.224-44.12 99.989-98.529 99.989q-.737 0-1.471-.011c.006-55.223 44.12-99.988 98.53-99.989"/></g><g fill-opacity=".24" clip-path="url(#aa)"><path d="M158.527 340.001q.736 0 1.47.011c-.006 55.224-44.116 99.989-98.528 99.989q-.737 0-1.471-.011c.006-55.223 44.117-99.988 98.529-99.989M159.998 538.531q0 .735-.011 1.469c-55.223-.005-99.989-44.115-99.989-98.528q0-.736.012-1.471c55.223.007 99.988 44.117 99.988 98.53M59.998 438.531q0 .735-.01 1.469c-55.224-.005-99.99-44.115-99.99-98.528q0-.736.012-1.471c55.223.007 99.988 44.117 99.988 98.53M58.527 440.001q.736 0 1.47.011c-.006 55.224-44.115 99.989-98.528 99.989q-.737 0-1.471-.011c.006-55.223 44.117-99.988 98.53-99.989"/></g><g fill-opacity=".24" clip-path="url(#ab)"><path d="M1158.53 740.001q.735 0 1.47.011c-.01 55.224-44.12 99.989-98.53 99.989q-.735 0-1.47-.011c.01-55.223 44.12-99.988 98.53-99.989M1160 938.531c0 .49 0 .98-.01 1.469-55.22-.005-99.99-44.115-99.99-98.528 0-.491 0-.981.01-1.471 55.22.007 99.99 44.117 99.99 98.53M1060 838.531c0 .49 0 .98-.01 1.469-55.22-.005-99.99-44.115-99.99-98.528q0-.736.012-1.471c55.218.007 99.988 44.117 99.988 98.53M1058.53 840.001q.735 0 1.47.011c-.01 55.224-44.12 99.989-98.529 99.989q-.737 0-1.471-.011c.006-55.223 44.12-99.988 98.53-99.989"/></g><g fill-opacity=".81" clip-path="url(#ac)"><path d="M158.527 740.001q.736 0 1.47.011c-.006 55.224-44.116 99.989-98.528 99.989q-.737 0-1.471-.011c.006-55.223 44.117-99.988 98.529-99.989M159.998 938.531q0 .735-.011 1.469c-55.223-.005-99.989-44.115-99.989-98.528q0-.736.012-1.471c55.223.007 99.988 44.117 99.988 98.53M59.998 838.531q0 .735-.01 1.469c-55.224-.005-99.99-44.115-99.99-98.528q0-.736.012-1.471c55.223.007 99.988 44.117 99.988 98.53M58.527 840.001q.736 0 1.47.011c-.006 55.224-44.115 99.989-98.528 99.989q-.737 0-1.471-.011c.006-55.223 44.117-99.988 98.53-99.989"/></g><g fill-opacity=".24" clip-path="url(#ad)"><path d="M1358.53 140q.735 0 1.47.011c-.01 55.224-44.12 99.989-98.53 99.989q-.735 0-1.47-.011c.01-55.223 44.12-99.988 98.53-99.989M1360 338.53c0 .491 0 .98-.01 1.47-55.22-.006-99.99-44.116-99.99-98.529 0-.491 0-.981.01-1.471 55.22.007 99.99 44.117 99.99 98.53M1260 238.53c0 .491 0 .98-.01 1.47-55.22-.006-99.99-44.116-99.99-98.529 0-.491 0-.981.01-1.471 55.22.007 99.99 44.117 99.99 98.53M1258.53 240q.735 0 1.47.011c-.01 55.224-44.12 99.989-98.53 99.989q-.735 0-1.47-.011c.01-55.223 44.12-99.988 98.53-99.989"/></g><g fill-opacity=".81" clip-path="url(#ae)"><path d="M358.527 140q.736 0 1.47.011C359.991 195.235 315.881 240 261.469 240q-.737 0-1.471-.011c.006-55.223 44.117-99.988 98.529-99.989M359.998 338.53q0 .736-.011 1.47c-55.223-.006-99.989-44.116-99.989-98.529q0-.736.012-1.471c55.223.007 99.988 44.117 99.988 98.53M259.998 238.53q0 .736-.011 1.47c-55.223-.006-99.989-44.116-99.989-98.529q0-.736.012-1.471c55.223.007 99.988 44.117 99.988 98.53M258.527 240q.736 0 1.47.011C259.991 295.235 215.881 340 161.469 340q-.737 0-1.471-.011c.006-55.223 44.117-99.988 98.529-99.989"/></g><g fill-opacity=".24" clip-path="url(#af)"><path d="M1358.53 540q.735 0 1.47.011c-.01 55.224-44.12 99.989-98.53 99.989q-.735 0-1.47-.011c.01-55.223 44.12-99.988 98.53-99.989M1360 738.53c0 .491 0 .98-.01 1.47-55.22-.006-99.99-44.116-99.99-98.529 0-.491 0-.981.01-1.471 55.22.007 99.99 44.117 99.99 98.53M1260 638.53c0 .491 0 .98-.01 1.47-55.22-.006-99.99-44.116-99.99-98.529 0-.491 0-.981.01-1.471 55.22.007 99.99 44.117 99.99 98.53M1258.53 640q.735 0 1.47.011c-.01 55.224-44.12 99.989-98.53 99.989q-.735 0-1.47-.011c.01-55.223 44.12-99.988 98.53-99.989"/></g><g fill-opacity=".81" clip-path="url(#ag)"><path d="M358.527 540q.736 0 1.47.011C359.991 595.235 315.881 640 261.469 640q-.737 0-1.471-.011c.006-55.223 44.117-99.988 98.529-99.989M359.998 738.53q0 .736-.011 1.47c-55.223-.006-99.989-44.116-99.989-98.529q0-.736.012-1.471c55.223.007 99.988 44.117 99.988 98.53M259.998 638.53q0 .736-.011 1.47c-55.223-.006-99.989-44.116-99.989-98.529q0-.736.012-1.471c55.223.007 99.988 44.117 99.988 98.53M258.527 640q.736 0 1.47.011C259.991 695.235 215.881 740 161.469 740q-.737 0-1.471-.011c.006-55.223 44.117-99.988 98.529-99.989"/></g><g fill-opacity=".24" clip-path="url(#ah)"><path d="M1358.53 940q.735 0 1.47.011c-.01 55.224-44.12 99.989-98.53 99.989-.49 0-.98 0-1.47-.01.01-55.224 44.12-99.989 98.53-99.99M1360 1138.53c0 .49 0 .98-.01 1.47-55.22-.01-99.99-44.12-99.99-98.53 0-.49 0-.98.01-1.47 55.22.01 99.99 44.12 99.99 98.53M1260 1038.53c0 .49 0 .98-.01 1.47-55.22-.01-99.99-44.116-99.99-98.529 0-.491 0-.981.01-1.471 55.22.007 99.99 44.117 99.99 98.53M1258.53 1040c.49 0 .98 0 1.47.01-.01 55.22-44.12 99.99-98.53 99.99-.49 0-.98 0-1.47-.01.01-55.22 44.12-99.99 98.53-99.99"/></g><g fill-opacity=".81" clip-path="url(#ai)"><path d="M358.527 940q.736 0 1.47.011c-.006 55.224-44.116 99.989-98.528 99.989-.491 0-.982 0-1.471-.01.006-55.224 44.117-99.989 98.529-99.99M359.998 1138.53q0 .735-.011 1.47c-55.223-.01-99.989-44.12-99.989-98.53q0-.735.012-1.47c55.223.01 99.988 44.12 99.988 98.53M259.998 1038.53q0 .735-.011 1.47c-55.223-.01-99.989-44.116-99.989-98.529q0-.736.012-1.471c55.223.007 99.988 44.117 99.988 98.53M258.527 1040c.491 0 .981 0 1.47.01-.006 55.22-44.116 99.99-98.528 99.99-.491 0-.982 0-1.471-.01.006-55.22 44.117-99.99 98.529-99.99"/></g></g><defs><clipPath id="a"><path fill="#fff" d="M0 0h1920v1080H0z"/></clipPath><clipPath id="b"><path fill="#fff" d="M1760-60h200v200h-200z"/></clipPath><clipPath id="c"><path fill="#fff" d="M760-60h200v200H760z"/></clipPath><clipPath id="d"><path fill="#fff" d="M1760 340h200v200h-200z"/></clipPath><clipPath id="e"><path fill="#fff" d="M760 340h200v200H760z"/></clipPath><clipPath id="f"><path fill="#fff" d="M1760 740h200v200h-200z"/></clipPath><clipPath id="g"><path fill="#fff" d="M760 740h200v200H760z"/></clipPath><clipPath id="h"><path fill="#fff" d="M1760 140h200v200h-200z"/></clipPath><clipPath id="i"><path fill="#fff" d="M760 140h200v200H760z"/></clipPath><clipPath id="j"><path fill="#fff" d="M1760 540h200v200h-200z"/></clipPath><clipPath id="k"><path fill="#fff" d="M760 540h200v200H760z"/></clipPath><clipPath id="l"><path fill="#fff" d="M1760 940h200v200h-200z"/></clipPath><clipPath id="m"><path fill="#fff" d="M760 940h200v200H760z"/></clipPath><clipPath id="n"><path fill="#fff" d="M1360-60h200v200h-200z"/></clipPath><clipPath id="o"><path fill="#fff" d="M360-60h200v200H360z"/></clipPath><clipPath id="p"><path fill="#fff" d="M1360 340h200v200h-200z"/></clipPath><clipPath id="q"><path fill="#fff" d="M360 340h200v200H360z"/></clipPath><clipPath id="r"><path fill="#fff" d="M1360 740h200v200h-200z"/></clipPath><clipPath id="s"><path fill="#fff" d="M360 740h200v200H360z"/></clipPath><clipPath id="t"><path fill="#fff" d="M1360 140h200v200h-200z"/></clipPath><clipPath id="u"><path fill="#fff" d="M360 140h200v200H360z"/></clipPath><clipPath id="v"><path fill="#fff" d="M1360 540h200v200h-200z"/></clipPath><clipPath id="w"><path fill="#fff" d="M360 540h200v200H360z"/></clipPath><clipPath id="x"><path fill="#fff" d="M1360 940h200v200h-200z"/></clipPath><clipPath id="y"><path fill="#fff" d="M360 940h200v200H360z"/></clipPath><clipPath id="z"><path fill="#fff" d="M1560-60h200v200h-200z"/></clipPath><clipPath id="A"><path fill="#fff" d="M560-60h200v200H560z"/></clipPath><clipPath id="B"><path fill="#fff" d="M1560 340h200v200h-200z"/></clipPath><clipPath id="C"><path fill="#fff" d="M560 340h200v200H560z"/></clipPath><clipPath id="D"><path fill="#fff" d="M1560 740h200v200h-200z"/></clipPath><clipPath id="E"><path fill="#fff" d="M560 740h200v200H560z"/></clipPath><clipPath id="F"><path fill="#fff" d="M1560 140h200v200h-200z"/></clipPath><clipPath id="G"><path fill="#fff" d="M560 140h200v200H560z"/></clipPath><clipPath id="H"><path fill="#fff" d="M1560 540h200v200h-200z"/></clipPath><clipPath id="I"><path fill="#fff" d="M560 540h200v200H560z"/></clipPath><clipPath id="J"><path fill="#fff" d="M1560 940h200v200h-200z"/></clipPath><clipPath id="K"><path fill="#fff" d="M560 940h200v200H560z"/></clipPath><clipPath id="L"><path fill="#fff" d="M1160-60h200v200h-200z"/></clipPath><clipPath id="M"><path fill="#fff" d="M159.998-60h200v200h-200z"/></clipPath><clipPath id="N"><path fill="#fff" d="M1160 340h200v200h-200z"/></clipPath><clipPath id="O"><path fill="#fff" d="M159.998 340h200v200h-200z"/></clipPath><clipPath id="P"><path fill="#fff" d="M1160 740h200v200h-200z"/></clipPath><clipPath id="Q"><path fill="#fff" d="M159.998 740h200v200h-200z"/></clipPath><clipPath id="R"><path fill="#fff" d="M960 140h200v200H960z"/></clipPath><clipPath id="S"><path fill="#fff" d="M-40.002 140h200v200h-200z"/></clipPath><clipPath id="T"><path fill="#fff" d="M960 540h200v200H960z"/></clipPath><clipPath id="U"><path fill="#fff" d="M-40.002 540h200v200h-200z"/></clipPath><clipPath id="V"><path fill="#fff" d="M960 940h200v200H960z"/></clipPath><clipPath id="W"><path fill="#fff" d="M-40.002 940h200v200h-200z"/></clipPath><clipPath id="X"><path fill="#fff" d="M960-59.998h200v200H960z"/></clipPath><clipPath id="Y"><path fill="#fff" d="M-40.002-59.998h200v200h-200z"/></clipPath><clipPath id="Z"><path fill="#fff" d="M960 340.001h200v200H960z"/></clipPath><clipPath id="aa"><path fill="#fff" d="M-40.002 340.001h200v200h-200z"/></clipPath><clipPath id="ab"><path fill="#fff" d="M960 740.001h200v200H960z"/></clipPath><clipPath id="ac"><path fill="#fff" d="M-40.002 740.001h200v200h-200z"/></clipPath><clipPath id="ad"><path fill="#fff" d="M1160 140h200v200h-200z"/></clipPath><clipPath id="ae"><path fill="#fff" d="M159.998 140h200v200h-200z"/></clipPath><clipPath id="af"><path fill="#fff" d="M1160 540h200v200h-200z"/></clipPath><clipPath id="ag"><path fill="#fff" d="M159.998 540h200v200h-200z"/></clipPath><clipPath id="ah"><path fill="#fff" d="M1160 940h200v200h-200z"/></clipPath><clipPath id="ai"><path fill="#fff" d="M159.998 940h200v200h-200z"/></clipPath></defs></svg>