<svg xmlns="http://www.w3.org/2000/svg" width="800" height="600" fill="none" viewBox="0 0 800 600"><g stroke="#f0d6c2" stroke-width="2" clip-path="url(#a)"><circle cx="682" cy="503" r="66.667" transform="rotate(180 682 503)"/><circle cx="616.666" cy="436.333" r="66.667" transform="rotate(180 616.666 436.333)"/><circle cx="682" cy="232.5" r="66.667" transform="rotate(180 682 232.5)"/><circle cx="616.666" cy="165.833" r="66.667" transform="rotate(180 616.666 165.833)"/><circle cx="547" cy="503" r="66.667" transform="rotate(180 547 503)"/><circle cx="481.666" cy="436.333" r="66.667" transform="rotate(180 481.666 436.333)"/><circle cx="547" cy="232.5" r="66.667" transform="rotate(180 547 232.5)"/><circle cx="481.666" cy="165.833" r="66.667" transform="rotate(180 481.666 165.833)"/><circle cx="412" cy="503" r="66.667" transform="rotate(180 412 503)"/><circle cx="346.666" cy="436.333" r="66.667" transform="rotate(180 346.666 436.333)"/><circle cx="277" cy="503" r="66.667" transform="rotate(180 277 503)"/><circle cx="817" cy="503" r="66.667" transform="rotate(180 817 503)"/><circle cx="751.666" cy="436.333" r="66.667" transform="rotate(180 751.666 436.333)"/><circle cx="817" cy="232.5" r="66.667" transform="rotate(180 817 232.5)"/><circle cx="751.666" cy="165.833" r="66.667" transform="rotate(180 751.666 165.833)"/><circle cx="682" cy="638" r="66.667" transform="rotate(180 682 638)"/><circle cx="616.666" cy="571.333" r="66.667" transform="rotate(180 616.666 571.333)"/><circle cx="682" cy="367.5" r="66.667" transform="rotate(180 682 367.5)"/><circle cx="616.666" cy="300.833" r="66.667" transform="rotate(180 616.666 300.833)"/><circle cx="547" cy="638" r="66.667" transform="rotate(180 547 638)"/><circle cx="481.666" cy="571.333" r="66.667" transform="rotate(180 481.666 571.333)"/><circle cx="547" cy="367.5" r="66.667" transform="rotate(180 547 367.5)"/><circle cx="481.666" cy="300.833" r="66.667" transform="rotate(180 481.666 300.833)"/><circle cx="412" cy="638" r="66.667" transform="rotate(180 412 638)"/><circle cx="346.666" cy="571.333" r="66.667" transform="rotate(180 346.666 571.333)"/><circle cx="412" cy="367.5" r="66.667" transform="rotate(180 412 367.5)"/><circle cx="346.666" cy="300.833" r="66.667" transform="rotate(180 346.666 300.833)"/><circle cx="277" cy="638" r="66.667" transform="rotate(180 277 638)"/><circle cx="211.666" cy="571.333" r="66.667" transform="rotate(180 211.666 571.333)"/><circle cx="817" cy="638" r="66.667" transform="rotate(180 817 638)"/><circle cx="751.666" cy="571.333" r="66.667" transform="rotate(180 751.666 571.333)"/><circle cx="817" cy="367.5" r="66.667" transform="rotate(180 817 367.5)"/><circle cx="751.666" cy="300.833" r="66.667" transform="rotate(180 751.666 300.833)"/></g><defs><clipPath id="a"><path fill="#fff" d="M800 600H0V0h800z"/></clipPath></defs></svg>