<svg xmlns="http://www.w3.org/2000/svg" width="1920" height="1080" fill="none" viewBox="0 0 1920 1080"><g clip-path="url(#a)"><path fill="#fff" d="M0 0h1920v1080H0z"/><path fill="#f69930" d="M0 0h480v480H0zM0 480h480v480H0z"/><path fill="#fde8d0" d="M0 960h480v480H0z"/><path fill="#f69930" d="M0 480h480v480H0z"/><path fill="#fde8d0" d="M0 960h480v480H0z"/><path fill="#f69930" d="M480 0h480v480H480zM480 480h480v480H480z"/><path fill="#fde8d0" d="M480 960h480v480H480z"/><path fill="#f69930" d="M480 480h480v480H480z"/><path fill="#fde8d0" d="M480 960h480v480H480z"/><path fill="#f69930" d="M960 0h480v480H960zM960 480h480v480H960z"/><path fill="#fde8d0" d="M960 960h480v480H960z"/><path fill="#f69930" d="M960 480h480v480H960z"/><path fill="#fde8d0" d="M960 960h480v480H960z"/><path fill="#f69930" d="M1440 0h480v480h-480zM1440 480h480v480h-480z"/><path fill="#fde8d0" d="M1440 960h480v480h-480z"/><path fill="#f69930" d="M1440 480h480v480h-480z"/><path fill="#fde8d0" d="M1440 960h480v480h-480z"/><g clip-path="url(#b)"><path fill="#b84f4f" d="M0 0h480v480H0z"/><path fill="#ff8282" d="m360 0 60 120H300z"/><path fill="#cc5944" d="M420 120 360 0h120z"/><path fill="#fde8d0" d="M300 120 240 0h120zM480 0l60 120H420z"/><path fill="#ff8282" d="m180 120 60 120H120z"/><path fill="#cc5944" d="m240 240-60-120h120z"/><path fill="#fde8d0" d="M120 240 60 120h120zM300 120l60 120H240z"/><path fill="#ff8282" d="m240 240 60 120H180z"/><path fill="#cc5944" d="m300 360-60-120h120z"/><path fill="#fde8d0" d="m180 360-60-120h120zM360 240l60 120H300z"/><path fill="#ff8282" d="m120 360 60 120H60z"/><path fill="#cc5944" d="m180 480-60-120h120z"/><path fill="#fde8d0" d="M60 480 0 360h120zM240 360l60 120H180z"/><path fill="#ff8282" d="m60 360 60 120H0z"/><path fill="#cc5944" d="M120 480 60 360h120z"/><path fill="#fde8d0" d="m0 480-60-120H60zM180 360l60 120H120z"/><path fill="#ff8282" d="m420 120 60 120H360z"/><path fill="#cc5944" d="m480 240-60-120h120z"/><path fill="#fde8d0" d="m360 240-60-120h120zM540 120l60 120H480z"/><path fill="#ff8282" d="m480 240 60 120H420z"/><path fill="#cc5944" d="m540 360-60-120h120z"/><path fill="#fde8d0" d="m420 360-60-120h120z"/><path fill="#ff8282" d="m300 360 60 120H240z"/><path fill="#cc5944" d="m360 480-60-120h120z"/><path fill="#fde8d0" d="m240 480-60-120h120zM420 360l60 120H360z"/><path fill="#cc5944" d="m0 240-60-120H60z"/><path fill="#fde8d0" d="m60 120 60 120H0z"/><path fill="#ff8282" d="m0 240 60 120H-60z"/><path fill="#cc5944" d="M60 360 0 240h120z"/><path fill="#fde8d0" d="m120 240 60 120H60zM0 0l60 120H-60z"/><path fill="#ff8282" d="m540 360 60 120H480z"/><path fill="#fde8d0" d="m480 480-60-120h120z"/><path fill="#ff8282" d="m120 0 60 120H60z"/><path fill="#cc5944" d="M180 120 120 0h120z"/><path fill="#fde8d0" d="M60 120 0 0h120zM240 0l60 120H180z"/></g><g clip-path="url(#c)"><path fill="#b84f4f" d="M0 480h480v480H0z"/><path fill="#ff8282" d="m360 480 60 120H300z"/><path fill="#cc5944" d="m420 600-60-120h120z"/><path fill="#fde8d0" d="m300 600-60-120h120zM480 480l60 120H420z"/><path fill="#ff8282" d="m180 600 60 120H120z"/><path fill="#cc5944" d="m240 720-60-120h120z"/><path fill="#fde8d0" d="M120 720 60 600h120zM300 600l60 120H240z"/><path fill="#ff8282" d="m240 720 60 120H180z"/><path fill="#cc5944" d="m300 840-60-120h120z"/><path fill="#fde8d0" d="m180 840-60-120h120zM360 720l60 120H300z"/><path fill="#ff8282" d="m120 840 60 120H60z"/><path fill="#cc5944" d="m180 960-60-120h120z"/><path fill="#fde8d0" d="M60 960 0 840h120zM240 840l60 120H180z"/><path fill="#ff8282" d="m60 840 60 120H0z"/><path fill="#cc5944" d="M120 960 60 840h120z"/><path fill="#fde8d0" d="m0 960-60-120H60zM180 840l60 120H120z"/><path fill="#ff8282" d="m420 600 60 120H360z"/><path fill="#cc5944" d="m480 720-60-120h120z"/><path fill="#fde8d0" d="m360 720-60-120h120zM540 600l60 120H480z"/><path fill="#ff8282" d="m480 720 60 120H420z"/><path fill="#cc5944" d="m540 840-60-120h120z"/><path fill="#fde8d0" d="m420 840-60-120h120z"/><path fill="#ff8282" d="m300 840 60 120H240z"/><path fill="#cc5944" d="m360 960-60-120h120z"/><path fill="#fde8d0" d="m240 960-60-120h120zM420 840l60 120H360z"/><path fill="#cc5944" d="m0 720-60-120H60z"/><path fill="#fde8d0" d="m60 600 60 120H0z"/><path fill="#ff8282" d="m0 720 60 120H-60z"/><path fill="#cc5944" d="M60 840 0 720h120z"/><path fill="#fde8d0" d="m120 720 60 120H60zM0 480l60 120H-60z"/><path fill="#ff8282" d="m540 840 60 120H480z"/><path fill="#fde8d0" d="m480 960-60-120h120z"/><path fill="#ff8282" d="m120 480 60 120H60z"/><path fill="#cc5944" d="m180 600-60-120h120z"/><path fill="#fde8d0" d="M60 600 0 480h120zM240 480l60 120H180z"/></g><g clip-path="url(#d)"><path fill="#b84f4f" d="M0 960h480v480H0z"/><path fill="#ff8282" d="m360 960 60 120H300z"/><path fill="#cc5944" d="m420 1080-60-120h120z"/><path fill="#fde8d0" d="m300 1080-60-120h120zM480 960l60 120H420zM0 960l60 120H-60z"/><path fill="#ff8282" d="m120 960 60 120H60z"/><path fill="#cc5944" d="m180 1080-60-120h120z"/><path fill="#fde8d0" d="M60 1080 0 960h120zM240 960l60 120H180z"/></g><g clip-path="url(#e)"><path fill="#b84f4f" d="M480 0h480v480H480z"/><path fill="#ff8282" d="m840 0 60 120H780z"/><path fill="#cc5944" d="M900 120 840 0h120z"/><path fill="#fde8d0" d="M780 120 720 0h120zM960 0l60 120H900z"/><path fill="#ff8282" d="m660 120 60 120H600z"/><path fill="#cc5944" d="m720 240-60-120h120z"/><path fill="#fde8d0" d="m600 240-60-120h120zM780 120l60 120H720z"/><path fill="#ff8282" d="m720 240 60 120H660z"/><path fill="#cc5944" d="m780 360-60-120h120z"/><path fill="#fde8d0" d="m660 360-60-120h120zM840 240l60 120H780z"/><path fill="#ff8282" d="m600 360 60 120H540z"/><path fill="#cc5944" d="m660 480-60-120h120z"/><path fill="#fde8d0" d="m540 480-60-120h120zM720 360l60 120H660z"/><path fill="#ff8282" d="m540 360 60 120H480z"/><path fill="#cc5944" d="m600 480-60-120h120z"/><path fill="#fde8d0" d="m480 480-60-120h120zM660 360l60 120H600z"/><path fill="#ff8282" d="m900 120 60 120H840z"/><path fill="#cc5944" d="m960 240-60-120h120z"/><path fill="#fde8d0" d="m840 240-60-120h120zM1020 120l60 120H960z"/><path fill="#ff8282" d="m960 240 60 120H900z"/><path fill="#cc5944" d="m1020 360-60-120h120z"/><path fill="#fde8d0" d="m900 360-60-120h120z"/><path fill="#ff8282" d="m780 360 60 120H720z"/><path fill="#cc5944" d="m840 480-60-120h120z"/><path fill="#fde8d0" d="m720 480-60-120h120zM900 360l60 120H840z"/><path fill="#cc5944" d="m480 240-60-120h120z"/><path fill="#fde8d0" d="m540 120 60 120H480z"/><path fill="#ff8282" d="m480 240 60 120H420z"/><path fill="#cc5944" d="m540 360-60-120h120z"/><path fill="#fde8d0" d="m600 240 60 120H540zM480 0l60 120H420z"/><path fill="#ff8282" d="m1020 360 60 120H960z"/><path fill="#fde8d0" d="m960 480-60-120h120z"/><path fill="#ff8282" d="m600 0 60 120H540z"/><path fill="#cc5944" d="M660 120 600 0h120z"/><path fill="#fde8d0" d="M540 120 480 0h120zM720 0l60 120H660z"/></g><g clip-path="url(#f)"><path fill="#b84f4f" d="M480 480h480v480H480z"/><path fill="#ff8282" d="m840 480 60 120H780z"/><path fill="#cc5944" d="m900 600-60-120h120z"/><path fill="#fde8d0" d="m780 600-60-120h120zM960 480l60 120H900z"/><path fill="#ff8282" d="m660 600 60 120H600z"/><path fill="#cc5944" d="m720 720-60-120h120z"/><path fill="#fde8d0" d="m600 720-60-120h120zM780 600l60 120H720z"/><path fill="#ff8282" d="m720 720 60 120H660z"/><path fill="#cc5944" d="m780 840-60-120h120z"/><path fill="#fde8d0" d="m660 840-60-120h120zM840 720l60 120H780z"/><path fill="#ff8282" d="m600 840 60 120H540z"/><path fill="#cc5944" d="m660 960-60-120h120z"/><path fill="#fde8d0" d="m540 960-60-120h120zM720 840l60 120H660z"/><path fill="#ff8282" d="m540 840 60 120H480z"/><path fill="#cc5944" d="m600 960-60-120h120z"/><path fill="#fde8d0" d="m480 960-60-120h120zM660 840l60 120H600z"/><path fill="#ff8282" d="m900 600 60 120H840z"/><path fill="#cc5944" d="m960 720-60-120h120z"/><path fill="#fde8d0" d="m840 720-60-120h120zM1020 600l60 120H960z"/><path fill="#ff8282" d="m960 720 60 120H900z"/><path fill="#cc5944" d="m1020 840-60-120h120z"/><path fill="#fde8d0" d="m900 840-60-120h120z"/><path fill="#ff8282" d="m780 840 60 120H720z"/><path fill="#cc5944" d="m840 960-60-120h120z"/><path fill="#fde8d0" d="m720 960-60-120h120zM900 840l60 120H840z"/><path fill="#cc5944" d="m480 720-60-120h120z"/><path fill="#fde8d0" d="m540 600 60 120H480z"/><path fill="#ff8282" d="m480 720 60 120H420z"/><path fill="#cc5944" d="m540 840-60-120h120z"/><path fill="#fde8d0" d="m600 720 60 120H540zM480 480l60 120H420z"/><path fill="#ff8282" d="m1020 840 60 120H960z"/><path fill="#fde8d0" d="m960 960-60-120h120z"/><path fill="#ff8282" d="m600 480 60 120H540z"/><path fill="#cc5944" d="m660 600-60-120h120z"/><path fill="#fde8d0" d="m540 600-60-120h120zM720 480l60 120H660z"/></g><g clip-path="url(#g)"><path fill="#b84f4f" d="M480 960h480v480H480z"/><path fill="#ff8282" d="m840 960 60 120H780z"/><path fill="#cc5944" d="m900 1080-60-120h120z"/><path fill="#fde8d0" d="m780 1080-60-120h120zM960 960l60 120H900zM480 960l60 120H420z"/><path fill="#ff8282" d="m600 960 60 120H540z"/><path fill="#cc5944" d="m660 1080-60-120h120z"/><path fill="#fde8d0" d="m540 1080-60-120h120zM720 960l60 120H660z"/></g><g clip-path="url(#h)"><path fill="#b84f4f" d="M960 0h480v480H960z"/><path fill="#ff8282" d="m1320 0 60 120h-120z"/><path fill="#cc5944" d="M1380 120 1320 0h120z"/><path fill="#fde8d0" d="M1260 120 1200 0h120zM1440 0l60 120h-120z"/><path fill="#ff8282" d="m1140 120 60 120h-120z"/><path fill="#cc5944" d="m1200 240-60-120h120z"/><path fill="#fde8d0" d="m1080 240-60-120h120zM1260 120l60 120h-120z"/><path fill="#ff8282" d="m1200 240 60 120h-120z"/><path fill="#cc5944" d="m1260 360-60-120h120z"/><path fill="#fde8d0" d="m1140 360-60-120h120zM1320 240l60 120h-120z"/><path fill="#ff8282" d="m1080 360 60 120h-120z"/><path fill="#cc5944" d="m1140 480-60-120h120z"/><path fill="#fde8d0" d="m1020 480-60-120h120zM1200 360l60 120h-120z"/><path fill="#ff8282" d="m1020 360 60 120H960z"/><path fill="#cc5944" d="m1080 480-60-120h120z"/><path fill="#fde8d0" d="m960 480-60-120h120zM1140 360l60 120h-120z"/><path fill="#ff8282" d="m1380 120 60 120h-120z"/><path fill="#cc5944" d="m1440 240-60-120h120z"/><path fill="#fde8d0" d="m1320 240-60-120h120zM1500 120l60 120h-120z"/><path fill="#ff8282" d="m1440 240 60 120h-120z"/><path fill="#cc5944" d="m1500 360-60-120h120z"/><path fill="#fde8d0" d="m1380 360-60-120h120z"/><path fill="#ff8282" d="m1260 360 60 120h-120z"/><path fill="#cc5944" d="m1320 480-60-120h120z"/><path fill="#fde8d0" d="m1200 480-60-120h120zM1380 360l60 120h-120z"/><path fill="#cc5944" d="m960 240-60-120h120z"/><path fill="#fde8d0" d="m1020 120 60 120H960z"/><path fill="#ff8282" d="m960 240 60 120H900z"/><path fill="#cc5944" d="m1020 360-60-120h120z"/><path fill="#fde8d0" d="m1080 240 60 120h-120zM960 0l60 120H900z"/><path fill="#ff8282" d="m1500 360 60 120h-120z"/><path fill="#fde8d0" d="m1440 480-60-120h120z"/><path fill="#ff8282" d="m1080 0 60 120h-120z"/><path fill="#cc5944" d="M1140 120 1080 0h120z"/><path fill="#fde8d0" d="M1020 120 960 0h120zM1200 0l60 120h-120z"/></g><g clip-path="url(#i)"><path fill="#b84f4f" d="M960 480h480v480H960z"/><path fill="#ff8282" d="m1320 480 60 120h-120z"/><path fill="#cc5944" d="m1380 600-60-120h120z"/><path fill="#fde8d0" d="m1260 600-60-120h120zM1440 480l60 120h-120z"/><path fill="#ff8282" d="m1140 600 60 120h-120z"/><path fill="#cc5944" d="m1200 720-60-120h120z"/><path fill="#fde8d0" d="m1080 720-60-120h120zM1260 600l60 120h-120z"/><path fill="#ff8282" d="m1200 720 60 120h-120z"/><path fill="#cc5944" d="m1260 840-60-120h120z"/><path fill="#fde8d0" d="m1140 840-60-120h120zM1320 720l60 120h-120z"/><path fill="#ff8282" d="m1080 840 60 120h-120z"/><path fill="#cc5944" d="m1140 960-60-120h120z"/><path fill="#fde8d0" d="m1020 960-60-120h120zM1200 840l60 120h-120z"/><path fill="#ff8282" d="m1020 840 60 120H960z"/><path fill="#cc5944" d="m1080 960-60-120h120z"/><path fill="#fde8d0" d="m960 960-60-120h120zM1140 840l60 120h-120z"/><path fill="#ff8282" d="m1380 600 60 120h-120z"/><path fill="#cc5944" d="m1440 720-60-120h120z"/><path fill="#fde8d0" d="m1320 720-60-120h120zM1500 600l60 120h-120z"/><path fill="#ff8282" d="m1440 720 60 120h-120z"/><path fill="#cc5944" d="m1500 840-60-120h120z"/><path fill="#fde8d0" d="m1380 840-60-120h120z"/><path fill="#ff8282" d="m1260 840 60 120h-120z"/><path fill="#cc5944" d="m1320 960-60-120h120z"/><path fill="#fde8d0" d="m1200 960-60-120h120zM1380 840l60 120h-120z"/><path fill="#cc5944" d="m960 720-60-120h120z"/><path fill="#fde8d0" d="m1020 600 60 120H960z"/><path fill="#ff8282" d="m960 720 60 120H900z"/><path fill="#cc5944" d="m1020 840-60-120h120z"/><path fill="#fde8d0" d="m1080 720 60 120h-120zM960 480l60 120H900z"/><path fill="#ff8282" d="m1500 840 60 120h-120z"/><path fill="#fde8d0" d="m1440 960-60-120h120z"/><path fill="#ff8282" d="m1080 480 60 120h-120z"/><path fill="#cc5944" d="m1140 600-60-120h120z"/><path fill="#fde8d0" d="m1020 600-60-120h120zM1200 480l60 120h-120z"/></g><g clip-path="url(#j)"><path fill="#b84f4f" d="M960 960h480v480H960z"/><path fill="#ff8282" d="m1320 960 60 120h-120z"/><path fill="#cc5944" d="m1380 1080-60-120h120z"/><path fill="#fde8d0" d="m1260 1080-60-120h120zM1440 960l60 120h-120zM960 960l60 120H900z"/><path fill="#ff8282" d="m1080 960 60 120h-120z"/><path fill="#cc5944" d="m1140 1080-60-120h120z"/><path fill="#fde8d0" d="m1020 1080-60-120h120zM1200 960l60 120h-120z"/></g><g clip-path="url(#k)"><path fill="#b84f4f" d="M1440 0h480v480h-480z"/><path fill="#ff8282" d="m1800 0 60 120h-120z"/><path fill="#cc5944" d="M1860 120 1800 0h120z"/><path fill="#fde8d0" d="M1740 120 1680 0h120zM1920 0l60 120h-120z"/><path fill="#ff8282" d="m1620 120 60 120h-120z"/><path fill="#cc5944" d="m1680 240-60-120h120z"/><path fill="#fde8d0" d="m1560 240-60-120h120zM1740 120l60 120h-120z"/><path fill="#ff8282" d="m1680 240 60 120h-120z"/><path fill="#cc5944" d="m1740 360-60-120h120z"/><path fill="#fde8d0" d="m1620 360-60-120h120zM1800 240l60 120h-120z"/><path fill="#ff8282" d="m1560 360 60 120h-120z"/><path fill="#cc5944" d="m1620 480-60-120h120z"/><path fill="#fde8d0" d="m1500 480-60-120h120zM1680 360l60 120h-120z"/><path fill="#ff8282" d="m1500 360 60 120h-120z"/><path fill="#cc5944" d="m1560 480-60-120h120z"/><path fill="#fde8d0" d="m1440 480-60-120h120zM1620 360l60 120h-120z"/><path fill="#ff8282" d="m1860 120 60 120h-120z"/><path fill="#cc5944" d="m1920 240-60-120h120z"/><path fill="#fde8d0" d="m1800 240-60-120h120z"/><path fill="#ff8282" d="m1920 240 60 120h-120z"/><path fill="#fde8d0" d="m1860 360-60-120h120z"/><path fill="#ff8282" d="m1740 360 60 120h-120z"/><path fill="#cc5944" d="m1800 480-60-120h120z"/><path fill="#fde8d0" d="m1680 480-60-120h120zM1860 360l60 120h-120z"/><path fill="#cc5944" d="m1440 240-60-120h120z"/><path fill="#fde8d0" d="m1500 120 60 120h-120z"/><path fill="#ff8282" d="m1440 240 60 120h-120z"/><path fill="#cc5944" d="m1500 360-60-120h120z"/><path fill="#fde8d0" d="m1560 240 60 120h-120zM1440 0l60 120h-120zM1920 480l-60-120h120z"/><path fill="#ff8282" d="m1560 0 60 120h-120z"/><path fill="#cc5944" d="M1620 120 1560 0h120z"/><path fill="#fde8d0" d="M1500 120 1440 0h120zM1680 0l60 120h-120z"/></g><g clip-path="url(#l)"><path fill="#b84f4f" d="M1440 480h480v480h-480z"/><path fill="#ff8282" d="m1800 480 60 120h-120z"/><path fill="#cc5944" d="m1860 600-60-120h120z"/><path fill="#fde8d0" d="m1740 600-60-120h120zM1920 480l60 120h-120z"/><path fill="#ff8282" d="m1620 600 60 120h-120z"/><path fill="#cc5944" d="m1680 720-60-120h120z"/><path fill="#fde8d0" d="m1560 720-60-120h120zM1740 600l60 120h-120z"/><path fill="#ff8282" d="m1680 720 60 120h-120z"/><path fill="#cc5944" d="m1740 840-60-120h120z"/><path fill="#fde8d0" d="m1620 840-60-120h120zM1800 720l60 120h-120z"/><path fill="#ff8282" d="m1560 840 60 120h-120z"/><path fill="#cc5944" d="m1620 960-60-120h120z"/><path fill="#fde8d0" d="m1500 960-60-120h120zM1680 840l60 120h-120z"/><path fill="#ff8282" d="m1500 840 60 120h-120z"/><path fill="#cc5944" d="m1560 960-60-120h120z"/><path fill="#fde8d0" d="m1440 960-60-120h120zM1620 840l60 120h-120z"/><path fill="#ff8282" d="m1860 600 60 120h-120z"/><path fill="#cc5944" d="m1920 720-60-120h120z"/><path fill="#fde8d0" d="m1800 720-60-120h120z"/><path fill="#ff8282" d="m1920 720 60 120h-120z"/><path fill="#fde8d0" d="m1860 840-60-120h120z"/><path fill="#ff8282" d="m1740 840 60 120h-120z"/><path fill="#cc5944" d="m1800 960-60-120h120z"/><path fill="#fde8d0" d="m1680 960-60-120h120zM1860 840l60 120h-120z"/><path fill="#cc5944" d="m1440 720-60-120h120z"/><path fill="#fde8d0" d="m1500 600 60 120h-120z"/><path fill="#ff8282" d="m1440 720 60 120h-120z"/><path fill="#cc5944" d="m1500 840-60-120h120z"/><path fill="#fde8d0" d="m1560 720 60 120h-120zM1440 480l60 120h-120zM1920 960l-60-120h120z"/><path fill="#ff8282" d="m1560 480 60 120h-120z"/><path fill="#cc5944" d="m1620 600-60-120h120z"/><path fill="#fde8d0" d="m1500 600-60-120h120zM1680 480l60 120h-120z"/></g><g clip-path="url(#m)"><path fill="#b84f4f" d="M1440 960h480v480h-480z"/><path fill="#ff8282" d="m1800 960 60 120h-120z"/><path fill="#cc5944" d="m1860 1080-60-120h120z"/><path fill="#fde8d0" d="m1740 1080-60-120h120zM1920 960l60 120h-120zM1440 960l60 120h-120z"/><path fill="#ff8282" d="m1560 960 60 120h-120z"/><path fill="#cc5944" d="m1620 1080-60-120h120z"/><path fill="#fde8d0" d="m1500 1080-60-120h120zM1680 960l60 120h-120z"/></g></g><defs><clipPath id="a"><path fill="#fff" d="M0 0h1920v1080H0z"/></clipPath><clipPath id="b"><path fill="#fff" d="M0 0h480v480H0z"/></clipPath><clipPath id="c"><path fill="#fff" d="M0 480h480v480H0z"/></clipPath><clipPath id="d"><path fill="#fff" d="M0 960h480v480H0z"/></clipPath><clipPath id="e"><path fill="#fff" d="M480 0h480v480H480z"/></clipPath><clipPath id="f"><path fill="#fff" d="M480 480h480v480H480z"/></clipPath><clipPath id="g"><path fill="#fff" d="M480 960h480v480H480z"/></clipPath><clipPath id="h"><path fill="#fff" d="M960 0h480v480H960z"/></clipPath><clipPath id="i"><path fill="#fff" d="M960 480h480v480H960z"/></clipPath><clipPath id="j"><path fill="#fff" d="M960 960h480v480H960z"/></clipPath><clipPath id="k"><path fill="#fff" d="M1440 0h480v480h-480z"/></clipPath><clipPath id="l"><path fill="#fff" d="M1440 480h480v480h-480z"/></clipPath><clipPath id="m"><path fill="#fff" d="M1440 960h480v480h-480z"/></clipPath></defs></svg>