<svg width="1920" height="1080" viewBox="0 0 1920 1080" fill="none" xmlns="http://www.w3.org/2000/svg">
<g clip-path="url(#clip0_48_1671)">
<rect width="1920" height="1080" fill="white"/>
<rect width="480" height="480" fill="#F69930"/>
<rect width="480" height="480" transform="translate(0 480)" fill="#F69930"/>
<rect width="480" height="480" transform="translate(0 960)" fill="#FDE8D0"/>
<rect width="480" height="480" transform="translate(0 480)" fill="#F69930"/>
<rect width="480" height="480" transform="translate(0 960)" fill="#FDE8D0"/>
<rect width="480" height="480" transform="translate(480)" fill="#F69930"/>
<rect width="480" height="480" transform="translate(480 480)" fill="#F69930"/>
<rect width="480" height="480" transform="translate(480 960)" fill="#FDE8D0"/>
<rect width="480" height="480" transform="translate(480 480)" fill="#F69930"/>
<rect width="480" height="480" transform="translate(480 960)" fill="#FDE8D0"/>
<rect width="480" height="480" transform="translate(960)" fill="#F69930"/>
<rect width="480" height="480" transform="translate(960 480)" fill="#F69930"/>
<rect width="480" height="480" transform="translate(960 960)" fill="#FDE8D0"/>
<rect width="480" height="480" transform="translate(960 480)" fill="#F69930"/>
<rect width="480" height="480" transform="translate(960 960)" fill="#FDE8D0"/>
<rect width="480" height="480" transform="translate(1440)" fill="#F69930"/>
<rect width="480" height="480" transform="translate(1440 480)" fill="#F69930"/>
<rect width="480" height="480" transform="translate(1440 960)" fill="#FDE8D0"/>
<rect width="480" height="480" transform="translate(1440 480)" fill="#F69930"/>
<rect width="480" height="480" transform="translate(1440 960)" fill="#FDE8D0"/>
<g clip-path="url(#clip1_48_1671)">
<rect width="480" height="480" fill="#B84F4F"/>
<path d="M360 0L420 120L300 120L360 0Z" fill="#FF8282"/>
<path d="M420 120L360 2.70181e-06L480 1.14441e-05L420 120Z" fill="#CC5944"/>
<path d="M300 120L240 2.70181e-06L360 1.14441e-05L300 120Z" fill="#FDE8D0"/>
<path d="M480 0L540 120L420 120L480 0Z" fill="#FDE8D0"/>
<path d="M180 120L240 240H120L180 120Z" fill="#FF8282"/>
<path d="M240 240L180 120L300 120L240 240Z" fill="#CC5944"/>
<path d="M120 240L60 120L180 120L120 240Z" fill="#FDE8D0"/>
<path d="M300 120L360 240H240L300 120Z" fill="#FDE8D0"/>
<path d="M240 240L300 360H180L240 240Z" fill="#FF8282"/>
<path d="M300 360L240 240L360 240L300 360Z" fill="#CC5944"/>
<path d="M180 360L120 240L240 240L180 360Z" fill="#FDE8D0"/>
<path d="M360 240L420 360H300L360 240Z" fill="#FDE8D0"/>
<path d="M120 360L180 480H60L120 360Z" fill="#FF8282"/>
<path d="M180 480L120 360L240 360L180 480Z" fill="#CC5944"/>
<path d="M60 480L2.21256e-05 360L120 360L60 480Z" fill="#FDE8D0"/>
<path d="M240 360L300 480H180L240 360Z" fill="#FDE8D0"/>
<path d="M60 360L120 480H0L60 360Z" fill="#FF8282"/>
<path d="M120 480L60 360L180 360L120 480Z" fill="#CC5944"/>
<path d="M4.76837e-06 480L-60 360L60 360L4.76837e-06 480Z" fill="#FDE8D0"/>
<path d="M180 360L240 480H120L180 360Z" fill="#FDE8D0"/>
<path d="M420 120L480 240H360L420 120Z" fill="#FF8282"/>
<path d="M480 240L420 120L540 120L480 240Z" fill="#CC5944"/>
<path d="M360 240L300 120L420 120L360 240Z" fill="#FDE8D0"/>
<path d="M540 120L600 240H480L540 120Z" fill="#FDE8D0"/>
<path d="M480 240L540 360H420L480 240Z" fill="#FF8282"/>
<path d="M540 360L480 240L600 240L540 360Z" fill="#CC5944"/>
<path d="M420 360L360 240L480 240L420 360Z" fill="#FDE8D0"/>
<path d="M300 360L360 480H240L300 360Z" fill="#FF8282"/>
<path d="M360 480L300 360L420 360L360 480Z" fill="#CC5944"/>
<path d="M240 480L180 360L300 360L240 480Z" fill="#FDE8D0"/>
<path d="M420 360L480 480H360L420 360Z" fill="#FDE8D0"/>
<path d="M-9.53674e-06 240L-60 120L60 120L-9.53674e-06 240Z" fill="#CC5944"/>
<path d="M60 120L120 240H-4.72083e-06L60 120Z" fill="#FDE8D0"/>
<path d="M-4.76837e-06 240L60 360H-60L-4.76837e-06 240Z" fill="#FF8282"/>
<path d="M60 360L-6.48461e-06 240L120 240L60 360Z" fill="#CC5944"/>
<path d="M120 240L180 360H60L120 240Z" fill="#FDE8D0"/>
<path d="M4.76837e-06 0L60 120L-60 120L4.76837e-06 0Z" fill="#FDE8D0"/>
<path d="M540 360L600 480H480L540 360Z" fill="#FF8282"/>
<path d="M480 480L420 360L540 360L480 480Z" fill="#FDE8D0"/>
<path d="M120 0L180 120L60 120L120 0Z" fill="#FF8282"/>
<path d="M180 120L120 2.70181e-06L240 1.14441e-05L180 120Z" fill="#CC5944"/>
<path d="M60 120L2.21256e-05 2.70181e-06L120 1.14441e-05L60 120Z" fill="#FDE8D0"/>
<path d="M240 0L300 120L180 120L240 0Z" fill="#FDE8D0"/>
</g>
<g clip-path="url(#clip2_48_1671)">
<rect width="480" height="480" transform="translate(0 480)" fill="#B84F4F"/>
<path d="M360 480L420 600H300L360 480Z" fill="#FF8282"/>
<path d="M420 600L360 480L480 480L420 600Z" fill="#CC5944"/>
<path d="M300 600L240 480L360 480L300 600Z" fill="#FDE8D0"/>
<path d="M480 480L540 600H420L480 480Z" fill="#FDE8D0"/>
<path d="M180 600L240 720H120L180 600Z" fill="#FF8282"/>
<path d="M240 720L180 600L300 600L240 720Z" fill="#CC5944"/>
<path d="M120 720L60 600L180 600L120 720Z" fill="#FDE8D0"/>
<path d="M300 600L360 720H240L300 600Z" fill="#FDE8D0"/>
<path d="M240 720L300 840H180L240 720Z" fill="#FF8282"/>
<path d="M300 840L240 720L360 720L300 840Z" fill="#CC5944"/>
<path d="M180 840L120 720L240 720L180 840Z" fill="#FDE8D0"/>
<path d="M360 720L420 840H300L360 720Z" fill="#FDE8D0"/>
<path d="M120 840L180 960H60L120 840Z" fill="#FF8282"/>
<path d="M180 960L120 840L240 840L180 960Z" fill="#CC5944"/>
<path d="M60 960L2.21256e-05 840L120 840L60 960Z" fill="#FDE8D0"/>
<path d="M240 840L300 960H180L240 840Z" fill="#FDE8D0"/>
<path d="M60 840L120 960H0L60 840Z" fill="#FF8282"/>
<path d="M120 960L60 840L180 840L120 960Z" fill="#CC5944"/>
<path d="M4.76837e-06 960L-60 840L60 840L4.76837e-06 960Z" fill="#FDE8D0"/>
<path d="M180 840L240 960H120L180 840Z" fill="#FDE8D0"/>
<path d="M420 600L480 720H360L420 600Z" fill="#FF8282"/>
<path d="M480 720L420 600L540 600L480 720Z" fill="#CC5944"/>
<path d="M360 720L300 600L420 600L360 720Z" fill="#FDE8D0"/>
<path d="M540 600L600 720H480L540 600Z" fill="#FDE8D0"/>
<path d="M480 720L540 840H420L480 720Z" fill="#FF8282"/>
<path d="M540 840L480 720L600 720L540 840Z" fill="#CC5944"/>
<path d="M420 840L360 720L480 720L420 840Z" fill="#FDE8D0"/>
<path d="M300 840L360 960H240L300 840Z" fill="#FF8282"/>
<path d="M360 960L300 840L420 840L360 960Z" fill="#CC5944"/>
<path d="M240 960L180 840L300 840L240 960Z" fill="#FDE8D0"/>
<path d="M420 840L480 960H360L420 840Z" fill="#FDE8D0"/>
<path d="M-9.53674e-06 720L-60 600L60 600L-9.53674e-06 720Z" fill="#CC5944"/>
<path d="M60 600L120 720H-4.72083e-06L60 600Z" fill="#FDE8D0"/>
<path d="M-4.76837e-06 720L60 840H-60L-4.76837e-06 720Z" fill="#FF8282"/>
<path d="M60 840L-6.48461e-06 720L120 720L60 840Z" fill="#CC5944"/>
<path d="M120 720L180 840H60L120 720Z" fill="#FDE8D0"/>
<path d="M4.76837e-06 480L60 600H-60L4.76837e-06 480Z" fill="#FDE8D0"/>
<path d="M540 840L600 960H480L540 840Z" fill="#FF8282"/>
<path d="M480 960L420 840L540 840L480 960Z" fill="#FDE8D0"/>
<path d="M120 480L180 600H60L120 480Z" fill="#FF8282"/>
<path d="M180 600L120 480L240 480L180 600Z" fill="#CC5944"/>
<path d="M60 600L2.21256e-05 480L120 480L60 600Z" fill="#FDE8D0"/>
<path d="M240 480L300 600H180L240 480Z" fill="#FDE8D0"/>
</g>
<g clip-path="url(#clip3_48_1671)">
<rect width="480" height="480" transform="translate(0 960)" fill="#B84F4F"/>
<path d="M360 960L420 1080H300L360 960Z" fill="#FF8282"/>
<path d="M420 1080L360 960L480 960L420 1080Z" fill="#CC5944"/>
<path d="M300 1080L240 960L360 960L300 1080Z" fill="#FDE8D0"/>
<path d="M480 960L540 1080H420L480 960Z" fill="#FDE8D0"/>
<path d="M4.76837e-06 960L60 1080H-60L4.76837e-06 960Z" fill="#FDE8D0"/>
<path d="M120 960L180 1080H60L120 960Z" fill="#FF8282"/>
<path d="M180 1080L120 960L240 960L180 1080Z" fill="#CC5944"/>
<path d="M60 1080L2.21256e-05 960L120 960L60 1080Z" fill="#FDE8D0"/>
<path d="M240 960L300 1080H180L240 960Z" fill="#FDE8D0"/>
</g>
<g clip-path="url(#clip4_48_1671)">
<rect width="480" height="480" transform="translate(480)" fill="#B84F4F"/>
<path d="M840 0L900 120L780 120L840 0Z" fill="#FF8282"/>
<path d="M900 120L840 2.70181e-06L960 1.14441e-05L900 120Z" fill="#CC5944"/>
<path d="M780 120L720 2.70181e-06L840 1.14441e-05L780 120Z" fill="#FDE8D0"/>
<path d="M960 0L1020 120L900 120L960 0Z" fill="#FDE8D0"/>
<path d="M660 120L720 240H600L660 120Z" fill="#FF8282"/>
<path d="M720 240L660 120L780 120L720 240Z" fill="#CC5944"/>
<path d="M600 240L540 120L660 120L600 240Z" fill="#FDE8D0"/>
<path d="M780 120L840 240H720L780 120Z" fill="#FDE8D0"/>
<path d="M720 240L780 360H660L720 240Z" fill="#FF8282"/>
<path d="M780 360L720 240L840 240L780 360Z" fill="#CC5944"/>
<path d="M660 360L600 240L720 240L660 360Z" fill="#FDE8D0"/>
<path d="M840 240L900 360H780L840 240Z" fill="#FDE8D0"/>
<path d="M600 360L660 480H540L600 360Z" fill="#FF8282"/>
<path d="M660 480L600 360L720 360L660 480Z" fill="#CC5944"/>
<path d="M540 480L480 360L600 360L540 480Z" fill="#FDE8D0"/>
<path d="M720 360L780 480H660L720 360Z" fill="#FDE8D0"/>
<path d="M540 360L600 480H480L540 360Z" fill="#FF8282"/>
<path d="M600 480L540 360L660 360L600 480Z" fill="#CC5944"/>
<path d="M480 480L420 360L540 360L480 480Z" fill="#FDE8D0"/>
<path d="M660 360L720 480H600L660 360Z" fill="#FDE8D0"/>
<path d="M900 120L960 240H840L900 120Z" fill="#FF8282"/>
<path d="M960 240L900 120L1020 120L960 240Z" fill="#CC5944"/>
<path d="M840 240L780 120L900 120L840 240Z" fill="#FDE8D0"/>
<path d="M1020 120L1080 240H960L1020 120Z" fill="#FDE8D0"/>
<path d="M960 240L1020 360H900L960 240Z" fill="#FF8282"/>
<path d="M1020 360L960 240L1080 240L1020 360Z" fill="#CC5944"/>
<path d="M900 360L840 240L960 240L900 360Z" fill="#FDE8D0"/>
<path d="M780 360L840 480H720L780 360Z" fill="#FF8282"/>
<path d="M840 480L780 360L900 360L840 480Z" fill="#CC5944"/>
<path d="M720 480L660 360L780 360L720 480Z" fill="#FDE8D0"/>
<path d="M900 360L960 480H840L900 360Z" fill="#FDE8D0"/>
<path d="M480 240L420 120L540 120L480 240Z" fill="#CC5944"/>
<path d="M540 120L600 240H480L540 120Z" fill="#FDE8D0"/>
<path d="M480 240L540 360H420L480 240Z" fill="#FF8282"/>
<path d="M540 360L480 240L600 240L540 360Z" fill="#CC5944"/>
<path d="M600 240L660 360H540L600 240Z" fill="#FDE8D0"/>
<path d="M480 0L540 120L420 120L480 0Z" fill="#FDE8D0"/>
<path d="M1020 360L1080 480H960L1020 360Z" fill="#FF8282"/>
<path d="M960 480L900 360L1020 360L960 480Z" fill="#FDE8D0"/>
<path d="M600 0L660 120L540 120L600 0Z" fill="#FF8282"/>
<path d="M660 120L600 2.70181e-06L720 1.14441e-05L660 120Z" fill="#CC5944"/>
<path d="M540 120L480 2.70181e-06L600 1.14441e-05L540 120Z" fill="#FDE8D0"/>
<path d="M720 0L780 120L660 120L720 0Z" fill="#FDE8D0"/>
</g>
<g clip-path="url(#clip5_48_1671)">
<rect width="480" height="480" transform="translate(480 480)" fill="#B84F4F"/>
<path d="M840 480L900 600H780L840 480Z" fill="#FF8282"/>
<path d="M900 600L840 480L960 480L900 600Z" fill="#CC5944"/>
<path d="M780 600L720 480L840 480L780 600Z" fill="#FDE8D0"/>
<path d="M960 480L1020 600H900L960 480Z" fill="#FDE8D0"/>
<path d="M660 600L720 720H600L660 600Z" fill="#FF8282"/>
<path d="M720 720L660 600L780 600L720 720Z" fill="#CC5944"/>
<path d="M600 720L540 600L660 600L600 720Z" fill="#FDE8D0"/>
<path d="M780 600L840 720H720L780 600Z" fill="#FDE8D0"/>
<path d="M720 720L780 840H660L720 720Z" fill="#FF8282"/>
<path d="M780 840L720 720L840 720L780 840Z" fill="#CC5944"/>
<path d="M660 840L600 720L720 720L660 840Z" fill="#FDE8D0"/>
<path d="M840 720L900 840H780L840 720Z" fill="#FDE8D0"/>
<path d="M600 840L660 960H540L600 840Z" fill="#FF8282"/>
<path d="M660 960L600 840L720 840L660 960Z" fill="#CC5944"/>
<path d="M540 960L480 840L600 840L540 960Z" fill="#FDE8D0"/>
<path d="M720 840L780 960H660L720 840Z" fill="#FDE8D0"/>
<path d="M540 840L600 960H480L540 840Z" fill="#FF8282"/>
<path d="M600 960L540 840L660 840L600 960Z" fill="#CC5944"/>
<path d="M480 960L420 840L540 840L480 960Z" fill="#FDE8D0"/>
<path d="M660 840L720 960H600L660 840Z" fill="#FDE8D0"/>
<path d="M900 600L960 720H840L900 600Z" fill="#FF8282"/>
<path d="M960 720L900 600L1020 600L960 720Z" fill="#CC5944"/>
<path d="M840 720L780 600L900 600L840 720Z" fill="#FDE8D0"/>
<path d="M1020 600L1080 720H960L1020 600Z" fill="#FDE8D0"/>
<path d="M960 720L1020 840H900L960 720Z" fill="#FF8282"/>
<path d="M1020 840L960 720L1080 720L1020 840Z" fill="#CC5944"/>
<path d="M900 840L840 720L960 720L900 840Z" fill="#FDE8D0"/>
<path d="M780 840L840 960H720L780 840Z" fill="#FF8282"/>
<path d="M840 960L780 840L900 840L840 960Z" fill="#CC5944"/>
<path d="M720 960L660 840L780 840L720 960Z" fill="#FDE8D0"/>
<path d="M900 840L960 960H840L900 840Z" fill="#FDE8D0"/>
<path d="M480 720L420 600L540 600L480 720Z" fill="#CC5944"/>
<path d="M540 600L600 720H480L540 600Z" fill="#FDE8D0"/>
<path d="M480 720L540 840H420L480 720Z" fill="#FF8282"/>
<path d="M540 840L480 720L600 720L540 840Z" fill="#CC5944"/>
<path d="M600 720L660 840H540L600 720Z" fill="#FDE8D0"/>
<path d="M480 480L540 600H420L480 480Z" fill="#FDE8D0"/>
<path d="M1020 840L1080 960H960L1020 840Z" fill="#FF8282"/>
<path d="M960 960L900 840L1020 840L960 960Z" fill="#FDE8D0"/>
<path d="M600 480L660 600H540L600 480Z" fill="#FF8282"/>
<path d="M660 600L600 480L720 480L660 600Z" fill="#CC5944"/>
<path d="M540 600L480 480L600 480L540 600Z" fill="#FDE8D0"/>
<path d="M720 480L780 600H660L720 480Z" fill="#FDE8D0"/>
</g>
<g clip-path="url(#clip6_48_1671)">
<rect width="480" height="480" transform="translate(480 960)" fill="#B84F4F"/>
<path d="M840 960L900 1080H780L840 960Z" fill="#FF8282"/>
<path d="M900 1080L840 960L960 960L900 1080Z" fill="#CC5944"/>
<path d="M780 1080L720 960L840 960L780 1080Z" fill="#FDE8D0"/>
<path d="M960 960L1020 1080H900L960 960Z" fill="#FDE8D0"/>
<path d="M480 960L540 1080H420L480 960Z" fill="#FDE8D0"/>
<path d="M600 960L660 1080H540L600 960Z" fill="#FF8282"/>
<path d="M660 1080L600 960L720 960L660 1080Z" fill="#CC5944"/>
<path d="M540 1080L480 960L600 960L540 1080Z" fill="#FDE8D0"/>
<path d="M720 960L780 1080H660L720 960Z" fill="#FDE8D0"/>
</g>
<g clip-path="url(#clip7_48_1671)">
<rect width="480" height="480" transform="translate(960)" fill="#B84F4F"/>
<path d="M1320 0L1380 120L1260 120L1320 0Z" fill="#FF8282"/>
<path d="M1380 120L1320 2.70181e-06L1440 1.14441e-05L1380 120Z" fill="#CC5944"/>
<path d="M1260 120L1200 2.70181e-06L1320 1.14441e-05L1260 120Z" fill="#FDE8D0"/>
<path d="M1440 0L1500 120L1380 120L1440 0Z" fill="#FDE8D0"/>
<path d="M1140 120L1200 240H1080L1140 120Z" fill="#FF8282"/>
<path d="M1200 240L1140 120L1260 120L1200 240Z" fill="#CC5944"/>
<path d="M1080 240L1020 120L1140 120L1080 240Z" fill="#FDE8D0"/>
<path d="M1260 120L1320 240H1200L1260 120Z" fill="#FDE8D0"/>
<path d="M1200 240L1260 360H1140L1200 240Z" fill="#FF8282"/>
<path d="M1260 360L1200 240L1320 240L1260 360Z" fill="#CC5944"/>
<path d="M1140 360L1080 240L1200 240L1140 360Z" fill="#FDE8D0"/>
<path d="M1320 240L1380 360H1260L1320 240Z" fill="#FDE8D0"/>
<path d="M1080 360L1140 480H1020L1080 360Z" fill="#FF8282"/>
<path d="M1140 480L1080 360L1200 360L1140 480Z" fill="#CC5944"/>
<path d="M1020 480L960 360L1080 360L1020 480Z" fill="#FDE8D0"/>
<path d="M1200 360L1260 480H1140L1200 360Z" fill="#FDE8D0"/>
<path d="M1020 360L1080 480H960L1020 360Z" fill="#FF8282"/>
<path d="M1080 480L1020 360L1140 360L1080 480Z" fill="#CC5944"/>
<path d="M960 480L900 360L1020 360L960 480Z" fill="#FDE8D0"/>
<path d="M1140 360L1200 480H1080L1140 360Z" fill="#FDE8D0"/>
<path d="M1380 120L1440 240H1320L1380 120Z" fill="#FF8282"/>
<path d="M1440 240L1380 120L1500 120L1440 240Z" fill="#CC5944"/>
<path d="M1320 240L1260 120L1380 120L1320 240Z" fill="#FDE8D0"/>
<path d="M1500 120L1560 240H1440L1500 120Z" fill="#FDE8D0"/>
<path d="M1440 240L1500 360H1380L1440 240Z" fill="#FF8282"/>
<path d="M1500 360L1440 240L1560 240L1500 360Z" fill="#CC5944"/>
<path d="M1380 360L1320 240L1440 240L1380 360Z" fill="#FDE8D0"/>
<path d="M1260 360L1320 480H1200L1260 360Z" fill="#FF8282"/>
<path d="M1320 480L1260 360L1380 360L1320 480Z" fill="#CC5944"/>
<path d="M1200 480L1140 360L1260 360L1200 480Z" fill="#FDE8D0"/>
<path d="M1380 360L1440 480H1320L1380 360Z" fill="#FDE8D0"/>
<path d="M960 240L900 120L1020 120L960 240Z" fill="#CC5944"/>
<path d="M1020 120L1080 240H960L1020 120Z" fill="#FDE8D0"/>
<path d="M960 240L1020 360H900L960 240Z" fill="#FF8282"/>
<path d="M1020 360L960 240L1080 240L1020 360Z" fill="#CC5944"/>
<path d="M1080 240L1140 360H1020L1080 240Z" fill="#FDE8D0"/>
<path d="M960 0L1020 120L900 120L960 0Z" fill="#FDE8D0"/>
<path d="M1500 360L1560 480H1440L1500 360Z" fill="#FF8282"/>
<path d="M1440 480L1380 360L1500 360L1440 480Z" fill="#FDE8D0"/>
<path d="M1080 0L1140 120L1020 120L1080 0Z" fill="#FF8282"/>
<path d="M1140 120L1080 2.70181e-06L1200 1.14441e-05L1140 120Z" fill="#CC5944"/>
<path d="M1020 120L960 2.70181e-06L1080 1.14441e-05L1020 120Z" fill="#FDE8D0"/>
<path d="M1200 0L1260 120L1140 120L1200 0Z" fill="#FDE8D0"/>
</g>
<g clip-path="url(#clip8_48_1671)">
<rect width="480" height="480" transform="translate(960 480)" fill="#B84F4F"/>
<path d="M1320 480L1380 600H1260L1320 480Z" fill="#FF8282"/>
<path d="M1380 600L1320 480L1440 480L1380 600Z" fill="#CC5944"/>
<path d="M1260 600L1200 480L1320 480L1260 600Z" fill="#FDE8D0"/>
<path d="M1440 480L1500 600H1380L1440 480Z" fill="#FDE8D0"/>
<path d="M1140 600L1200 720H1080L1140 600Z" fill="#FF8282"/>
<path d="M1200 720L1140 600L1260 600L1200 720Z" fill="#CC5944"/>
<path d="M1080 720L1020 600L1140 600L1080 720Z" fill="#FDE8D0"/>
<path d="M1260 600L1320 720H1200L1260 600Z" fill="#FDE8D0"/>
<path d="M1200 720L1260 840H1140L1200 720Z" fill="#FF8282"/>
<path d="M1260 840L1200 720L1320 720L1260 840Z" fill="#CC5944"/>
<path d="M1140 840L1080 720L1200 720L1140 840Z" fill="#FDE8D0"/>
<path d="M1320 720L1380 840H1260L1320 720Z" fill="#FDE8D0"/>
<path d="M1080 840L1140 960H1020L1080 840Z" fill="#FF8282"/>
<path d="M1140 960L1080 840L1200 840L1140 960Z" fill="#CC5944"/>
<path d="M1020 960L960 840L1080 840L1020 960Z" fill="#FDE8D0"/>
<path d="M1200 840L1260 960H1140L1200 840Z" fill="#FDE8D0"/>
<path d="M1020 840L1080 960H960L1020 840Z" fill="#FF8282"/>
<path d="M1080 960L1020 840L1140 840L1080 960Z" fill="#CC5944"/>
<path d="M960 960L900 840L1020 840L960 960Z" fill="#FDE8D0"/>
<path d="M1140 840L1200 960H1080L1140 840Z" fill="#FDE8D0"/>
<path d="M1380 600L1440 720H1320L1380 600Z" fill="#FF8282"/>
<path d="M1440 720L1380 600L1500 600L1440 720Z" fill="#CC5944"/>
<path d="M1320 720L1260 600L1380 600L1320 720Z" fill="#FDE8D0"/>
<path d="M1500 600L1560 720H1440L1500 600Z" fill="#FDE8D0"/>
<path d="M1440 720L1500 840H1380L1440 720Z" fill="#FF8282"/>
<path d="M1500 840L1440 720L1560 720L1500 840Z" fill="#CC5944"/>
<path d="M1380 840L1320 720L1440 720L1380 840Z" fill="#FDE8D0"/>
<path d="M1260 840L1320 960H1200L1260 840Z" fill="#FF8282"/>
<path d="M1320 960L1260 840L1380 840L1320 960Z" fill="#CC5944"/>
<path d="M1200 960L1140 840L1260 840L1200 960Z" fill="#FDE8D0"/>
<path d="M1380 840L1440 960H1320L1380 840Z" fill="#FDE8D0"/>
<path d="M960 720L900 600L1020 600L960 720Z" fill="#CC5944"/>
<path d="M1020 600L1080 720H960L1020 600Z" fill="#FDE8D0"/>
<path d="M960 720L1020 840H900L960 720Z" fill="#FF8282"/>
<path d="M1020 840L960 720L1080 720L1020 840Z" fill="#CC5944"/>
<path d="M1080 720L1140 840H1020L1080 720Z" fill="#FDE8D0"/>
<path d="M960 480L1020 600H900L960 480Z" fill="#FDE8D0"/>
<path d="M1500 840L1560 960H1440L1500 840Z" fill="#FF8282"/>
<path d="M1440 960L1380 840L1500 840L1440 960Z" fill="#FDE8D0"/>
<path d="M1080 480L1140 600H1020L1080 480Z" fill="#FF8282"/>
<path d="M1140 600L1080 480L1200 480L1140 600Z" fill="#CC5944"/>
<path d="M1020 600L960 480L1080 480L1020 600Z" fill="#FDE8D0"/>
<path d="M1200 480L1260 600H1140L1200 480Z" fill="#FDE8D0"/>
</g>
<g clip-path="url(#clip9_48_1671)">
<rect width="480" height="480" transform="translate(960 960)" fill="#B84F4F"/>
<path d="M1320 960L1380 1080H1260L1320 960Z" fill="#FF8282"/>
<path d="M1380 1080L1320 960L1440 960L1380 1080Z" fill="#CC5944"/>
<path d="M1260 1080L1200 960L1320 960L1260 1080Z" fill="#FDE8D0"/>
<path d="M1440 960L1500 1080H1380L1440 960Z" fill="#FDE8D0"/>
<path d="M960 960L1020 1080H900L960 960Z" fill="#FDE8D0"/>
<path d="M1080 960L1140 1080H1020L1080 960Z" fill="#FF8282"/>
<path d="M1140 1080L1080 960L1200 960L1140 1080Z" fill="#CC5944"/>
<path d="M1020 1080L960 960L1080 960L1020 1080Z" fill="#FDE8D0"/>
<path d="M1200 960L1260 1080H1140L1200 960Z" fill="#FDE8D0"/>
</g>
<g clip-path="url(#clip10_48_1671)">
<rect width="480" height="480" transform="translate(1440)" fill="#B84F4F"/>
<path d="M1800 0L1860 120L1740 120L1800 0Z" fill="#FF8282"/>
<path d="M1860 120L1800 2.70181e-06L1920 1.14441e-05L1860 120Z" fill="#CC5944"/>
<path d="M1740 120L1680 2.70181e-06L1800 1.14441e-05L1740 120Z" fill="#FDE8D0"/>
<path d="M1920 0L1980 120L1860 120L1920 0Z" fill="#FDE8D0"/>
<path d="M1620 120L1680 240H1560L1620 120Z" fill="#FF8282"/>
<path d="M1680 240L1620 120L1740 120L1680 240Z" fill="#CC5944"/>
<path d="M1560 240L1500 120L1620 120L1560 240Z" fill="#FDE8D0"/>
<path d="M1740 120L1800 240H1680L1740 120Z" fill="#FDE8D0"/>
<path d="M1680 240L1740 360H1620L1680 240Z" fill="#FF8282"/>
<path d="M1740 360L1680 240L1800 240L1740 360Z" fill="#CC5944"/>
<path d="M1620 360L1560 240L1680 240L1620 360Z" fill="#FDE8D0"/>
<path d="M1800 240L1860 360H1740L1800 240Z" fill="#FDE8D0"/>
<path d="M1560 360L1620 480H1500L1560 360Z" fill="#FF8282"/>
<path d="M1620 480L1560 360L1680 360L1620 480Z" fill="#CC5944"/>
<path d="M1500 480L1440 360L1560 360L1500 480Z" fill="#FDE8D0"/>
<path d="M1680 360L1740 480H1620L1680 360Z" fill="#FDE8D0"/>
<path d="M1500 360L1560 480H1440L1500 360Z" fill="#FF8282"/>
<path d="M1560 480L1500 360L1620 360L1560 480Z" fill="#CC5944"/>
<path d="M1440 480L1380 360L1500 360L1440 480Z" fill="#FDE8D0"/>
<path d="M1620 360L1680 480H1560L1620 360Z" fill="#FDE8D0"/>
<path d="M1860 120L1920 240H1800L1860 120Z" fill="#FF8282"/>
<path d="M1920 240L1860 120L1980 120L1920 240Z" fill="#CC5944"/>
<path d="M1800 240L1740 120L1860 120L1800 240Z" fill="#FDE8D0"/>
<path d="M1920 240L1980 360H1860L1920 240Z" fill="#FF8282"/>
<path d="M1860 360L1800 240L1920 240L1860 360Z" fill="#FDE8D0"/>
<path d="M1740 360L1800 480H1680L1740 360Z" fill="#FF8282"/>
<path d="M1800 480L1740 360L1860 360L1800 480Z" fill="#CC5944"/>
<path d="M1680 480L1620 360L1740 360L1680 480Z" fill="#FDE8D0"/>
<path d="M1860 360L1920 480H1800L1860 360Z" fill="#FDE8D0"/>
<path d="M1440 240L1380 120L1500 120L1440 240Z" fill="#CC5944"/>
<path d="M1500 120L1560 240H1440L1500 120Z" fill="#FDE8D0"/>
<path d="M1440 240L1500 360H1380L1440 240Z" fill="#FF8282"/>
<path d="M1500 360L1440 240L1560 240L1500 360Z" fill="#CC5944"/>
<path d="M1560 240L1620 360H1500L1560 240Z" fill="#FDE8D0"/>
<path d="M1440 0L1500 120L1380 120L1440 0Z" fill="#FDE8D0"/>
<path d="M1920 480L1860 360L1980 360L1920 480Z" fill="#FDE8D0"/>
<path d="M1560 0L1620 120L1500 120L1560 0Z" fill="#FF8282"/>
<path d="M1620 120L1560 2.70181e-06L1680 1.14441e-05L1620 120Z" fill="#CC5944"/>
<path d="M1500 120L1440 2.70181e-06L1560 1.14441e-05L1500 120Z" fill="#FDE8D0"/>
<path d="M1680 0L1740 120L1620 120L1680 0Z" fill="#FDE8D0"/>
</g>
<g clip-path="url(#clip11_48_1671)">
<rect width="480" height="480" transform="translate(1440 480)" fill="#B84F4F"/>
<path d="M1800 480L1860 600H1740L1800 480Z" fill="#FF8282"/>
<path d="M1860 600L1800 480L1920 480L1860 600Z" fill="#CC5944"/>
<path d="M1740 600L1680 480L1800 480L1740 600Z" fill="#FDE8D0"/>
<path d="M1920 480L1980 600H1860L1920 480Z" fill="#FDE8D0"/>
<path d="M1620 600L1680 720H1560L1620 600Z" fill="#FF8282"/>
<path d="M1680 720L1620 600L1740 600L1680 720Z" fill="#CC5944"/>
<path d="M1560 720L1500 600L1620 600L1560 720Z" fill="#FDE8D0"/>
<path d="M1740 600L1800 720H1680L1740 600Z" fill="#FDE8D0"/>
<path d="M1680 720L1740 840H1620L1680 720Z" fill="#FF8282"/>
<path d="M1740 840L1680 720L1800 720L1740 840Z" fill="#CC5944"/>
<path d="M1620 840L1560 720L1680 720L1620 840Z" fill="#FDE8D0"/>
<path d="M1800 720L1860 840H1740L1800 720Z" fill="#FDE8D0"/>
<path d="M1560 840L1620 960H1500L1560 840Z" fill="#FF8282"/>
<path d="M1620 960L1560 840L1680 840L1620 960Z" fill="#CC5944"/>
<path d="M1500 960L1440 840L1560 840L1500 960Z" fill="#FDE8D0"/>
<path d="M1680 840L1740 960H1620L1680 840Z" fill="#FDE8D0"/>
<path d="M1500 840L1560 960H1440L1500 840Z" fill="#FF8282"/>
<path d="M1560 960L1500 840L1620 840L1560 960Z" fill="#CC5944"/>
<path d="M1440 960L1380 840L1500 840L1440 960Z" fill="#FDE8D0"/>
<path d="M1620 840L1680 960H1560L1620 840Z" fill="#FDE8D0"/>
<path d="M1860 600L1920 720H1800L1860 600Z" fill="#FF8282"/>
<path d="M1920 720L1860 600L1980 600L1920 720Z" fill="#CC5944"/>
<path d="M1800 720L1740 600L1860 600L1800 720Z" fill="#FDE8D0"/>
<path d="M1920 720L1980 840H1860L1920 720Z" fill="#FF8282"/>
<path d="M1860 840L1800 720L1920 720L1860 840Z" fill="#FDE8D0"/>
<path d="M1740 840L1800 960H1680L1740 840Z" fill="#FF8282"/>
<path d="M1800 960L1740 840L1860 840L1800 960Z" fill="#CC5944"/>
<path d="M1680 960L1620 840L1740 840L1680 960Z" fill="#FDE8D0"/>
<path d="M1860 840L1920 960H1800L1860 840Z" fill="#FDE8D0"/>
<path d="M1440 720L1380 600L1500 600L1440 720Z" fill="#CC5944"/>
<path d="M1500 600L1560 720H1440L1500 600Z" fill="#FDE8D0"/>
<path d="M1440 720L1500 840H1380L1440 720Z" fill="#FF8282"/>
<path d="M1500 840L1440 720L1560 720L1500 840Z" fill="#CC5944"/>
<path d="M1560 720L1620 840H1500L1560 720Z" fill="#FDE8D0"/>
<path d="M1440 480L1500 600H1380L1440 480Z" fill="#FDE8D0"/>
<path d="M1920 960L1860 840L1980 840L1920 960Z" fill="#FDE8D0"/>
<path d="M1560 480L1620 600H1500L1560 480Z" fill="#FF8282"/>
<path d="M1620 600L1560 480L1680 480L1620 600Z" fill="#CC5944"/>
<path d="M1500 600L1440 480L1560 480L1500 600Z" fill="#FDE8D0"/>
<path d="M1680 480L1740 600H1620L1680 480Z" fill="#FDE8D0"/>
</g>
<g clip-path="url(#clip12_48_1671)">
<rect width="480" height="480" transform="translate(1440 960)" fill="#B84F4F"/>
<path d="M1800 960L1860 1080H1740L1800 960Z" fill="#FF8282"/>
<path d="M1860 1080L1800 960L1920 960L1860 1080Z" fill="#CC5944"/>
<path d="M1740 1080L1680 960L1800 960L1740 1080Z" fill="#FDE8D0"/>
<path d="M1920 960L1980 1080H1860L1920 960Z" fill="#FDE8D0"/>
<path d="M1440 960L1500 1080H1380L1440 960Z" fill="#FDE8D0"/>
<path d="M1560 960L1620 1080H1500L1560 960Z" fill="#FF8282"/>
<path d="M1620 1080L1560 960L1680 960L1620 1080Z" fill="#CC5944"/>
<path d="M1500 1080L1440 960L1560 960L1500 1080Z" fill="#FDE8D0"/>
<path d="M1680 960L1740 1080H1620L1680 960Z" fill="#FDE8D0"/>
</g>
</g>
<defs>
<clipPath id="clip0_48_1671">
<rect width="1920" height="1080" fill="white"/>
</clipPath>
<clipPath id="clip1_48_1671">
<rect width="480" height="480" fill="white"/>
</clipPath>
<clipPath id="clip2_48_1671">
<rect width="480" height="480" fill="white" transform="translate(0 480)"/>
</clipPath>
<clipPath id="clip3_48_1671">
<rect width="480" height="480" fill="white" transform="translate(0 960)"/>
</clipPath>
<clipPath id="clip4_48_1671">
<rect width="480" height="480" fill="white" transform="translate(480)"/>
</clipPath>
<clipPath id="clip5_48_1671">
<rect width="480" height="480" fill="white" transform="translate(480 480)"/>
</clipPath>
<clipPath id="clip6_48_1671">
<rect width="480" height="480" fill="white" transform="translate(480 960)"/>
</clipPath>
<clipPath id="clip7_48_1671">
<rect width="480" height="480" fill="white" transform="translate(960)"/>
</clipPath>
<clipPath id="clip8_48_1671">
<rect width="480" height="480" fill="white" transform="translate(960 480)"/>
</clipPath>
<clipPath id="clip9_48_1671">
<rect width="480" height="480" fill="white" transform="translate(960 960)"/>
</clipPath>
<clipPath id="clip10_48_1671">
<rect width="480" height="480" fill="white" transform="translate(1440)"/>
</clipPath>
<clipPath id="clip11_48_1671">
<rect width="480" height="480" fill="white" transform="translate(1440 480)"/>
</clipPath>
<clipPath id="clip12_48_1671">
<rect width="480" height="480" fill="white" transform="translate(1440 960)"/>
</clipPath>
</defs>
</svg>
