<svg width="1281" height="712" viewBox="0 0 1281 712" fill="none" xmlns="http://www.w3.org/2000/svg">
<path d="M56.5532 313.515C58.0992 313.515 505.087 334.721 895.57 353.262L1248.63 370.029L1260.73 370.604L1261.01 382.718L1267.19 653.218L1267.49 666.183L1254.53 666.511L28.5259 697.511L14.0991 697.875L15.2388 683.488L43.5942 325.488L44.5425 313.515H56.5532Z" fill="#F4E5D3" stroke="#D54B35" stroke-width="26"/>
<path d="M1016.2 680.713C833.531 684.313 467.997 691.515 467.198 691.515L505.163 0.514648L987.724 15.3676L1016.2 680.713Z" fill="#D54B35" stroke="#D54B35"/>
<path d="M671.948 205.515C685.448 181.765 692.698 152.015 692.698 118.015H736.948C736.948 190.015 710.448 233.765 688.198 257.765C659.948 288.015 621.448 305.515 582.198 305.515V261.265C603.198 261.265 623.948 253.765 641.698 240.515C604.448 220.515 582.198 175.765 582.198 118.015H626.448C626.448 164.015 643.948 197.265 671.948 205.515ZM874.87 261.265V118.015H919.12V305.515H824.62C791.37 305.515 764.62 278.515 764.62 245.515V118.015H808.87V245.515C808.87 254.265 815.87 261.265 824.62 261.265H874.87Z" fill="#F4E5D3"/>
<path d="M207.698 549.515C212.698 564.515 226.948 575.265 243.698 575.265H246.698V619.515H243.698C206.948 619.515 175.948 595.515 165.198 562.265H136.198V616.515H91.9478V473.265H63.1978V429.015H238.948V490.265C238.948 514.765 226.448 536.515 207.698 549.515ZM136.198 473.265V518.015H166.948C182.198 518.015 194.698 505.515 194.698 490.265V473.265H136.198ZM436.551 563.015C436.551 568.015 440.801 572.265 445.801 572.265H451.801V616.515H445.801C431.551 616.515 418.551 611.015 409.051 601.765C398.551 611.015 385.051 616.515 370.051 616.515H340.801C308.301 616.515 281.801 590.015 281.801 557.515V497.265H392.301V495.265C392.301 483.265 382.301 473.265 370.051 473.265H289.301V429.015H370.051C406.801 429.015 436.551 458.765 436.551 495.265V563.015ZM377.551 572.265C385.551 572.265 392.301 565.765 392.301 557.515V541.515H326.051V557.515C326.051 565.765 332.801 572.265 340.801 572.265H377.551Z" fill="#1C1C1C"/>
<path d="M756.198 544.765C756.198 584.515 771.198 597.015 771.198 597.015V597.265L735.448 623.265C725.198 611.015 711.948 587.015 711.948 544.765C711.948 524.515 711.948 489.265 711.948 466.265H674.448V609.515H630.198V466.265H614.698C602.448 466.265 592.448 476.265 592.448 488.265V609.515H548.198V488.265C548.198 451.765 578.198 422.015 614.698 422.015H756.198V544.765ZM796.049 543.265V422.015H950.799V469.515C950.799 507.265 920.049 537.765 882.549 537.765H840.299V543.265C840.299 555.265 850.299 565.265 862.299 565.265H950.799V609.515H862.299C825.799 609.515 796.049 579.765 796.049 543.265ZM840.299 466.265V496.265H882.549C895.799 496.265 906.549 485.265 906.549 472.015V466.265H840.299Z" fill="#F4E5D3"/>
<path d="M1205.2 589.515C1207.45 593.515 1210.2 596.515 1210.2 596.515L1174.45 622.515C1164.45 610.265 1151.7 586.265 1151.7 544.765C1151.7 524.515 1151.7 489.265 1151.7 466.265H1113.45C1101.2 466.265 1091.45 476.265 1091.45 488.265V609.515H1047.2V488.265C1047.2 451.765 1076.95 422.015 1113.45 422.015H1195.95V544.765C1195.95 568.015 1200.95 582.015 1205.2 589.515Z" fill="#1C1C1C"/>
</svg>
