<svg width="1281" height="724" viewBox="0 0 1281 724" fill="none" xmlns="http://www.w3.org/2000/svg">
<path d="M56.5532 325.899C58.0992 325.899 505.087 347.106 895.57 365.646L1248.63 382.414L1260.73 382.989L1261.01 395.102L1267.19 665.602L1267.49 678.567L1254.53 678.895L28.5259 709.895L14.0991 710.259L15.2388 695.873L43.5942 337.873L44.5425 325.899H56.5532Z" fill="#F4E5D3" stroke="#1C1C1C" stroke-width="26"/>
<path d="M997.172 693.097C827.166 696.698 486.968 703.899 486.224 703.899L521.558 12.8989L970.671 27.7519L997.172 693.097Z" fill="#F0D6C2" stroke="#1C1C1C" stroke-width="25"/>
<path d="M671.948 217.899C685.448 194.149 692.698 164.399 692.698 130.399H736.948C736.948 202.399 710.448 246.149 688.198 270.149C659.948 300.399 621.448 317.899 582.198 317.899V273.649C603.198 273.649 623.948 266.149 641.698 252.899C604.448 232.899 582.198 188.149 582.198 130.399H626.448C626.448 176.399 643.948 209.649 671.948 217.899ZM874.87 273.649V130.399H919.12V317.899H824.62C791.37 317.899 764.62 290.899 764.62 257.899V130.399H808.87V257.899C808.87 266.649 815.87 273.649 824.62 273.649H874.87Z" fill="#B54F3E"/>
<path d="M207.698 561.899C212.698 576.899 226.948 587.649 243.698 587.649H246.698V631.899H243.698C206.948 631.899 175.948 607.899 165.198 574.649H136.198V628.899H91.9478V485.649H63.1978V441.399H238.948V502.649C238.948 527.149 226.448 548.899 207.698 561.899ZM136.198 485.649V530.399H166.948C182.198 530.399 194.698 517.899 194.698 502.649V485.649H136.198ZM436.551 575.399C436.551 580.399 440.801 584.649 445.801 584.649H451.801V628.899H445.801C431.551 628.899 418.551 623.399 409.051 614.149C398.551 623.399 385.051 628.899 370.051 628.899H340.801C308.301 628.899 281.801 602.399 281.801 569.899V509.649H392.301V507.649C392.301 495.649 382.301 485.649 370.051 485.649H289.301V441.399H370.051C406.801 441.399 436.551 471.149 436.551 507.649V575.399ZM377.551 584.649C385.551 584.649 392.301 578.149 392.301 569.899V553.899H326.051V569.899C326.051 578.149 332.801 584.649 340.801 584.649H377.551Z" fill="#1C1C1C"/>
<path d="M756.198 557.149C756.198 596.899 771.198 609.399 771.198 609.399V609.649L735.448 635.649C725.198 623.399 711.948 599.399 711.948 557.149C711.948 536.899 711.948 501.649 711.948 478.649H674.448V621.899H630.198V478.649H614.698C602.448 478.649 592.448 488.649 592.448 500.649V621.899H548.198V500.649C548.198 464.149 578.198 434.399 614.698 434.399H756.198V557.149ZM796.049 555.649V434.399H950.799V481.899C950.799 519.649 920.049 550.149 882.549 550.149H840.299V555.649C840.299 567.649 850.299 577.649 862.299 577.649H950.799V621.899H862.299C825.799 621.899 796.049 592.149 796.049 555.649ZM840.299 478.649V508.649H882.549C895.799 508.649 906.549 497.649 906.549 484.399V478.649H840.299Z" fill="#B54F3E"/>
<path d="M1205.2 601.899C1207.45 605.899 1210.2 608.899 1210.2 608.899L1174.45 634.899C1164.45 622.649 1151.7 598.649 1151.7 557.149C1151.7 536.899 1151.7 501.649 1151.7 478.649H1113.45C1101.2 478.649 1091.45 488.649 1091.45 500.649V621.899H1047.2V500.649C1047.2 464.149 1076.95 434.399 1113.45 434.399H1195.95V557.149C1195.95 580.399 1200.95 594.399 1205.2 601.899Z" fill="#1C1C1C"/>
</svg>
